<svg xmlns="http://www.w3.org/2000/svg" xmlns:xlink="http://www.w3.org/1999/xlink" width="367.224640" height="152.323273" viewBox="0 0 367.225 152.323"><path d="M2.94313 73L2.94313 37.7513L18.2095 37.7513L18.2095 42.863Q22.1509 37.1661 28.7945 37.1661Q36.6601 37.1661 39.4139 43.6892Q43.4069 37.1661 50.5151 37.1661Q55.8679 37.1661 59.0692 40.4879Q62.2705 43.8096 62.2705 50.0918L62.2705 73L46.4189 73L46.4189 53.6201Q46.4189 51.0212 45.8165 49.9713Q45.2313 48.9214 44.0609 48.9214Q42.8217 48.9214 42.0644 49.7992Q41.3071 50.677 40.5326 52.5014L40.5326 73L24.681 73L24.681 53.6201Q24.681 51.0212 24.0786 49.9713Q23.4934 48.9214 22.323 48.9214Q21.0838 48.9214 20.3265 49.7992Q19.5692 50.677 18.7947 52.5014L18.7947 73L2.94313 73ZM83.3205 60.2292Q82.5288 60.9521 82.5288 62.4323Q82.5288 63.8952 83.3205 64.6353Q84.1122 65.3582 85.1793 65.3582Q86.9349 65.3582 88.3979 64.0673L88.3979 60.78Q86.9349 59.4891 85.1793 59.4891Q84.1122 59.4891 83.3205 60.2292ZM69.7752 70.4699Q66.66 67.3547 66.66 62.4323Q66.66 57.4926 69.7752 54.3774Q72.8905 51.2621 78.7079 51.2621Q84.9384 51.2621 88.3979 54.6183L88.3979 51.8473Q88.3979 49.2656 86.78 48.2157Q85.1793 47.1486 81.651 47.1486Q77.2449 47.1486 70.7735 49.5066L67.2624 40.6944Q68.0197 40.2125 69.431 39.5412Q70.8423 38.87 75.6615 37.7341Q80.4807 36.5809 85.7645 36.5809Q104.267 36.5809 104.267 51.2621L104.267 73L89.5854 73L89.5854 68.8865Q89.465 69.0586 89.224 69.3856Q88.983 69.7126 88.0364 70.5388Q87.107 71.3477 85.9883 71.9673Q84.8867 72.5869 82.9074 73.0861Q80.9454 73.5852 78.7079 73.5852Q72.8905 73.5852 69.7752 70.4699ZM106.608 73L118.363 54.7905L107.778 37.7513L124.817 37.7513L128.931 48.319L133.044 37.7513L150.083 37.7513L139.499 54.7905L151.254 73L133.629 73L128.931 62.4323L124.232 73L106.608 73Z" fill="#000000" fill-opacity="1.000000" transform="matrix(1 0 0 1 119.211 21.9843)"/><path d="M3.52832 73L3.52832 37.7513L19.9823 37.7513L19.9823 73L3.52832 73ZM4.69868 34.2229L4.69868 23.6552L18.7947 23.6552L18.7947 34.2229L4.69868 34.2229ZM26.4379 73L26.4379 37.7513L41.7044 37.7513L41.7044 43.7408Q45.6974 37.1661 53.4597 37.1661Q59.2771 37.1661 62.8226 40.746Q66.3854 44.326 66.3854 50.6769L66.3854 73L49.9314 73L49.9314 54.2053Q49.9314 51.6236 49.2257 50.5737Q48.52 49.5066 46.9882 49.5066Q44.1139 49.5066 42.8747 53.4308L42.8747 73L26.4379 73ZM70.7716 47.1486L70.7716 37.7513L75.4703 37.7513L75.4703 34.8081Q75.4703 28.4055 79.4633 25.1526Q83.4735 21.8824 89.5835 21.8824Q92.8709 21.8824 95.8312 22.7086Q98.8088 23.5347 99.9791 24.1888Q101.15 24.8256 101.907 25.4108L97.8105 33.6378Q95.6935 32.4674 93.697 32.4674Q90.1687 32.4674 90.1687 35.9957L90.1687 37.7513L98.3957 37.7513L98.3957 47.1486L90.7539 47.1486L90.7539 73L74.8851 73L74.8851 47.1486L70.7716 47.1486Z" fill="#000000" fill-opacity="1.000000" transform="matrix(1 0 0 1 18.9807 21.9843)"/><path d="M3.11043 0L14.9301 0C15.2736 0 15.5521 0.278517 15.5521 0.622086L15.5521 12.4417C15.5521 14.1596 14.1596 15.5521 12.4417 15.5521L3.11043 15.5521C1.39259 15.5521 0 14.1596 0 12.4417L0 3.11043C0 1.39259 1.39259 0 3.11043 0L3.11043 0Z" fill="#EB512E" fill-opacity="1.000000" transform="matrix(1 0 0 1 23.1621 43.1552)"/><path d="M3.11043 0L14.9301 0C15.2736 0 15.5521 0.278517 15.5521 0.622086L15.5521 12.4417C15.5521 14.1596 14.1596 15.5521 12.4417 15.5521L3.11043 15.5521C1.39259 15.5521 0 14.1596 0 12.4417L0 3.11043C0 1.39259 1.39259 0 3.11043 0L3.11043 0Z" fill="none" stroke="#F94737" stroke-opacity="1.000000" stroke-width="2" stroke-dasharray="0 0" transform="matrix(1 0 0 1 23.1621 43.1552)"/><path d="M3.11043 0L14.9301 0C15.2736 0 15.5521 0.278517 15.5521 0.622086L15.5521 12.4417C15.5521 14.1596 14.1596 15.5521 12.4417 15.5521L3.11043 15.5521C1.39259 15.5521 0 14.1596 0 12.4417L0 3.11043C0 1.39259 1.39259 0 3.11043 0L3.11043 0Z" fill="#EB512E" fill-opacity="1.000000" transform="matrix(1 0 0 1 23.1621 43.1552)"/><path d="M3.11043 0L14.9301 0C15.2736 0 15.5521 0.278517 15.5521 0.622086L15.5521 12.4417C15.5521 14.1596 14.1596 15.5521 12.4417 15.5521L3.11043 15.5521C1.39259 15.5521 0 14.1596 0 12.4417L0 3.11043C0 1.39259 1.39259 0 3.11043 0L3.11043 0Z" fill="none" stroke="#F94737" stroke-opacity="1.000000" stroke-width="2" stroke-dasharray="0 0" transform="matrix(1 0 0 1 23.1621 43.1552)"/><path d="M0.874864 13.3596C0.874864 17.7083 4.38713 21.2248 8.74011 21.2248C13.0931 21.2248 16.6054 17.7083 16.6054 13.3596C16.6054 9.00658 13.0931 5.49005 8.74011 5.49005C4.38713 5.49005 0.874864 9.00658 0.874864 13.3596ZM15.9609 13.3596C15.9609 17.3413 12.7261 20.5761 8.74011 20.5761C4.75414 20.5761 1.51928 17.3413 1.51928 13.3596C1.51928 9.3736 4.75414 6.13873 8.74011 6.13873C12.7261 6.13873 15.9609 9.3736 15.9609 13.3596ZM3.56774 13.3596C3.56774 16.2231 5.87226 18.5319 8.74011 18.5319C11.608 18.5319 13.9125 16.2231 13.9125 13.3596C13.9125 10.4917 11.608 8.18293 8.74011 8.18293C5.87226 8.18293 3.56774 10.4917 3.56774 13.3596Z" fill="#D81918" fill-opacity="1.000000" transform="matrix(0.989899 0.141775 -0.141717 0.989907 284.635 61.9287)"/><path d="M40.2897 20.1448C40.2897 31.2705 31.2706 40.2896 20.1449 40.2896C9.01916 40.2896 0 31.2705 0 20.1448C0 9.01914 9.01916 0 20.1449 0L20.1516 10.0758C14.5869 10.0758 10.0758 14.5869 10.0758 20.1515C10.0758 25.7162 14.5869 30.2273 20.1516 30.2273C25.7163 30.2273 30.2274 25.7162 30.2274 20.1515L40.2897 20.1448L40.2897 20.1448Z" fill="#8A8A8A" fill-opacity="1.000000" transform="matrix(0.793377 0.608731 -0.608734 0.793374 287.097 48.0968)"/><path d="M40.2897 20.1448C40.2897 31.2705 31.2706 40.2896 20.1449 40.2896C9.01916 40.2896 0 31.2705 0 20.1448C0 9.01914 9.01916 0 20.1449 0L20.1516 10.0758C14.5869 10.0758 10.0758 14.5869 10.0758 20.1515C10.0758 25.7162 14.5869 30.2273 20.1516 30.2273C25.7163 30.2273 30.2274 25.7162 30.2274 20.1515L40.2897 20.1448L40.2897 20.1448Z" fill="#8A8A8A" fill-opacity="1.000000" transform="matrix(0.793377 0.608731 -0.608734 0.793374 287.097 48.0968)"/><path d="M40.2897 20.1448C40.2897 31.2705 31.2705 40.2896 20.1449 40.2896C9.01916 40.2896 0 31.2705 0 20.1448C0 9.01913 9.01916 0 20.1449 0L20.1516 10.0758C14.5869 10.0758 10.0758 14.5868 10.0758 20.1515C10.0758 25.7162 14.5869 30.2273 20.1516 30.2273C25.7163 30.2273 30.2274 25.7162 30.2274 20.1515L40.2897 20.1448L40.2897 20.1448Z" fill="#8A8A8A" fill-opacity="1.000000" transform="matrix(0.920719 -0.390226 0.390221 0.920721 264.646 65.4714)"/><path d="M40.2897 20.1448C40.2897 31.2705 31.2705 40.2896 20.1449 40.2896C9.01916 40.2896 0 31.2705 0 20.1448C0 9.01913 9.01916 0 20.1449 0L20.1516 10.0758C14.5869 10.0758 10.0758 14.5868 10.0758 20.1515C10.0758 25.7162 14.5869 30.2273 20.1516 30.2273C25.7163 30.2273 30.2274 25.7162 30.2274 20.1515L40.2897 20.1448L40.2897 20.1448Z" fill="#8A8A8A" fill-opacity="1.000000" transform="matrix(0.920719 -0.390226 0.390221 0.920721 264.646 65.4714)"/></svg>