<svg xmlns="http://www.w3.org/2000/svg" xmlns:xlink="http://www.w3.org/1999/xlink" width="71.663116" height="71.663208" viewBox="0 0 71.6631 71.6632"><path d="M0.380541 9L0.380541 4.44241L2.35446 4.44241L2.35446 5.10335Q2.86407 4.36675 3.72307 4.36675Q4.74007 4.36675 5.09613 5.21017Q5.61242 4.36675 6.5315 4.36675Q7.2236 4.36675 7.63752 4.79625Q8.05144 5.22575 8.05144 6.03801L8.05144 9L6.00186 9L6.00186 6.49422Q6.00186 6.15818 5.92397 6.02244Q5.84831 5.88669 5.69698 5.88669Q5.53676 5.88669 5.43884 6.00018Q5.34092 6.11368 5.24078 6.34957L5.24078 9L3.1912 9L3.1912 6.49422Q3.1912 6.15818 3.11331 6.02244Q3.03765 5.88669 2.88632 5.88669Q2.7261 5.88669 2.62818 6.00018Q2.53026 6.11368 2.43012 6.34957L2.43012 9L0.380541 9ZM10.7695 7.34876Q10.6671 7.44223 10.6671 7.63361Q10.6671 7.82277 10.7695 7.91846Q10.8719 8.01193 11.0098 8.01193Q11.2368 8.01193 11.426 7.84503L11.426 7.41998Q11.2368 7.25307 11.0098 7.25307Q10.8719 7.25307 10.7695 7.34876ZM9.01812 8.67287Q8.61532 8.27007 8.61532 7.63361Q8.61532 6.99493 9.01812 6.59213Q9.42091 6.18934 10.1731 6.18934Q10.9787 6.18934 11.426 6.62329L11.426 6.265Q11.426 5.93119 11.2168 5.79545Q11.0098 5.65747 10.5536 5.65747Q9.98394 5.65747 9.14719 5.96235L8.69321 4.82295Q8.79113 4.76064 8.97361 4.67385Q9.15609 4.58706 9.7792 4.44019Q10.4023 4.29109 11.0855 4.29109Q13.4778 4.29109 13.4778 6.18934L13.4778 9L11.5795 9L11.5795 8.46813Q11.564 8.49039 11.5328 8.53267Q11.5016 8.57495 11.3793 8.68177Q11.2591 8.78636 11.1144 8.86648Q10.972 8.94659 10.7161 9.01113Q10.4624 9.07566 10.1731 9.07566Q9.42091 9.07566 9.01812 8.67287ZM13.7781 9L15.2981 6.64554L13.9294 4.44241L16.1326 4.44241L16.6644 5.8088L17.1963 4.44241L19.3994 4.44241L18.0308 6.64554L19.5508 9L17.272 9L16.6644 7.63361L16.0569 9L13.7781 9Z" fill="#000000" fill-opacity="1.000000" transform="matrix(1 0 0 1 19.1454 34.7956)"/><path d="M0.456204 9L0.456204 4.44241L2.58367 4.44241L2.58367 9L0.456204 9ZM0.60753 3.98621L0.60753 2.61982L2.43012 2.61982L2.43012 3.98621L0.60753 3.98621ZM3.41704 9L3.41704 4.44241L5.39096 4.44241L5.39096 5.21685Q5.90724 4.36675 6.91089 4.36675Q7.66307 4.36675 8.1215 4.82963Q8.58216 5.29251 8.58216 6.11368L8.58216 9L6.45469 9L6.45469 6.56988Q6.45469 6.23607 6.36345 6.10032Q6.27221 5.96235 6.07415 5.96235Q5.70251 5.96235 5.54228 6.46974L5.54228 9L3.41704 9ZM9.14671 5.65747L9.14671 4.44241L9.75424 4.44241L9.75424 4.06187Q9.75424 3.23403 10.2705 2.81343Q10.789 2.39061 11.5791 2.39061Q12.0041 2.39061 12.3869 2.49743Q12.7719 2.60425 12.9232 2.68881Q13.0745 2.77115 13.1724 2.84681L12.6428 3.91055Q12.3691 3.75922 12.1109 3.75922Q11.6547 3.75922 11.6547 4.21542L11.6547 4.44241L12.7185 4.44241L12.7185 5.65747L11.7304 5.65747L11.7304 9L9.67858 9L9.67858 5.65747L9.14671 5.65747Z" fill="#000000" fill-opacity="1.000000" transform="matrix(1 0 0 1 19.1009 28.9919)"/><path d="M0.402172 0L1.93043 0C1.97485 0 2.01086 0.0360117 2.01086 0.0804344L2.01086 1.60869C2.01086 1.8308 1.8308 2.01086 1.60869 2.01086L0.402172 2.01086C0.180058 2.01086 0 1.8308 0 1.60869L0 0.402172C0 0.180058 0.180058 0 0.402172 0L0.402172 0Z" fill="#EB512E" fill-opacity="1.000000" transform="matrix(1 0 0 1 19.5907 31.7292)"/><path d="M0.402172 0L1.93043 0C1.97485 0 2.01086 0.0360117 2.01086 0.0804344L2.01086 1.60869C2.01086 1.8308 1.8308 2.01086 1.60869 2.01086L0.402172 2.01086C0.180058 2.01086 0 1.8308 0 1.60869L0 0.402172C0 0.180058 0.180058 0 0.402172 0L0.402172 0Z" fill="none" stroke="#F94737" stroke-opacity="1.000000" stroke-width="2" stroke-dasharray="0 0" transform="matrix(1 0 0 1 19.5907 31.7292)"/><path d="M0.402172 0L1.93043 0C1.97485 0 2.01086 0.0360117 2.01086 0.0804344L2.01086 1.60869C2.01086 1.8308 1.8308 2.01086 1.60869 2.01086L0.402172 2.01086C0.180058 2.01086 0 1.8308 0 1.60869L0 0.402172C0 0.180058 0.180058 0 0.402172 0L0.402172 0Z" fill="#EB512E" fill-opacity="1.000000" transform="matrix(1 0 0 1 19.5907 31.7292)"/><path d="M0.402172 0L1.93043 0C1.97485 0 2.01086 0.0360117 2.01086 0.0804344L2.01086 1.60869C2.01086 1.8308 1.8308 2.01086 1.60869 2.01086L0.402172 2.01086C0.180058 2.01086 0 1.8308 0 1.60869L0 0.402172C0 0.180058 0.180058 0 0.402172 0L0.402172 0Z" fill="none" stroke="#F94737" stroke-opacity="1.000000" stroke-width="2" stroke-dasharray="0 0" transform="matrix(1 0 0 1 19.5907 31.7292)"/><path d="M0.113117 2.14142C0.113117 2.70369 0.567238 3.15836 1.13006 3.15836C1.69289 3.15836 2.14701 2.70369 2.14701 2.14142C2.14701 1.57859 1.69289 1.12392 1.13006 1.12392C0.567238 1.12392 0.113117 1.57859 0.113117 2.14142ZM2.06369 2.14142C2.06369 2.65624 1.64543 3.07449 1.13006 3.07449C0.614692 3.07449 0.196436 2.65624 0.196436 2.14142C0.196436 1.62605 0.614692 1.20779 1.13006 1.20779C1.64543 1.20779 2.06369 1.62605 2.06369 2.14142ZM0.461295 2.14142C0.461295 2.51167 0.75926 2.81018 1.13006 2.81018C1.50086 2.81018 1.79883 2.51167 1.79883 2.14142C1.79883 1.77062 1.50086 1.4721 1.13006 1.4721C0.75926 1.4721 0.461295 1.77062 0.461295 2.14142Z" fill="#D81918" fill-opacity="1.000000" transform="matrix(0.9899 0.141766 -0.141766 0.9899 34.9314 33.9417)"/><path d="M5.20937 2.60468C5.20937 4.04321 4.04321 5.20937 2.60468 5.20937C1.16616 5.20937 0 4.04321 0 2.60468C0 1.16616 1.16616 0 2.60468 0L2.60556 1.30278C1.88605 1.30278 1.30278 1.88605 1.30278 2.60556C1.30278 3.32506 1.88605 3.90833 2.60556 3.90833C3.32506 3.90833 3.90833 3.32506 3.90833 2.60556L5.20937 2.60468L5.20937 2.60468Z" fill="#8A8A8A" fill-opacity="1.000000" transform="matrix(0.793376 0.608731 -0.608735 0.793374 35.3187 32.2029)"/><path d="M5.20937 2.60468C5.20937 4.04321 4.04321 5.20937 2.60468 5.20937C1.16616 5.20937 0 4.04321 0 2.60468C0 1.16616 1.16616 0 2.60468 0L2.60556 1.30278C1.88605 1.30278 1.30278 1.88605 1.30278 2.60556C1.30278 3.32506 1.88605 3.90833 2.60556 3.90833C3.32506 3.90833 3.90833 3.32506 3.90833 2.60556L5.20937 2.60468L5.20937 2.60468Z" fill="#8A8A8A" fill-opacity="1.000000" transform="matrix(0.793376 0.608731 -0.608735 0.793374 35.3187 32.2029)"/><path d="M5.20938 2.60468C5.20938 4.04321 4.04322 5.20937 2.60469 5.20937C1.16616 5.20937 0 4.04321 0 2.60468C0 1.16616 1.16616 0 2.60469 0L2.60556 1.30278C1.88605 1.30278 1.30278 1.88605 1.30278 2.60556C1.30278 3.32506 1.88605 3.90833 2.60556 3.90833C3.32506 3.90833 3.90834 3.32506 3.90834 2.60556L5.20938 2.60468L5.20938 2.60468Z" fill="#8A8A8A" fill-opacity="1.000000" transform="matrix(0.920719 -0.390226 0.390223 0.92072 32.4158 34.4494)"/><path d="M5.20938 2.60468C5.20938 4.04321 4.04322 5.20937 2.60469 5.20937C1.16616 5.20937 0 4.04321 0 2.60468C0 1.16616 1.16616 0 2.60469 0L2.60556 1.30278C1.88605 1.30278 1.30278 1.88605 1.30278 2.60556C1.30278 3.32506 1.88605 3.90833 2.60556 3.90833C3.32506 3.90833 3.90834 3.32506 3.90834 2.60556L5.20938 2.60468L5.20938 2.60468Z" fill="#8A8A8A" fill-opacity="1.000000" transform="matrix(0.920719 -0.390226 0.390223 0.92072 32.4158 34.4494)"/></svg>