<svg xmlns="http://www.w3.org/2000/svg" xmlns:xlink="http://www.w3.org/1999/xlink" width="219.495270" height="125.650833" viewBox="0 0 219.495 125.651"><path d="M1.46746 36L1.46746 18.4248L9.07938 18.4248L9.07938 20.9735Q11.0446 18.133 14.3571 18.133Q18.2789 18.133 19.652 21.3855Q21.6429 18.133 25.1871 18.133Q27.856 18.133 29.4522 19.7893Q31.0484 21.4455 31.0484 24.5778L31.0484 36L23.1447 36L23.1447 26.3371Q23.1447 25.0412 22.8443 24.5178Q22.5526 23.9943 21.969 23.9943Q21.3511 23.9943 20.9735 24.4319Q20.596 24.8696 20.2098 25.7793L20.2098 36L12.3061 36L12.3061 26.3371Q12.3061 25.0412 12.0057 24.5178Q11.714 23.9943 11.1304 23.9943Q10.5125 23.9943 10.1349 24.4319Q9.75733 24.8696 9.37116 25.7793L9.37116 36L1.46746 36ZM41.5409 29.6324Q41.1462 29.9928 41.1462 30.7309Q41.1462 31.4603 41.5409 31.8293Q41.9357 32.1897 42.4677 32.1897Q43.3431 32.1897 44.0725 31.5461L44.0725 29.907Q43.3431 29.2634 42.4677 29.2634Q41.9357 29.2634 41.5409 29.6324ZM34.7872 34.7385Q33.2339 33.1852 33.2339 30.7309Q33.2339 28.2679 34.7872 26.7147Q36.3404 25.1614 39.241 25.1614Q42.3476 25.1614 44.0725 26.8348L44.0725 25.4532Q44.0725 24.1659 43.2658 23.6424Q42.4677 23.1104 40.7085 23.1104Q38.5116 23.1104 35.2849 24.286L33.5342 19.8922Q33.9118 19.652 34.6155 19.3173Q35.3192 18.9826 37.7221 18.4162Q40.1249 17.8412 42.7595 17.8412Q51.9848 17.8412 51.9848 25.1614L51.9848 36L44.6646 36L44.6646 33.949Q44.6046 34.0348 44.4844 34.1979Q44.3643 34.3609 43.8923 34.7728Q43.4289 35.1762 42.8711 35.4851Q42.3218 35.794 41.335 36.0429Q40.3566 36.2918 39.241 36.2918Q36.3404 36.2918 34.7872 34.7385ZM53.15 36L59.0113 26.9206L53.7336 18.4248L62.2294 18.4248L64.2804 23.6939L66.3314 18.4248L74.8273 18.4248L69.5496 26.9206L75.4108 36L66.6232 36L64.2804 30.7309L61.9376 36L53.15 36Z" fill="#EBEBEB" fill-opacity="1.000000" transform="matrix(1 0 0 1 70.9836 35.8123)"/><path d="M1.75924 36L1.75924 18.4248L9.96329 18.4248L9.96329 36L1.75924 36ZM2.34279 16.6655L2.34279 11.3964L9.37116 11.3964L9.37116 16.6655L2.34279 16.6655ZM13.181 36L13.181 18.4248L20.7929 18.4248L20.7929 21.4112Q22.7838 18.133 26.6542 18.133Q29.5548 18.133 31.3226 19.918Q33.099 21.703 33.099 24.8696L33.099 36L24.8949 36L24.8949 26.6288Q24.8949 25.3416 24.5431 24.8181Q24.1912 24.286 23.4275 24.286Q21.9943 24.286 21.3764 26.2427L21.3764 36L13.181 36ZM35.2837 23.1104L35.2837 18.4248L37.6265 18.4248L37.6265 16.9573Q37.6265 13.7649 39.6175 12.143Q41.617 10.5125 44.6635 10.5125Q46.3026 10.5125 47.7786 10.9244Q49.2633 11.3363 49.8468 11.6624Q50.4304 11.98 50.8079 12.2717L48.7655 16.3738Q47.71 15.7902 46.7145 15.7902Q44.9553 15.7902 44.9553 17.5495L44.9553 18.4248L49.0573 18.4248L49.0573 23.1104L45.247 23.1104L45.247 36L37.3348 36L37.3348 23.1104L35.2837 23.1104Z" fill="#EBEBEB" fill-opacity="1.000000" transform="matrix(1 0 0 1 21.0081 35.8123)"/><path d="M1.55088 0L7.44421 0C7.61552 0 7.75439 0.13887 7.75439 0.310176L7.75439 6.20351C7.75439 7.06004 7.06004 7.75439 6.20351 7.75439L1.55088 7.75439C0.694352 7.75439 0 7.06004 0 6.20351L0 1.55088C0 0.694352 0.694352 0 1.55088 0L1.55088 0Z" fill="#EB512E" fill-opacity="1.000000" transform="matrix(1 0 0 1 23.093 46.3683)"/><path d="M1.55088 0L7.44421 0C7.61552 0 7.75439 0.13887 7.75439 0.310176L7.75439 6.20351C7.75439 7.06004 7.06004 7.75439 6.20351 7.75439L1.55088 7.75439C0.694352 7.75439 0 7.06004 0 6.20351L0 1.55088C0 0.694352 0.694352 0 1.55088 0L1.55088 0Z" fill="none" stroke="#F94737" stroke-opacity="1.000000" stroke-width="2" stroke-dasharray="0 0" transform="matrix(1 0 0 1 23.093 46.3683)"/><path d="M1.55088 0L7.44421 0C7.61552 0 7.75439 0.13887 7.75439 0.310176L7.75439 6.20351C7.75439 7.06004 7.06004 7.75439 6.20351 7.75439L1.55088 7.75439C0.694352 7.75439 0 7.06004 0 6.20351L0 1.55088C0 0.694352 0.694352 0 1.55088 0L1.55088 0Z" fill="#EB512E" fill-opacity="1.000000" transform="matrix(1 0 0 1 23.093 46.3683)"/><path d="M1.55088 0L7.44421 0C7.61552 0 7.75439 0.13887 7.75439 0.310176L7.75439 6.20351C7.75439 7.06004 7.06004 7.75439 6.20351 7.75439L1.55088 7.75439C0.694352 7.75439 0 7.06004 0 6.20351L0 1.55088C0 0.694352 0.694352 0 1.55088 0L1.55088 0Z" fill="none" stroke="#F94737" stroke-opacity="1.000000" stroke-width="2" stroke-dasharray="0 0" transform="matrix(1 0 0 1 23.093 46.3683)"/><path d="M0.436212 6.68904C0.436212 8.85734 2.18744 10.6107 4.35787 10.6107C6.52829 10.6107 8.27952 8.85734 8.27952 6.68904C8.27952 4.51862 6.52829 2.76526 4.35787 2.76526C2.18744 2.76526 0.436212 4.51862 0.436212 6.68904ZM7.95821 6.68904C7.95821 8.67434 6.34529 10.2873 4.35787 10.2873C2.37044 10.2873 0.75752 8.67434 0.75752 6.68904C0.75752 4.70162 2.37044 3.0887 4.35787 3.0887C6.34529 3.0887 7.95821 4.70162 7.95821 6.68904ZM1.77889 6.68904C1.77889 8.11684 2.92794 9.26801 4.35787 9.26801C5.78779 9.26801 6.93684 8.11684 6.93684 6.68904C6.93684 5.25912 5.78779 4.10794 4.35787 4.10794C2.92794 4.10794 1.77889 5.25912 1.77889 6.68904Z" fill="#D81918" fill-opacity="1.000000" transform="matrix(0.989899 0.141775 -0.141718 0.989907 153.465 55.7292)"/><path d="M20.0887 10.0443C20.0887 15.5916 15.5917 20.0886 10.0443 20.0886C4.497 20.0886 0 15.5916 0 10.0443C0 4.497 4.497 0 10.0443 0L10.0477 5.02384C7.2731 5.02384 5.02385 7.27309 5.02385 10.0477C5.02385 12.8223 7.2731 15.0715 10.0477 15.0715C12.8223 15.0715 15.0715 12.8223 15.0715 10.0477L20.0887 10.0443L20.0887 10.0443Z" fill="#8A8A8A" fill-opacity="1.000000" transform="matrix(0.793377 0.608731 -0.608734 0.793374 154.693 48.8321)"/><path d="M20.0887 10.0443C20.0887 15.5916 15.5917 20.0886 10.0443 20.0886C4.497 20.0886 0 15.5916 0 10.0443C0 4.497 4.497 0 10.0443 0L10.0477 5.02384C7.2731 5.02384 5.02385 7.27309 5.02385 10.0477C5.02385 12.8223 7.2731 15.0715 10.0477 15.0715C12.8223 15.0715 15.0715 12.8223 15.0715 10.0477L20.0887 10.0443L20.0887 10.0443Z" fill="#8A8A8A" fill-opacity="1.000000" transform="matrix(0.793377 0.608731 -0.608734 0.793374 154.693 48.8321)"/><path d="M20.0887 10.0443C20.0887 15.5916 15.5917 20.0886 10.0443 20.0886C4.497 20.0886 0 15.5916 0 10.0443C0 4.49699 4.497 0 10.0443 0L10.0477 5.02384C7.2731 5.02384 5.02385 7.27309 5.02385 10.0477C5.02385 12.8223 7.2731 15.0715 10.0477 15.0715C12.8223 15.0715 15.0715 12.8223 15.0715 10.0477L20.0887 10.0443L20.0887 10.0443Z" fill="#8A8A8A" fill-opacity="1.000000" transform="matrix(0.920719 -0.390226 0.390221 0.920721 143.498 57.4952)"/><path d="M20.0887 10.0443C20.0887 15.5916 15.5917 20.0886 10.0443 20.0886C4.497 20.0886 0 15.5916 0 10.0443C0 4.49699 4.497 0 10.0443 0L10.0477 5.02384C7.2731 5.02384 5.02385 7.27309 5.02385 10.0477C5.02385 12.8223 7.2731 15.0715 10.0477 15.0715C12.8223 15.0715 15.0715 12.8223 15.0715 10.0477L20.0887 10.0443L20.0887 10.0443Z" fill="#8A8A8A" fill-opacity="1.000000" transform="matrix(0.920719 -0.390226 0.390221 0.920721 143.498 57.4952)"/></svg>