<svg xmlns="http://www.w3.org/2000/svg" xmlns:xlink="http://www.w3.org/1999/xlink" width="79.579285" height="79.579437" viewBox="0 0 79.5793 79.5794"><path d="M0.182372 5L0.182372 2.81581L1.12836 2.81581L1.12836 3.13256Q1.37259 2.77955 1.78426 2.77955Q2.27165 2.77955 2.44229 3.18375Q2.68971 2.77955 3.13018 2.77955Q3.46186 2.77955 3.66023 2.98538Q3.8586 3.19122 3.8586 3.58049L3.8586 5L2.87635 5L2.87635 3.79912Q2.87635 3.63808 2.83902 3.57302Q2.80276 3.50797 2.73024 3.50797Q2.65345 3.50797 2.60653 3.56236Q2.5596 3.61675 2.51161 3.7298L2.51161 5L1.52936 5L1.52936 3.79912Q1.52936 3.63808 1.49203 3.57302Q1.45577 3.50797 1.38325 3.50797Q1.30646 3.50797 1.25954 3.56236Q1.21261 3.61675 1.16462 3.7298L1.16462 5L0.182372 5ZM5.15538 4.20866Q5.10632 4.25345 5.10632 4.34517Q5.10632 4.43582 5.15538 4.48168Q5.20444 4.52647 5.27056 4.52647Q5.37934 4.52647 5.46999 4.44649L5.46999 4.24278Q5.37934 4.1628 5.27056 4.1628Q5.20444 4.1628 5.15538 4.20866ZM4.31604 4.84322Q4.123 4.65019 4.123 4.34517Q4.123 4.03908 4.31604 3.84605Q4.50908 3.65301 4.86955 3.65301Q5.25563 3.65301 5.46999 3.86098L5.46999 3.68927Q5.46999 3.5293 5.36974 3.46424Q5.27056 3.39812 5.05193 3.39812Q4.7789 3.39812 4.3779 3.54423L4.16033 2.99818Q4.20726 2.96832 4.29471 2.92672Q4.38216 2.88513 4.68078 2.81474Q4.9794 2.74329 5.30682 2.74329Q6.45331 2.74329 6.45331 3.65301L6.45331 5L5.54358 5L5.54358 4.74511Q5.53612 4.75577 5.52119 4.77603Q5.50626 4.7963 5.4476 4.84749Q5.39001 4.89762 5.32068 4.93601Q5.25243 4.9744 5.12978 5.00533Q5.0082 5.03626 4.86955 5.03626Q4.50908 5.03626 4.31604 4.84322ZM6.59349 5L7.32191 3.87164L6.66601 2.81581L7.72185 2.81581L7.97674 3.47064L8.23164 2.81581L9.28747 2.81581L8.63157 3.87164L9.35999 5L8.2679 5L7.97674 4.34517L7.68559 5L6.59349 5Z" fill="#000000" fill-opacity="1.000000" transform="matrix(1 0 0 1 31.7929 39.2932)"/><path d="M0.218633 5L0.218633 2.81581L1.23821 2.81581L1.23821 5L0.218633 5ZM0.291155 2.59717L0.291155 1.94234L1.16462 1.94234L1.16462 2.59717L0.291155 2.59717ZM1.63548 5L1.63548 2.81581L2.58147 2.81581L2.58147 3.18695Q2.8289 2.77955 3.30989 2.77955Q3.67036 2.77955 3.89006 3.00138Q4.11083 3.22321 4.11083 3.61675L4.11083 5L3.09125 5L3.09125 3.83538Q3.09125 3.67541 3.04753 3.61035Q3.0038 3.54423 2.90888 3.54423Q2.73078 3.54423 2.65399 3.78739L2.65399 5L1.63548 5ZM4.37731 3.39812L4.37731 2.81581L4.66846 2.81581L4.66846 2.63344Q4.66846 2.2367 4.91589 2.03513Q5.16438 1.83249 5.54299 1.83249Q5.74669 1.83249 5.93013 1.88369Q6.11464 1.93488 6.18716 1.9754Q6.25968 2.01487 6.30661 2.05113L6.05278 2.56091Q5.9216 2.48839 5.79789 2.48839Q5.57925 2.48839 5.57925 2.70702L5.57925 2.81581L6.08904 2.81581L6.08904 3.39812L5.61551 3.39812L5.61551 5L4.6322 5L4.6322 3.39812L4.37731 3.39812Z" fill="#000000" fill-opacity="1.000000" transform="matrix(1 0 0 1 31.7716 36.5119)"/><path d="M0.192738 0L0.925143 0C0.946432 0 0.963691 0.0172584 0.963691 0.0385476L0.963691 0.770953C0.963691 0.877399 0.877399 0.963691 0.770953 0.963691L0.192738 0.963691C0.0862918 0.963691 0 0.877399 0 0.770953L0 0.192738C0 0.0862918 0.0862918 0 0.192738 0L0.192738 0Z" fill="#EB512E" fill-opacity="1.000000" transform="matrix(1 0 0 1 32.0063 37.8237)"/><path d="M0.192738 0L0.925143 0C0.946432 0 0.963691 0.0172584 0.963691 0.0385476L0.963691 0.770953C0.963691 0.877399 0.877399 0.963691 0.770953 0.963691L0.192738 0.963691C0.0862918 0.963691 0 0.877399 0 0.770953L0 0.192738C0 0.0862918 0.0862918 0 0.192738 0L0.192738 0Z" fill="none" stroke="#F94737" stroke-opacity="1.000000" stroke-width="2" stroke-dasharray="0 0" transform="matrix(1 0 0 1 32.0063 37.8237)"/><path d="M0.192738 0L0.925143 0C0.946432 0 0.963691 0.0172584 0.963691 0.0385476L0.963691 0.770953C0.963691 0.877399 0.877399 0.963691 0.770953 0.963691L0.192738 0.963691C0.0862918 0.963691 0 0.877399 0 0.770953L0 0.192738C0 0.0862918 0.0862918 0 0.192738 0L0.192738 0Z" fill="#EB512E" fill-opacity="1.000000" transform="matrix(1 0 0 1 32.0063 37.8237)"/><path d="M0.192738 0L0.925143 0C0.946432 0 0.963691 0.0172584 0.963691 0.0385476L0.963691 0.770953C0.963691 0.877399 0.877399 0.963691 0.770953 0.963691L0.192738 0.963691C0.0862918 0.963691 0 0.877399 0 0.770953L0 0.192738C0 0.0862918 0.0862918 0 0.192738 0L0.192738 0Z" fill="none" stroke="#F94737" stroke-opacity="1.000000" stroke-width="2" stroke-dasharray="0 0" transform="matrix(1 0 0 1 32.0063 37.8237)"/><path d="M0.0542109 0.588526C0.0542109 0.857994 0.271848 1.0759 0.54158 1.0759C0.811312 1.0759 1.02895 0.857994 1.02895 0.588526C1.02895 0.318794 0.811312 0.100893 0.54158 0.100893C0.271848 0.100893 0.0542109 0.318794 0.0542109 0.588526ZM0.989018 0.588526C0.989018 0.835252 0.78857 1.0357 0.54158 1.0357C0.29459 1.0357 0.0941418 0.835252 0.0941418 0.588526C0.0941418 0.341536 0.29459 0.141088 0.54158 0.141088C0.78857 0.141088 0.989018 0.341536 0.989018 0.588526ZM0.221075 0.588526C0.221075 0.765968 0.363874 0.909032 0.54158 0.909032C0.719286 0.909032 0.862085 0.765968 0.862085 0.588526C0.862085 0.41082 0.719286 0.267757 0.54158 0.267757C0.363874 0.267757 0.221075 0.41082 0.221075 0.588526Z" fill="#D81918" fill-opacity="1.000000" transform="matrix(0.9899 0.141769 -0.141811 0.989894 39.401 38.847)"/><path d="M2.49655 1.24828C2.49655 1.93768 1.93768 2.49655 1.24828 2.49655C0.558873 2.49655 0 1.93768 0 1.24828C0 0.558873 0.558873 0 1.24828 0L1.24869 0.624347C0.903877 0.624347 0.624347 0.903877 0.624347 1.24869C0.624347 1.59351 0.903877 1.87304 1.24869 1.87304C1.59351 1.87304 1.87304 1.59351 1.87304 1.24869L2.49655 1.24828L2.49655 1.24828Z" fill="#8A8A8A" fill-opacity="1.000000" transform="matrix(0.793376 0.608732 -0.608735 0.793374 39.5439 38.0507)"/><path d="M2.49655 1.24828C2.49655 1.93768 1.93768 2.49655 1.24828 2.49655C0.558873 2.49655 0 1.93768 0 1.24828C0 0.558873 0.558873 0 1.24828 0L1.24869 0.624347C0.903877 0.624347 0.624347 0.903877 0.624347 1.24869C0.624347 1.59351 0.903877 1.87304 1.24869 1.87304C1.59351 1.87304 1.87304 1.59351 1.87304 1.24869L2.49655 1.24828L2.49655 1.24828Z" fill="#8A8A8A" fill-opacity="1.000000" transform="matrix(0.793376 0.608732 -0.608735 0.793374 39.5439 38.0507)"/><path d="M2.49656 1.24828C2.49656 1.93768 1.93769 2.49656 1.24828 2.49656C0.558874 2.49656 0 1.93768 0 1.24828C0 0.558873 0.558874 0 1.24828 0L1.2487 0.624348C0.903879 0.624348 0.624348 0.903878 0.624348 1.2487C0.624348 1.59351 0.903879 1.87304 1.2487 1.87304C1.59351 1.87304 1.87305 1.59351 1.87305 1.2487L2.49656 1.24828L2.49656 1.24828Z" fill="#8A8A8A" fill-opacity="1.000000" transform="matrix(0.920719 -0.390226 0.390223 0.92072 38.1526 39.1273)"/><path d="M2.49656 1.24828C2.49656 1.93768 1.93769 2.49656 1.24828 2.49656C0.558874 2.49656 0 1.93768 0 1.24828C0 0.558873 0.558874 0 1.24828 0L1.2487 0.624348C0.903879 0.624348 0.624348 0.903878 0.624348 1.2487C0.624348 1.59351 0.903879 1.87304 1.2487 1.87304C1.59351 1.87304 1.87305 1.59351 1.87305 1.2487L2.49656 1.24828L2.49656 1.24828Z" fill="#8A8A8A" fill-opacity="1.000000" transform="matrix(0.920719 -0.390226 0.390223 0.92072 38.1526 39.1273)"/></svg>