<svg xmlns="http://www.w3.org/2000/svg" xmlns:xlink="http://www.w3.org/1999/xlink" width="200.881500" height="164.114624" viewBox="0 0 200.882 164.115"><path d="M2.79796 69L2.79796 35.49L17.3113 35.49L17.3113 40.3496Q21.0583 34.9337 27.3741 34.9337Q34.8517 34.9337 37.4697 41.135Q41.2658 34.9337 48.0234 34.9337Q53.1121 34.9337 56.1555 38.0916Q59.1988 41.2495 59.1988 47.2218L59.1988 69L44.1292 69L44.1292 50.576Q44.1292 48.1053 43.5565 47.1072Q43.0002 46.1091 41.8875 46.1091Q40.7094 46.1091 39.9895 46.9436Q39.2695 47.7781 38.5332 49.5125L38.5332 69L23.4636 69L23.4636 50.576Q23.4636 48.1053 22.8909 47.1072Q22.3346 46.1091 21.2219 46.1091Q20.0438 46.1091 19.3239 46.9436Q18.6039 47.7781 17.8676 49.5125L17.8676 69L2.79796 69ZM79.218 56.8592Q78.4653 57.5464 78.4653 58.9535Q78.4653 60.3443 79.218 61.0479Q79.9707 61.7351 80.9851 61.7351Q82.6541 61.7351 84.0449 60.508L84.0449 57.3828Q82.6541 56.1556 80.9851 56.1556Q79.9707 56.1556 79.218 56.8592ZM66.3409 66.5947Q63.3793 63.6332 63.3793 58.9535Q63.3793 54.2576 66.3409 51.296Q69.3024 48.3344 74.8329 48.3344Q80.7561 48.3344 84.0449 51.5251L84.0449 48.8907Q84.0449 46.4364 82.5068 45.4383Q80.9851 44.4238 77.6309 44.4238Q73.4421 44.4238 67.2899 46.6654L63.952 38.2879Q64.6719 37.8298 66.0136 37.1917Q67.3553 36.5535 71.9368 35.4736Q76.5182 34.3773 81.5415 34.3773Q99.1309 34.3773 99.1309 48.3344L99.1309 69L85.1739 69L85.1739 65.0894Q85.0593 65.253 84.8303 65.5639Q84.6012 65.8748 83.7013 66.6602Q82.8177 67.4292 81.7542 68.0183Q80.707 68.6073 78.8253 69.0818Q76.96 69.5563 74.8329 69.5563Q69.3024 69.5563 66.3409 66.5947ZM101.361 69L112.537 51.6887L102.474 35.49L118.673 35.49L122.583 45.5364L126.494 35.49L142.693 35.49L132.63 51.6887L143.805 69L127.05 69L122.583 58.9535L118.116 69L101.361 69Z" fill="#000000" fill-opacity="1.000000" transform="matrix(1 0 0 1 8.50208 62.0751)"/><path d="M3.35427 69L3.35427 35.49L18.9966 35.49L18.9966 69L3.35427 69ZM4.46691 32.1357L4.46691 22.0893L17.8676 22.0893L17.8676 32.1357L4.46691 32.1357ZM25.1365 69L25.1365 35.49L39.6499 35.49L39.6499 41.1841Q43.446 34.9337 50.8254 34.9337Q56.3558 34.9337 59.7265 38.337Q63.1135 41.7404 63.1135 47.7781L63.1135 69L47.4711 69L47.4711 51.1324Q47.4711 48.678 46.8002 47.6799Q46.1294 46.6654 44.6731 46.6654Q41.9406 46.6654 40.7625 50.396L40.7625 69L25.1365 69ZM67.2885 44.4238L67.2885 35.49L71.7554 35.49L71.7554 32.692Q71.7554 26.6053 75.5515 23.5128Q79.3639 20.4039 85.1725 20.4039Q88.2977 20.4039 91.1121 21.1893Q93.9427 21.9747 95.0554 22.5965Q96.168 23.2019 96.888 23.7582L92.9937 31.5794Q90.9812 30.4668 89.0831 30.4668Q85.7289 30.4668 85.7289 33.821L85.7289 35.49L93.55 35.49L93.55 44.4238L86.2852 44.4238L86.2852 69L71.1991 69L71.1991 44.4238L67.2885 44.4238Z" fill="#000000" fill-opacity="1.000000" transform="matrix(1 0 0 1 8.17474 19.4035)"/><path d="M2.957 0L14.1936 0C14.5202 0 14.785 0.264779 14.785 0.5914L14.785 11.828C14.785 13.4611 13.4611 14.785 11.828 14.785L2.957 14.785C1.32389 14.785 0 13.4611 0 11.828L0 2.957C0 1.32389 1.32389 0 2.957 0L2.957 0Z" fill="#EB512E" fill-opacity="1.000000" transform="matrix(1 0 0 1 11.7763 39.5299)"/><path d="M2.957 0L14.1936 0C14.5202 0 14.785 0.264779 14.785 0.5914L14.785 11.828C14.785 13.4611 13.4611 14.785 11.828 14.785L2.957 14.785C1.32389 14.785 0 13.4611 0 11.828L0 2.957C0 1.32389 1.32389 0 2.957 0L2.957 0Z" fill="none" stroke="#F94737" stroke-opacity="1.000000" stroke-width="2" stroke-dasharray="0 0" transform="matrix(1 0 0 1 11.7763 39.5299)"/><path d="M0.831719 12.687C0.831719 16.8213 4.17077 20.1644 8.30908 20.1644C12.4474 20.1644 15.7864 16.8213 15.7864 12.687C15.7864 8.54874 12.4474 5.20564 8.30908 5.20564C4.17077 5.20564 0.831719 8.54874 0.831719 12.687ZM15.1738 12.687C15.1738 16.4724 12.0985 19.5477 8.30908 19.5477C4.51968 19.5477 1.44435 16.4724 1.44435 12.687C1.44435 8.89766 4.51968 5.82233 8.30908 5.82233C12.0985 5.82233 15.1738 8.89766 15.1738 12.687ZM3.39179 12.687C3.39179 15.4094 5.58266 17.6043 8.30908 17.6043C11.0355 17.6043 13.2264 15.4094 13.2264 12.687C13.2264 9.96064 11.0355 7.76571 8.30908 7.76571C5.58266 7.76571 3.39179 9.96064 3.39179 12.687Z" fill="#D81918" fill-opacity="1.000000" transform="matrix(0.989899 0.141778 -0.14178 0.989898 124.755 56.1394)"/><path d="M38.3023 19.1511C38.3023 29.728 29.728 38.3023 19.1511 38.3023C8.57426 38.3023 0 29.728 0 19.1511C0 8.57426 8.57426 0 19.1511 0L19.1575 9.57877C13.8673 9.57877 9.57877 13.8673 9.57877 19.1575C9.57877 24.4478 13.8673 28.7363 19.1575 28.7363C24.4478 28.7363 28.7363 24.4478 28.7363 19.1575L38.3023 19.1511L38.3023 19.1511Z" fill="#8A8A8A" fill-opacity="1.000000" transform="matrix(0.793376 0.608732 -0.608734 0.793374 127.418 43.0128)"/><path d="M38.3023 19.1511C38.3023 29.728 29.7281 38.3023 19.1512 38.3023C8.57427 38.3023 0 29.728 0 19.1511C0 8.57425 8.57427 0 19.1512 0L19.1576 9.57877C13.8674 9.57877 9.57878 13.8673 9.57878 19.1575C9.57878 24.4477 13.8674 28.7363 19.1576 28.7363C24.4478 28.7363 28.7363 24.4477 28.7363 19.1575L38.3023 19.1511L38.3023 19.1511Z" fill="#8A8A8A" fill-opacity="1.000000" transform="matrix(0.920719 -0.390226 0.390226 0.920719 106.074 59.5299)"/></svg>