<svg xmlns="http://www.w3.org/2000/svg" xmlns:xlink="http://www.w3.org/1999/xlink" width="269.347504" height="134.752655" viewBox="0 0 269.348 134.753"><path d="M1.96438 49L1.96438 25.4734L12.1539 25.4734L12.1539 28.8852Q14.7845 25.0828 19.2187 25.0828Q24.4686 25.0828 26.3066 29.4366Q28.9717 25.0828 33.7161 25.0828Q37.2887 25.0828 39.4254 27.2999Q41.5621 29.517 41.5621 33.71L41.5621 49L30.982 49L30.982 36.065Q30.982 34.3303 30.58 33.6296Q30.1894 32.9289 29.4082 32.9289Q28.5811 32.9289 28.0757 33.5147Q27.5702 34.1006 27.0533 35.3183L27.0533 49L16.4732 49L16.4732 36.065Q16.4732 34.3303 16.0711 33.6296Q15.6806 32.9289 14.8994 32.9289Q14.0723 32.9289 13.5668 33.5147Q13.0614 34.1006 12.5444 35.3183L12.5444 49L1.96438 49ZM55.6141 40.4762Q55.0857 40.9587 55.0857 41.9466Q55.0857 42.9231 55.6141 43.417Q56.1426 43.8995 56.8548 43.8995Q58.0265 43.8995 59.003 43.0379L59.003 40.8438Q58.0265 39.9822 56.8548 39.9822Q56.1426 39.9822 55.6141 40.4762ZM46.5734 47.3113Q44.4941 45.2321 44.4941 41.9466Q44.4941 38.6497 46.5734 36.5704Q48.6526 34.4912 52.5354 34.4912Q56.694 34.4912 59.003 36.7313L59.003 34.8818Q59.003 33.1586 57.9231 32.4579Q56.8548 31.7456 54.4998 31.7456Q51.559 31.7456 47.2397 33.3194L44.8962 27.4378Q45.4017 27.1161 46.3436 26.6681Q47.2856 26.2201 50.5021 25.4619Q53.7187 24.6923 57.2454 24.6923Q69.5945 24.6923 69.5945 34.4912L69.5945 49L59.7956 49L59.7956 46.2545Q59.7152 46.3693 59.5544 46.5876Q59.3935 46.8059 58.7617 47.3573Q58.1414 47.8972 57.3947 48.3107Q56.6595 48.7243 55.3384 49.0574Q54.0288 49.3906 52.5354 49.3906Q48.6526 49.3906 46.5734 47.3113ZM71.1585 49L79.0045 36.8461L71.9397 25.4734L83.3124 25.4734L86.0579 32.5268L88.8035 25.4734L100.176 25.4734L93.1113 36.8461L100.957 49L89.194 49L86.0579 41.9466L82.9218 49L71.1585 49Z" fill="#000000" fill-opacity="1.000000" transform="matrix(1 0 0 1 87.2695 31.2159)"/><path d="M2.35496 49L2.35496 25.4734L13.3371 25.4734L13.3371 49L2.35496 49ZM3.13611 23.1185L3.13611 16.0651L12.5445 16.0651L12.5445 23.1185L3.13611 23.1185ZM17.6467 49L17.6467 25.4734L27.8362 25.4734L27.8362 29.4711Q30.5013 25.0828 35.6822 25.0828Q39.565 25.0828 41.9315 27.4722Q44.3094 29.8617 44.3094 34.1006L44.3094 49L33.3273 49L33.3273 36.4555Q33.3273 34.7324 32.8563 34.0317Q32.3853 33.3194 31.3629 33.3194Q29.4445 33.3194 28.6173 35.9386L28.6173 49L17.6467 49ZM47.2385 31.7456L47.2385 25.4734L50.3746 25.4734L50.3746 23.509Q50.3746 19.2356 53.0398 17.0645Q55.7164 14.8818 59.7945 14.8818Q61.9886 14.8818 63.9645 15.4333Q65.9518 15.9847 66.733 16.4212Q67.5141 16.8462 68.0196 17.2368L65.2855 22.7279Q63.8726 21.9467 62.54 21.9467Q60.1851 21.9467 60.1851 24.3017L60.1851 25.4734L65.6761 25.4734L65.6761 31.7456L60.5756 31.7456L60.5756 49L49.9841 49L49.9841 31.7456L47.2385 31.7456Z" fill="#000000" fill-opacity="1.000000" transform="matrix(1 0 0 1 20.3712 31.2159)"/><path d="M2.07604 0L9.96499 0C10.1943 0 10.3802 0.185895 10.3802 0.415208L10.3802 8.30416C10.3802 9.45073 9.45072 10.3802 8.30416 10.3802L2.07604 10.3802C0.929475 10.3802 0 9.45073 0 8.30416L0 2.07604C0 0.929475 0.929475 0 2.07604 0L2.07604 0Z" fill="#EB512E" fill-opacity="1.000000" transform="matrix(1 0 0 1 23.1621 45.3464)"/><path d="M2.07604 0L9.96499 0C10.1943 0 10.3802 0.185895 10.3802 0.415208L10.3802 8.30416C10.3802 9.45073 9.45072 10.3802 8.30416 10.3802L2.07604 10.3802C0.929475 10.3802 0 9.45073 0 8.30416L0 2.07604C0 0.929475 0.929475 0 2.07604 0L2.07604 0Z" fill="none" stroke="#F94737" stroke-opacity="1.000000" stroke-width="2" stroke-dasharray="0 0" transform="matrix(1 0 0 1 23.1621 45.3464)"/><path d="M2.07604 0L9.96499 0C10.1943 0 10.3802 0.185895 10.3802 0.415208L10.3802 8.30416C10.3802 9.45073 9.45072 10.3802 8.30416 10.3802L2.07604 10.3802C0.929475 10.3802 0 9.45073 0 8.30416L0 2.07604C0 0.929475 0.929475 0 2.07604 0L2.07604 0Z" fill="#EB512E" fill-opacity="1.000000" transform="matrix(1 0 0 1 23.1621 45.3464)"/><path d="M2.07604 0L9.96499 0C10.1943 0 10.3802 0.185895 10.3802 0.415208L10.3802 8.30416C10.3802 9.45073 9.45072 10.3802 8.30416 10.3802L2.07604 10.3802C0.929475 10.3802 0 9.45073 0 8.30416L0 2.07604C0 0.929475 0.929475 0 2.07604 0L2.07604 0Z" fill="none" stroke="#F94737" stroke-opacity="1.000000" stroke-width="2" stroke-dasharray="0 0" transform="matrix(1 0 0 1 23.1621 45.3464)"/><path d="M0.583923 8.56788C0.583923 11.4704 2.92816 13.8175 5.83353 13.8175C8.7389 13.8175 11.0831 11.4704 11.0831 8.56788C11.0831 5.66251 8.7389 3.31542 5.83353 3.31542C2.92816 3.31542 0.583923 5.66251 0.583923 8.56788ZM10.653 8.56788C10.653 11.2254 8.49394 13.3845 5.83353 13.3845C3.17312 13.3845 1.01403 11.2254 1.01403 8.56788C1.01403 5.90747 3.17312 3.74838 5.83353 3.74838C8.49394 3.74838 10.653 5.90747 10.653 8.56788ZM2.38127 8.56788C2.38127 10.4792 3.9194 12.0201 5.83353 12.0201C7.74766 12.0201 9.2858 10.4792 9.2858 8.56788C9.2858 6.65375 7.74766 5.11277 5.83353 5.11277C3.9194 5.11277 2.38127 6.65375 2.38127 8.56788Z" fill="#D81918" fill-opacity="1.000000" transform="matrix(0.989899 0.141775 -0.141718 0.989907 197.681 57.8769)"/><path d="M26.8912 13.4455C26.8912 20.8713 20.8714 26.8911 13.4456 26.8911C6.01979 26.8911 0 20.8713 0 13.4455C0 6.01978 6.01979 0 13.4456 0L13.4501 6.72502C9.73594 6.72502 6.72504 9.73592 6.72504 13.45C6.72504 17.1642 9.73594 20.1751 13.4501 20.1751C17.1642 20.1751 20.1751 17.1642 20.1751 13.45L26.8912 13.4455L26.8912 13.4455Z" fill="#8A8A8A" fill-opacity="1.000000" transform="matrix(0.793377 0.608731 -0.608734 0.793374 199.324 48.6446)"/><path d="M26.8912 13.4455C26.8912 20.8713 20.8714 26.8911 13.4456 26.8911C6.01979 26.8911 0 20.8713 0 13.4455C0 6.01978 6.01979 0 13.4456 0L13.4501 6.72502C9.73594 6.72502 6.72504 9.73592 6.72504 13.45C6.72504 17.1642 9.73594 20.1751 13.4501 20.1751C17.1642 20.1751 20.1751 17.1642 20.1751 13.45L26.8912 13.4455L26.8912 13.4455Z" fill="#8A8A8A" fill-opacity="1.000000" transform="matrix(0.793377 0.608731 -0.608734 0.793374 199.324 48.6446)"/><path d="M26.8912 13.4455C26.8912 20.8713 20.8714 26.8911 13.4456 26.8911C6.01979 26.8911 0 20.8713 0 13.4455C0 6.01977 6.01979 0 13.4456 0L13.4501 6.72502C9.73594 6.72502 6.72504 9.73591 6.72504 13.45C6.72504 17.1642 9.73594 20.1751 13.4501 20.1751C17.1642 20.1751 20.1751 17.1642 20.1751 13.45L26.8912 13.4455L26.8912 13.4455Z" fill="#8A8A8A" fill-opacity="1.000000" transform="matrix(0.920719 -0.390226 0.390221 0.920721 184.339 60.2412)"/><path d="M26.8912 13.4455C26.8912 20.8713 20.8714 26.8911 13.4456 26.8911C6.01979 26.8911 0 20.8713 0 13.4455C0 6.01977 6.01979 0 13.4456 0L13.4501 6.72502C9.73594 6.72502 6.72504 9.73591 6.72504 13.45C6.72504 17.1642 9.73594 20.1751 13.4501 20.1751C17.1642 20.1751 20.1751 17.1642 20.1751 13.45L26.8912 13.4455L26.8912 13.4455Z" fill="#8A8A8A" fill-opacity="1.000000" transform="matrix(0.920719 -0.390226 0.390221 0.920721 184.339 60.2412)"/></svg>