<svg xmlns="http://www.w3.org/2000/svg" xmlns:xlink="http://www.w3.org/1999/xlink" width="78.403900" height="74.789612" viewBox="0 0 78.4039 74.7896"><path d="M0.554696 14L0.554696 7.35662L3.43198 7.35662L3.43198 8.32004Q4.17482 7.24633 5.42694 7.24633Q6.90937 7.24633 7.42839 8.47575Q8.18096 7.24633 9.52066 7.24633Q10.5295 7.24633 11.1328 7.87239Q11.7362 8.49845 11.7362 9.68245L11.7362 14L8.74863 14L8.74863 10.3474Q8.74863 9.85762 8.63509 9.65975Q8.5248 9.46187 8.30422 9.46187Q8.07067 9.46187 7.92794 9.62731Q7.78521 9.79274 7.63924 10.1366L7.63924 14L4.65166 14L4.65166 10.3474Q4.65166 9.85762 4.53813 9.65975Q4.42784 9.46187 4.20726 9.46187Q3.9737 9.46187 3.83097 9.62731Q3.68824 9.79274 3.54227 10.1366L3.54227 14L0.554696 14ZM15.7006 11.5931Q15.5514 11.7293 15.5514 12.0083Q15.5514 12.284 15.7006 12.4235Q15.8499 12.5597 16.051 12.5597Q16.3818 12.5597 16.6576 12.3164L16.6576 11.6969Q16.3818 11.4536 16.051 11.4536Q15.8499 11.4536 15.7006 11.5931ZM13.1477 13.5232Q12.5606 12.936 12.5606 12.0083Q12.5606 11.0773 13.1477 10.4902Q13.7349 9.90303 14.8313 9.90303Q16.0056 9.90303 16.6576 10.5356L16.6576 10.0133Q16.6576 9.52675 16.3527 9.32887Q16.051 9.12776 15.386 9.12776Q14.5556 9.12776 13.3359 9.57216L12.6741 7.91132Q12.8169 7.82049 13.0829 7.69398Q13.3489 7.56747 14.2571 7.35338Q15.1654 7.13604 16.1613 7.13604Q19.6484 7.13604 19.6484 9.90303L19.6484 14L16.8814 14L16.8814 13.2247Q16.8587 13.2572 16.8133 13.3188Q16.7679 13.3804 16.5895 13.5361Q16.4143 13.6886 16.2034 13.8054Q15.9958 13.9221 15.6228 14.0162Q15.253 14.1103 14.8313 14.1103Q13.7349 14.1103 13.1477 13.5232ZM20.0878 14L22.3033 10.568L20.3083 7.35662L23.5197 7.35662L24.295 9.34834L25.0703 7.35662L28.2817 7.35662L26.2867 10.568L28.5023 14L25.1806 14L24.295 12.0083L23.4094 14L20.0878 14Z" fill="#EBEBEB" fill-opacity="1.000000" transform="matrix(1 0 0 1 16.6864 35.8846)"/><path d="M0.664987 14L0.664987 7.35662L3.7661 7.35662L3.7661 14L0.664987 14ZM0.885568 6.69163L0.885568 4.69992L3.54227 4.69992L3.54227 6.69163L0.885568 6.69163ZM4.98174 14L4.98174 7.35662L7.85903 7.35662L7.85903 8.48548Q8.6116 7.24633 10.0746 7.24633Q11.171 7.24633 11.8392 7.92105Q12.5107 8.59577 12.5107 9.79274L12.5107 14L9.40958 14L9.40958 10.4577Q9.40958 9.97115 9.27658 9.77328Q9.14359 9.57216 8.85489 9.57216Q8.31317 9.57216 8.07961 10.3118L8.07961 14L4.98174 14ZM13.3353 9.12776L13.3353 7.35662L14.2209 7.35662L14.2209 6.80192Q14.2209 5.59522 14.9735 4.98213Q15.7293 4.3658 16.8808 4.3658Q17.5004 4.3658 18.0584 4.52151Q18.6195 4.67721 18.8401 4.80048Q19.0607 4.9205 19.2034 5.03079L18.4314 6.58134Q18.0324 6.36076 17.6561 6.36076Q16.9911 6.36076 16.9911 7.02575L16.9911 7.35662L18.5417 7.35662L18.5417 9.12776L17.1014 9.12776L17.1014 14L14.1106 14L14.1106 9.12776L13.3353 9.12776Z" fill="#EBEBEB" fill-opacity="1.000000" transform="matrix(1 0 0 1 16.6216 27.425)"/><path d="M0.586227 0L2.81389 0C2.87864 0 2.93113 0.0524925 2.93113 0.117245L2.93113 2.34491C2.93113 2.66867 2.66867 2.93113 2.34491 2.93113L0.586227 2.93113C0.262463 2.93113 0 2.66867 0 2.34491L0 0.586227C0 0.262463 0.262463 0 0.586227 0L0.586227 0Z" fill="#EB512E" fill-opacity="1.000000" transform="matrix(1 0 0 1 17.3356 31.415)"/><path d="M0.586227 0L2.81389 0C2.87864 0 2.93113 0.0524925 2.93113 0.117245L2.93113 2.34491C2.93113 2.66867 2.66867 2.93113 2.34491 2.93113L0.586227 2.93113C0.262463 2.93113 0 2.66867 0 2.34491L0 0.586227C0 0.262463 0.262463 0 0.586227 0L0.586227 0Z" fill="none" stroke="#F94737" stroke-opacity="1.000000" stroke-width="2" stroke-dasharray="0 0" transform="matrix(1 0 0 1 17.3356 31.415)"/><path d="M0.586227 0L2.81389 0C2.87864 0 2.93113 0.0524925 2.93113 0.117245L2.93113 2.34491C2.93113 2.66867 2.66867 2.93113 2.34491 2.93113L0.586227 2.93113C0.262463 2.93113 0 2.66867 0 2.34491L0 0.586227C0 0.262463 0.262463 0 0.586227 0L0.586227 0Z" fill="#EB512E" fill-opacity="1.000000" transform="matrix(1 0 0 1 17.3356 31.415)"/><path d="M0.586227 0L2.81389 0C2.87864 0 2.93113 0.0524925 2.93113 0.117245L2.93113 2.34491C2.93113 2.66867 2.66867 2.93113 2.34491 2.93113L0.586227 2.93113C0.262463 2.93113 0 2.66867 0 2.34491L0 0.586227C0 0.262463 0.262463 0 0.586227 0L0.586227 0Z" fill="none" stroke="#F94737" stroke-opacity="1.000000" stroke-width="2" stroke-dasharray="0 0" transform="matrix(1 0 0 1 17.3356 31.415)"/><path d="M0.164888 2.74846C0.164888 3.56807 0.826854 4.23084 1.64727 4.23084C2.46769 4.23084 3.12966 3.56807 3.12966 2.74846C3.12966 1.92804 2.46769 1.26527 1.64727 1.26527C0.826854 1.26527 0.164888 1.92804 0.164888 2.74846ZM3.0082 2.74846C3.0082 3.4989 2.39852 4.10858 1.64727 4.10858C0.896026 4.10858 0.286342 3.4989 0.286342 2.74846C0.286342 1.99721 0.896026 1.38753 1.64727 1.38753C2.39852 1.38753 3.0082 1.99721 3.0082 2.74846ZM0.672422 2.74846C0.672422 3.28817 1.10676 3.72331 1.64727 3.72331C2.18778 3.72331 2.62212 3.28817 2.62212 2.74846C2.62212 2.20795 2.18778 1.7728 1.64727 1.7728C1.10676 1.7728 0.672422 2.20795 0.672422 2.74846Z" fill="#D81918" fill-opacity="1.000000" transform="matrix(0.989899 0.141776 -0.141775 0.989899 39.7394 34.6696)"/><path d="M7.59345 3.79672C7.59345 5.8936 5.8936 7.59345 3.79673 7.59345C1.69985 7.59345 0 5.8936 0 3.79672C0 1.69985 1.69985 0 3.79673 0L3.798 1.899C2.74921 1.899 1.899 2.74921 1.899 3.79799C1.899 4.84678 2.74921 5.69699 3.798 5.69699C4.84678 5.69699 5.69699 4.84678 5.69699 3.79799L7.59345 3.79672L7.59345 3.79672Z" fill="#8A8A8A" fill-opacity="1.000000" transform="matrix(0.793376 0.608732 -0.608734 0.793374 40.2615 32.1055)"/><path d="M7.59345 3.79672C7.59345 5.8936 5.8936 7.59345 3.79673 7.59345C1.69985 7.59345 0 5.8936 0 3.79672C0 1.69985 1.69985 0 3.79673 0L3.798 1.899C2.74921 1.899 1.899 2.74921 1.899 3.79799C1.899 4.84678 2.74921 5.69699 3.798 5.69699C4.84678 5.69699 5.69699 4.84678 5.69699 3.79799L7.59345 3.79672L7.59345 3.79672Z" fill="#8A8A8A" fill-opacity="1.000000" transform="matrix(0.793376 0.608732 -0.608734 0.793374 40.2615 32.1055)"/><path d="M7.59346 3.79672C7.59346 5.89359 5.89361 7.59344 3.79673 7.59344C1.69985 7.59344 0 5.89359 0 3.79672C0 1.69985 1.69985 0 3.79673 0L3.798 1.89899C2.74921 1.89899 1.899 2.7492 1.899 3.79799C1.899 4.84678 2.74921 5.69698 3.798 5.69698C4.84679 5.69698 5.697 4.84678 5.697 3.79799L7.59346 3.79672L7.59346 3.79672Z" fill="#8A8A8A" fill-opacity="1.000000" transform="matrix(0.920719 -0.390226 0.390224 0.92072 36.0302 35.38)"/><path d="M7.59346 3.79672C7.59346 5.89359 5.89361 7.59344 3.79673 7.59344C1.69985 7.59344 0 5.89359 0 3.79672C0 1.69985 1.69985 0 3.79673 0L3.798 1.89899C2.74921 1.89899 1.899 2.7492 1.899 3.79799C1.899 4.84678 2.74921 5.69698 3.798 5.69698C4.84679 5.69698 5.697 4.84678 5.697 3.79799L7.59346 3.79672L7.59346 3.79672Z" fill="#8A8A8A" fill-opacity="1.000000" transform="matrix(0.920719 -0.390226 0.390224 0.92072 36.0302 35.38)"/></svg>