<svg xmlns="http://www.w3.org/2000/svg" xmlns:xlink="http://www.w3.org/1999/xlink" width="355.501282" height="141.069901" viewBox="0 0 355.501 141.07"><path d="M2.93786 73L2.93786 37.8144L18.1769 37.8144L18.1769 42.917Q22.1112 37.2303 28.7429 37.2303Q36.5944 37.2303 39.3432 43.7417Q43.3291 37.2303 50.4246 37.2303Q55.7678 37.2303 58.9633 40.5461Q62.1589 43.8619 62.1589 50.1328L62.1589 73L46.3357 73L46.3357 53.6548Q46.3357 51.0606 45.7344 50.0126Q45.1502 48.9645 43.982 48.9645Q42.745 48.9645 41.989 49.8407Q41.2331 50.7169 40.46 52.5381L40.46 73L24.6368 73L24.6368 53.6548Q24.6368 51.0606 24.0355 50.0126Q23.4513 48.9645 22.2831 48.9645Q21.0461 48.9645 20.2901 49.8407Q19.5342 50.7169 18.7611 52.5381L18.7611 73L2.93786 73ZM83.1724 60.2521Q82.3821 60.9737 82.3821 62.4512Q82.3821 63.9115 83.1724 64.6503Q83.9627 65.3719 85.0279 65.3719Q86.7803 65.3719 88.2406 64.0833L88.2406 60.8019Q86.7803 59.5133 85.0279 59.5133Q83.9627 59.5133 83.1724 60.2521ZM69.6514 70.4745Q66.5417 67.3648 66.5417 62.4512Q66.5417 57.5204 69.6514 54.4107Q72.761 51.3011 78.568 51.3011Q84.7874 51.3011 88.2406 54.6513L88.2406 51.8852Q88.2406 49.3082 86.6257 48.2601Q85.0279 47.195 81.5059 47.195Q77.1077 47.195 70.6478 49.5487L67.143 40.7523Q67.899 40.2712 69.3078 39.6012Q70.7166 38.9312 75.5271 37.7972Q80.3376 36.6462 85.612 36.6462Q104.081 36.6462 104.081 51.3011L104.081 73L89.4261 73L89.4261 68.8939Q89.3058 69.0657 89.0653 69.3921Q88.8248 69.7185 87.8798 70.5432Q86.9521 71.3507 85.8354 71.9692Q84.7358 72.5877 82.7601 73.0859Q80.8015 73.5841 78.568 73.5841Q72.761 73.5841 69.6514 70.4745ZM106.419 73L118.153 54.8231L107.587 37.8144L124.596 37.8144L128.702 48.3632L132.808 37.8144L149.816 37.8144L139.25 54.8231L150.985 73L133.392 73L128.702 62.4512L124.011 73L106.419 73Z" fill="#EBEBEB" fill-opacity="1.000000" transform="matrix(1 0 0 1 113.422 16.4547)"/><path d="M3.52199 73L3.52199 37.8144L19.9465 37.8144L19.9465 73L3.52199 73ZM4.69027 34.2924L4.69027 23.7436L18.7611 23.7436L18.7611 34.2924L4.69027 34.2924ZM26.391 73L26.391 37.8144L41.6301 37.8144L41.6301 43.7932Q45.6159 37.2303 53.3643 37.2303Q59.1713 37.2303 62.7105 40.8038Q66.2668 44.3774 66.2668 50.7169L66.2668 73L49.8423 73L49.8423 54.2389Q49.8423 51.6619 49.1379 50.6139Q48.4335 49.5487 46.9045 49.5487Q44.0353 49.5487 42.7983 53.4658L42.7983 73L26.391 73ZM70.646 47.195L70.646 37.8144L75.3363 37.8144L75.3363 34.8766Q75.3363 28.4854 79.3221 25.2383Q83.3252 21.974 89.4242 21.974Q92.7057 21.974 95.6608 22.7987Q98.633 23.6234 99.8012 24.2762Q100.97 24.9119 101.725 25.496L97.6365 33.7083Q95.5233 32.54 93.5304 32.54Q90.0084 32.54 90.0084 36.062L90.0084 37.8144L98.2206 37.8144L98.2206 47.195L90.5925 47.195L90.5925 73L74.7521 73L74.7521 47.195L70.646 47.195Z" fill="#EBEBEB" fill-opacity="1.000000" transform="matrix(1 0 0 1 13.3715 16.4547)"/><path d="M3.10486 0L14.9033 0C15.2463 0 15.5243 0.278018 15.5243 0.620971L15.5243 12.4194C15.5243 14.1342 14.1342 15.5243 12.4194 15.5243L3.10486 15.5243C1.39009 15.5243 0 14.1342 0 12.4194L0 3.10486C0 1.39009 1.39009 0 3.10486 0L3.10486 0Z" fill="#EB512E" fill-opacity="1.000000" transform="matrix(1 0 0 1 17.5454 37.5877)"/><path d="M3.10486 0L14.9033 0C15.2463 0 15.5243 0.278018 15.5243 0.620971L15.5243 12.4194C15.5243 14.1342 14.1342 15.5243 12.4194 15.5243L3.10486 15.5243C1.39009 15.5243 0 14.1342 0 12.4194L0 3.10486C0 1.39009 1.39009 0 3.10486 0L3.10486 0Z" fill="none" stroke="#F94737" stroke-opacity="1.000000" stroke-width="2" stroke-dasharray="0 0" transform="matrix(1 0 0 1 17.5454 37.5877)"/><path d="M3.10486 0L14.9033 0C15.2463 0 15.5243 0.278018 15.5243 0.620971L15.5243 12.4194C15.5243 14.1342 14.1342 15.5243 12.4194 15.5243L3.10486 15.5243C1.39009 15.5243 0 14.1342 0 12.4194L0 3.10486C0 1.39009 1.39009 0 3.10486 0L3.10486 0Z" fill="#EB512E" fill-opacity="1.000000" transform="matrix(1 0 0 1 17.5454 37.5877)"/><path d="M3.10486 0L14.9033 0C15.2463 0 15.5243 0.278018 15.5243 0.620971L15.5243 12.4194C15.5243 14.1342 14.1342 15.5243 12.4194 15.5243L3.10486 15.5243C1.39009 15.5243 0 14.1342 0 12.4194L0 3.10486C0 1.39009 1.39009 0 3.10486 0L3.10486 0Z" fill="none" stroke="#F94737" stroke-opacity="1.000000" stroke-width="2" stroke-dasharray="0 0" transform="matrix(1 0 0 1 17.5454 37.5877)"/><path d="M0.873298 13.3715C0.873298 17.7124 4.37927 21.2226 8.72446 21.2226C13.0696 21.2226 16.5756 17.7124 16.5756 13.3715C16.5756 9.02627 13.0696 5.51604 8.72446 5.51604C4.37927 5.51604 0.873298 9.02627 0.873298 13.3715ZM15.9324 13.3715C15.9324 17.346 12.7033 20.5751 8.72446 20.5751C4.74563 20.5751 1.51656 17.346 1.51656 13.3715C1.51656 9.39263 4.74563 6.16355 8.72446 6.16355C12.7033 6.16355 15.9324 9.39263 15.9324 13.3715ZM3.56135 13.3715C3.56135 16.2299 5.86175 18.5346 8.72446 18.5346C11.5872 18.5346 13.8876 16.2299 13.8876 13.3715C13.8876 10.5087 11.5872 8.20409 8.72446 8.20409C5.86175 8.20409 3.56135 10.5087 3.56135 13.3715Z" fill="#D81918" fill-opacity="1.000000" transform="matrix(0.989899 0.141776 -0.141717 0.989907 278.55 56.3274)"/><path d="M40.2175 20.1087C40.2175 31.2145 31.2145 40.2174 20.1088 40.2174C9.003 40.2174 0 31.2145 0 20.1087C0 9.00298 9.003 0 20.1088 0L20.1155 10.0577C14.5607 10.0577 10.0577 14.5607 10.0577 20.1154C10.0577 25.6702 14.5607 30.1732 20.1155 30.1732C25.6702 30.1732 30.1732 25.6702 30.1732 20.1154L40.2175 20.1087L40.2175 20.1087Z" fill="#8A8A8A" fill-opacity="1.000000" transform="matrix(0.793377 0.608731 -0.608734 0.793374 281.008 42.5203)"/><path d="M40.2175 20.1087C40.2175 31.2145 31.2145 40.2174 20.1088 40.2174C9.003 40.2174 0 31.2145 0 20.1087C0 9.00298 9.003 0 20.1088 0L20.1155 10.0577C14.5607 10.0577 10.0577 14.5607 10.0577 20.1154C10.0577 25.6702 14.5607 30.1732 20.1155 30.1732C25.6702 30.1732 30.1732 25.6702 30.1732 20.1154L40.2175 20.1087L40.2175 20.1087Z" fill="#8A8A8A" fill-opacity="1.000000" transform="matrix(0.793377 0.608731 -0.608734 0.793374 281.008 42.5203)"/><path d="M40.2175 20.1087C40.2175 31.2144 31.2145 40.2174 20.1088 40.2174C9.003 40.2174 0 31.2144 0 20.1087C0 9.00297 9.003 0 20.1088 0L20.1155 10.0577C14.5607 10.0577 10.0577 14.5607 10.0577 20.1154C10.0577 25.6702 14.5607 30.1731 20.1155 30.1731C25.6702 30.1731 30.1732 25.6702 30.1732 20.1154L40.2175 20.1087L40.2175 20.1087Z" fill="#8A8A8A" fill-opacity="1.000000" transform="matrix(0.920719 -0.390226 0.390222 0.920721 258.596 59.8638)"/><path d="M40.2175 20.1087C40.2175 31.2144 31.2145 40.2174 20.1088 40.2174C9.003 40.2174 0 31.2144 0 20.1087C0 9.00297 9.003 0 20.1088 0L20.1155 10.0577C14.5607 10.0577 10.0577 14.5607 10.0577 20.1154C10.0577 25.6702 14.5607 30.1731 20.1155 30.1731C25.6702 30.1731 30.1732 25.6702 30.1732 20.1154L40.2175 20.1087L40.2175 20.1087Z" fill="#8A8A8A" fill-opacity="1.000000" transform="matrix(0.920719 -0.390226 0.390222 0.920721 258.596 59.8638)"/></svg>