<svg xmlns="http://www.w3.org/2000/svg" xmlns:xlink="http://www.w3.org/1999/xlink" width="121.809509" height="108.069153" viewBox="0 0 121.81 108.069"><path d="M0.4911 12L0.4911 6.11829L3.0385 6.11829L3.0385 6.97125Q3.69617 6.02065 4.80474 6.02065Q6.11721 6.02065 6.57672 7.10911Q7.243 6.02065 8.42911 6.02065Q9.32228 6.02065 9.85646 6.57493Q10.3906 7.12921 10.3906 8.17746L10.3906 12L7.74559 12L7.74559 8.76621Q7.74559 8.33255 7.64507 8.15736Q7.54743 7.98217 7.35214 7.98217Q7.14536 7.98217 7.01899 8.12864Q6.89263 8.27511 6.76339 8.57953L6.76339 12L4.11835 12L4.11835 8.76621Q4.11835 8.33255 4.01783 8.15736Q3.92018 7.98217 3.72489 7.98217Q3.51811 7.98217 3.39175 8.12864Q3.26538 8.27511 3.13615 8.57953L3.13615 12L0.4911 12ZM13.8927 9.86903Q13.7606 9.98965 13.7606 10.2366Q13.7606 10.4808 13.8927 10.6042Q14.0248 10.7249 14.2029 10.7249Q14.4958 10.7249 14.7399 10.5095L14.7399 9.96093Q14.4958 9.74554 14.2029 9.74554Q14.0248 9.74554 13.8927 9.86903ZM11.6325 11.5778Q11.1127 11.058 11.1127 10.2366Q11.1127 9.41239 11.6325 8.89257Q12.1523 8.37276 13.123 8.37276Q14.1627 8.37276 14.7399 8.93278L14.7399 8.4704Q14.7399 8.03961 14.47 7.86442Q14.2029 7.68636 13.6141 7.68636Q12.8789 7.68636 11.7991 8.07982L11.2132 6.60939Q11.3396 6.52898 11.575 6.41697Q11.8105 6.30497 12.6147 6.11542Q13.4188 5.923 14.3005 5.923Q17.3878 5.923 17.3878 8.37276L17.3878 12L14.9381 12L14.9381 11.3136Q14.918 11.3423 14.8778 11.3969Q14.8376 11.4515 14.6796 11.5893Q14.5245 11.7243 14.3378 11.8277Q14.154 11.9311 13.8238 12.0144Q13.4964 12.0976 13.123 12.0976Q12.1523 12.0976 11.6325 11.5778ZM17.7718 12L19.7333 8.9615L17.9671 6.11829L20.8103 6.11829L21.4967 7.88165L22.1831 6.11829L25.0263 6.11829L23.26 8.9615L25.2216 12L22.2807 12L21.4967 10.2366L20.7126 12L17.7718 12Z" fill="#000000" fill-opacity="1.000000" transform="matrix(1 0 0 1 39.0994 44.9944)"/><path d="M0.588745 12L0.588745 6.11829L3.33431 6.11829L3.33431 12L0.588745 12ZM0.784037 5.52954L0.784037 3.76618L3.13615 3.76618L3.13615 5.52954L0.784037 5.52954ZM4.40774 12L4.40774 6.11829L6.95514 6.11829L6.95514 7.11772Q7.62143 6.02064 8.91667 6.02064Q9.88738 6.02064 10.479 6.618Q11.0735 7.21537 11.0735 8.27511L11.0735 12L8.32792 12L8.32792 8.86385Q8.32792 8.43306 8.21018 8.25788Q8.09243 8.07982 7.83682 8.07982Q7.35721 8.07982 7.15043 8.73462L7.15043 12L4.40774 12ZM11.7981 7.68636L11.7981 6.11829L12.5821 6.11829L12.5821 5.62719Q12.5821 4.55883 13.2484 4.01604Q13.9176 3.47037 14.9371 3.47037Q15.4856 3.47037 15.9796 3.60822Q16.4765 3.74608 16.6717 3.85521Q16.867 3.96147 16.9934 4.05912L16.3099 5.4319Q15.9566 5.23661 15.6235 5.23661Q15.0347 5.23661 15.0347 5.82535L15.0347 6.11829L16.4075 6.11829L16.4075 7.68636L15.1324 7.68636L15.1324 12L12.4845 12L12.4845 7.68636L11.7981 7.68636Z" fill="#000000" fill-opacity="1.000000" transform="matrix(1 0 0 1 22.3747 44.9944)"/><path d="M0.519016 0L2.49128 0C2.5486 0 2.59508 0.0464743 2.59508 0.103803L2.59508 2.07606C2.59508 2.36271 2.36271 2.59508 2.07606 2.59508L0.519016 2.59508C0.232371 2.59508 0 2.36271 0 2.07606L0 0.519016C0 0.232371 0.232371 0 0.519016 0L0.519016 0Z" fill="#EB512E" fill-opacity="1.000000" transform="matrix(1 0 0 1 23.0724 48.527)"/><path d="M0.519016 0L2.49128 0C2.5486 0 2.59508 0.0464743 2.59508 0.103803L2.59508 2.07606C2.59508 2.36271 2.36271 2.59508 2.07606 2.59508L0.519016 2.59508C0.232371 2.59508 0 2.36271 0 2.07606L0 0.519016C0 0.232371 0.232371 0 0.519016 0L0.519016 0Z" fill="none" stroke="#F94737" stroke-opacity="1.000000" stroke-width="2" stroke-dasharray="0 0" transform="matrix(1 0 0 1 23.0724 48.527)"/><path d="M0.519016 0L2.49128 0C2.5486 0 2.59508 0.0464743 2.59508 0.103803L2.59508 2.07606C2.59508 2.36271 2.36271 2.59508 2.07606 2.59508L0.519016 2.59508C0.232371 2.59508 0 2.36271 0 2.07606L0 0.519016C0 0.232371 0.232371 0 0.519016 0L0.519016 0Z" fill="#EB512E" fill-opacity="1.000000" transform="matrix(1 0 0 1 23.0724 48.527)"/><path d="M0.519016 0L2.49128 0C2.5486 0 2.59508 0.0464743 2.59508 0.103803L2.59508 2.07606C2.59508 2.36271 2.36271 2.59508 2.07606 2.59508L0.519016 2.59508C0.232371 2.59508 0 2.36271 0 2.07606L0 0.519016C0 0.232371 0.232371 0 0.519016 0L0.519016 0Z" fill="none" stroke="#F94737" stroke-opacity="1.000000" stroke-width="2" stroke-dasharray="0 0" transform="matrix(1 0 0 1 23.0724 48.527)"/><path d="M0.145982 1.89196C0.145982 2.6176 0.732046 3.20437 1.4584 3.20437C2.18474 3.20437 2.77081 2.6176 2.77081 1.89196C2.77081 1.16561 2.18474 0.578836 1.4584 0.578836C0.732046 0.578836 0.145982 1.16561 0.145982 1.89196ZM2.66328 1.89196C2.66328 2.55636 2.1235 3.09613 1.4584 3.09613C0.793287 3.09613 0.25351 2.55636 0.25351 1.89196C0.25351 1.22685 0.793287 0.687077 1.4584 0.687077C2.1235 0.687077 2.66328 1.22685 2.66328 1.89196ZM0.595321 1.89196C0.595321 2.36979 0.979859 2.75504 1.4584 2.75504C1.93693 2.75504 2.32147 2.36979 2.32147 1.89196C2.32147 1.41343 1.93693 1.02818 1.4584 1.02818C0.979859 1.02818 0.595321 1.41343 0.595321 1.89196Z" fill="#D81918" fill-opacity="1.000000" transform="matrix(0.989899 0.141775 -0.141719 0.989907 66.7025 51.6602)"/><path d="M6.72286 3.36142C6.72286 5.21789 5.2179 6.72285 3.36143 6.72285C1.50496 6.72285 0 5.21789 0 3.36142C0 1.50496 1.50496 0 3.36143 0L3.36256 1.68127C2.43401 1.68127 1.68128 2.43401 1.68128 3.36255C1.68128 4.29109 2.43401 5.04382 3.36256 5.04382C4.2911 5.04382 5.04383 4.29109 5.04383 3.36255L6.72286 3.36142L6.72286 3.36142Z" fill="#8A8A8A" fill-opacity="1.000000" transform="matrix(0.793377 0.608731 -0.608734 0.793375 67.1135 49.3516)"/><path d="M6.72286 3.36142C6.72286 5.21789 5.2179 6.72285 3.36143 6.72285C1.50496 6.72285 0 5.21789 0 3.36142C0 1.50496 1.50496 0 3.36143 0L3.36256 1.68127C2.43401 1.68127 1.68128 2.43401 1.68128 3.36255C1.68128 4.29109 2.43401 5.04382 3.36256 5.04382C4.2911 5.04382 5.04383 4.29109 5.04383 3.36255L6.72286 3.36142L6.72286 3.36142Z" fill="#8A8A8A" fill-opacity="1.000000" transform="matrix(0.793377 0.608731 -0.608734 0.793375 67.1135 49.3516)"/><path d="M6.72286 3.36142C6.72286 5.21788 5.2179 6.72284 3.36143 6.72284C1.50496 6.72284 0 5.21788 0 3.36142C0 1.50496 1.50496 0 3.36143 0L3.36255 1.68127C2.43401 1.68127 1.68128 2.43401 1.68128 3.36255C1.68128 4.29109 2.43401 5.04382 3.36255 5.04382C4.2911 5.04382 5.04383 4.29109 5.04383 3.36255L6.72286 3.36142L6.72286 3.36142Z" fill="#8A8A8A" fill-opacity="1.000000" transform="matrix(0.920719 -0.390226 0.39022 0.920722 63.367 52.2508)"/><path d="M6.72286 3.36142C6.72286 5.21788 5.2179 6.72284 3.36143 6.72284C1.50496 6.72284 0 5.21788 0 3.36142C0 1.50496 1.50496 0 3.36143 0L3.36255 1.68127C2.43401 1.68127 1.68128 2.43401 1.68128 3.36255C1.68128 4.29109 2.43401 5.04382 3.36255 5.04382C4.2911 5.04382 5.04383 4.29109 5.04383 3.36255L6.72286 3.36142L6.72286 3.36142Z" fill="#8A8A8A" fill-opacity="1.000000" transform="matrix(0.920719 -0.390226 0.39022 0.920722 63.367 52.2508)"/></svg>