<svg xmlns="http://www.w3.org/2000/svg" xmlns:xlink="http://www.w3.org/1999/xlink" width="104.574738" height="104.575027" viewBox="0 0 104.575 104.575"><path d="M0.293454 7L0.293454 3.48541L1.81564 3.48541L1.81564 3.9951Q2.20863 3.42706 2.87105 3.42706Q3.65531 3.42706 3.92989 4.07747Q4.32802 3.42706 5.03677 3.42706Q5.57048 3.42706 5.88968 3.75827Q6.20888 4.08948 6.20888 4.71586L6.20888 7L4.62834 7L4.62834 5.06766Q4.62834 4.80853 4.56828 4.70385Q4.50993 4.59917 4.39323 4.59917Q4.26967 4.59917 4.19417 4.68669Q4.11866 4.77421 4.04143 4.95612L4.04143 7L2.4609 7L2.4609 5.06766Q2.4609 4.80853 2.40083 4.70385Q2.34249 4.59917 2.22579 4.59917Q2.10223 4.59917 2.02672 4.68669Q1.95121 4.77421 1.87399 4.95612L1.87399 7L0.293454 7ZM8.29635 5.72665Q8.21741 5.79873 8.21741 5.94631Q8.21741 6.09218 8.29635 6.16597Q8.37529 6.23805 8.48169 6.23805Q8.65673 6.23805 8.8026 6.10934L8.8026 5.78156Q8.65673 5.65286 8.48169 5.65286Q8.37529 5.65286 8.29635 5.72665ZM6.94577 6.74773Q6.63516 6.43712 6.63516 5.94631Q6.63516 5.45379 6.94577 5.14317Q7.25639 4.83256 7.83643 4.83256Q8.45766 4.83256 8.8026 5.1672L8.8026 4.8909Q8.8026 4.63349 8.64129 4.52881Q8.48169 4.42241 8.12989 4.42241Q7.69056 4.42241 7.04531 4.65751L6.69522 3.77887Q6.77073 3.73082 6.91145 3.66389Q7.05217 3.59696 7.53268 3.4837Q8.01319 3.36872 8.54004 3.36872Q10.3849 3.36872 10.3849 4.83256L10.3849 7L8.92101 7L8.92101 6.58985Q8.909 6.60701 8.88497 6.63962Q8.86095 6.67222 8.76656 6.7546Q8.67389 6.83525 8.56234 6.89703Q8.45251 6.95881 8.25516 7.00858Q8.05953 7.05835 7.83643 7.05835Q7.25639 7.05835 6.94577 6.74773ZM10.611 7L11.7831 5.18436L10.7277 3.48541L12.4266 3.48541L12.8368 4.5391L13.2469 3.48541L14.9458 3.48541L13.8904 5.18436L15.0625 7L13.3053 7L12.8368 5.94631L12.3683 7L10.611 7Z" fill="#EBEBEB" fill-opacity="1.000000" transform="matrix(1 0 0 1 35.1522 46.8856)"/><path d="M0.351802 7L0.351802 3.48541L1.9924 3.48541L1.9924 7L0.351802 7ZM0.468497 3.13361L0.468497 2.07992L1.87399 2.07992L1.87399 3.13361L0.468497 3.13361ZM2.63196 7L2.63196 3.48541L4.15414 3.48541L4.15414 4.08262Q4.55228 3.42706 5.32624 3.42706Q5.90629 3.42706 6.25981 3.78401Q6.61504 4.14097 6.61504 4.77421L6.61504 7L4.97444 7L4.97444 5.12601Q4.97444 4.86859 4.90408 4.76391Q4.83372 4.65751 4.68099 4.65751Q4.3944 4.65751 4.27084 5.04879L4.27084 7L2.63196 7ZM7.0444 4.42241L7.0444 3.48541L7.51289 3.48541L7.51289 3.19196Q7.51289 2.55357 7.91103 2.22922Q8.31088 1.90316 8.9201 1.90316Q9.24788 1.90316 9.54305 1.98553Q9.83994 2.06791 9.95663 2.13312Q10.0733 2.19662 10.1488 2.25496L9.7404 3.07526Q9.52932 2.95857 9.33025 2.95857Q8.97845 2.95857 8.97845 3.31037L8.97845 3.48541L9.79875 3.48541L9.79875 4.42241L9.0368 4.42241L9.0368 7L7.45455 7L7.45455 4.42241L7.0444 4.42241Z" fill="#EBEBEB" fill-opacity="1.000000" transform="matrix(1 0 0 1 25.1584 46.8856)"/><path d="M0.310135 0L1.48865 0C1.52291 0 1.55068 0.0277705 1.55068 0.0620271L1.55068 1.24054C1.55068 1.41182 1.41182 1.55068 1.24054 1.55068L0.310135 1.55068C0.138852 1.55068 0 1.41182 0 1.24054L0 0.310135C0 0.138852 0.138852 0 0.310135 0L0.310135 0Z" fill="#EB512E" fill-opacity="1.000000" transform="matrix(1 0 0 1 25.5754 48.9966)"/><path d="M0.310135 0L1.48865 0C1.52291 0 1.55068 0.0277705 1.55068 0.0620271L1.55068 1.24054C1.55068 1.41182 1.41182 1.55068 1.24054 1.55068L0.310135 1.55068C0.138852 1.55068 0 1.41182 0 1.24054L0 0.310135C0 0.138852 0.138852 0 0.310135 0L0.310135 0Z" fill="none" stroke="#F94737" stroke-opacity="1.000000" stroke-width="2" stroke-dasharray="0 0" transform="matrix(1 0 0 1 25.5754 48.9966)"/><path d="M0.310135 0L1.48865 0C1.52291 0 1.55068 0.0277705 1.55068 0.0620271L1.55068 1.24054C1.55068 1.41182 1.41182 1.55068 1.24054 1.55068L0.310135 1.55068C0.138852 1.55068 0 1.41182 0 1.24054L0 0.310135C0 0.138852 0.138852 0 0.310135 0L0.310135 0Z" fill="#EB512E" fill-opacity="1.000000" transform="matrix(1 0 0 1 25.5754 48.9966)"/><path d="M0.310135 0L1.48865 0C1.52291 0 1.55068 0.0277705 1.55068 0.0620271L1.55068 1.24054C1.55068 1.41182 1.41182 1.55068 1.24054 1.55068L0.310135 1.55068C0.138852 1.55068 0 1.41182 0 1.24054L0 0.310135C0 0.138852 0.138852 0 0.310135 0L0.310135 0Z" fill="none" stroke="#F94737" stroke-opacity="1.000000" stroke-width="2" stroke-dasharray="0 0" transform="matrix(1 0 0 1 25.5754 48.9966)"/><path d="M0.087231 1.3379C0.087231 1.7715 0.437432 2.12212 0.871459 2.12212C1.30549 2.12212 1.65569 1.7715 1.65569 1.3379C1.65569 0.903868 1.30549 0.553242 0.871459 0.553242C0.437432 0.553242 0.087231 0.903868 0.087231 1.3379ZM1.59143 1.3379C1.59143 1.7349 1.26889 2.05744 0.871459 2.05744C0.474026 2.05744 0.151484 1.7349 0.151484 1.3379C0.151484 0.940462 0.474026 0.617921 0.871459 0.617921C1.26889 0.617921 1.59143 0.940462 1.59143 1.3379ZM0.355732 1.3379C0.355732 1.62342 0.585512 1.85362 0.871459 1.85362C1.15741 1.85362 1.38719 1.62342 1.38719 1.3379C1.38719 1.05195 1.15741 0.821743 0.871459 0.821743C0.585512 0.821743 0.355732 1.05195 0.355732 1.3379Z" fill="#D81918" fill-opacity="1.000000" transform="matrix(0.989899 0.141775 -0.141718 0.989907 51.64 50.8557)"/><path d="M4.01722 2.0086C4.01722 3.11793 3.11793 4.01721 2.00861 4.01721C0.899284 4.01721 0 3.11793 0 2.0086C0 0.899283 0.899284 0 2.00861 0L2.00928 1.00464C1.45443 1.00464 1.00464 1.45443 1.00464 2.00928C1.00464 2.56412 1.45443 3.01391 2.00928 3.01391C2.56413 3.01391 3.01392 2.56412 3.01392 2.00928L4.01722 2.0086L4.01722 2.0086Z" fill="#8A8A8A" fill-opacity="1.000000" transform="matrix(0.793377 0.608731 -0.608734 0.793374 51.8919 49.4892)"/><path d="M4.01722 2.0086C4.01722 3.11793 3.11793 4.01721 2.00861 4.01721C0.899284 4.01721 0 3.11793 0 2.0086C0 0.899283 0.899284 0 2.00861 0L2.00928 1.00464C1.45443 1.00464 1.00464 1.45443 1.00464 2.00928C1.00464 2.56412 1.45443 3.01391 2.00928 3.01391C2.56413 3.01391 3.01392 2.56412 3.01392 2.00928L4.01722 2.0086L4.01722 2.0086Z" fill="#8A8A8A" fill-opacity="1.000000" transform="matrix(0.793377 0.608731 -0.608734 0.793374 51.8919 49.4892)"/><path d="M4.01721 2.0086C4.01721 3.11792 3.11793 4.0172 2.00861 4.0172C0.899284 4.0172 0 3.11792 0 2.0086C0 0.899282 0.899284 0 2.00861 0L2.00928 1.00464C1.45443 1.00464 1.00464 1.45443 1.00464 2.00927C1.00464 2.56412 1.45443 3.01391 2.00928 3.01391C2.56413 3.01391 3.01392 2.56412 3.01392 2.00927L4.01721 2.0086L4.01721 2.0086Z" fill="#8A8A8A" fill-opacity="1.000000" transform="matrix(0.920719 -0.390226 0.39022 0.920721 49.6533 51.2216)"/><path d="M4.01721 2.0086C4.01721 3.11792 3.11793 4.0172 2.00861 4.0172C0.899284 4.0172 0 3.11792 0 2.0086C0 0.899282 0.899284 0 2.00861 0L2.00928 1.00464C1.45443 1.00464 1.00464 1.45443 1.00464 2.00927C1.00464 2.56412 1.45443 3.01391 2.00928 3.01391C2.56413 3.01391 3.01392 2.56412 3.01392 2.00927L4.01721 2.0086L4.01721 2.0086Z" fill="#8A8A8A" fill-opacity="1.000000" transform="matrix(0.920719 -0.390226 0.39022 0.920721 49.6533 51.2216)"/></svg>