<svg xmlns="http://www.w3.org/2000/svg" xmlns:xlink="http://www.w3.org/1999/xlink" width="102.694763" height="102.695145" viewBox="0 0 102.695 102.695"><path d="M0.191746 5L0.191746 2.70353L1.18636 2.70353L1.18636 3.03656Q1.44314 2.66541 1.87597 2.66541Q2.38842 2.66541 2.56783 3.09039Q2.82798 2.66541 3.29108 2.66541Q3.63981 2.66541 3.84838 2.88182Q4.05695 3.09824 4.05695 3.50752L4.05695 5L3.02421 5L3.02421 3.73739Q3.02421 3.56807 2.98496 3.49967Q2.94684 3.43127 2.87059 3.43127Q2.78985 3.43127 2.74051 3.48846Q2.69118 3.54564 2.64072 3.6645L2.64072 5L1.60798 5L1.60798 3.73739Q1.60798 3.56807 1.56873 3.49967Q1.53061 3.43127 1.45436 3.43127Q1.37362 3.43127 1.32428 3.48846Q1.27494 3.54564 1.22448 3.6645L1.22448 5L0.191746 5ZM5.41559 4.16798Q5.36401 4.21507 5.36401 4.31151Q5.36401 4.40682 5.41559 4.45504Q5.46717 4.50213 5.53669 4.50213Q5.65107 4.50213 5.74638 4.41803L5.74638 4.20386Q5.65107 4.11976 5.53669 4.11976Q5.46717 4.11976 5.41559 4.16798ZM4.53311 4.83517Q4.33015 4.63221 4.33015 4.31151Q4.33015 3.98969 4.53311 3.78673Q4.73607 3.58377 5.11508 3.58377Q5.52099 3.58377 5.74638 3.80243L5.74638 3.62189Q5.74638 3.4537 5.64098 3.38529Q5.53669 3.31577 5.30682 3.31577Q5.01976 3.31577 4.59815 3.46939L4.3694 2.89528Q4.41873 2.86388 4.51068 2.82015Q4.60263 2.77642 4.9166 2.70241Q5.23057 2.62728 5.57482 2.62728Q6.78024 2.62728 6.78024 3.58377L6.78024 5L5.82375 5L5.82375 4.732Q5.8159 4.74322 5.8002 4.76452Q5.78451 4.78583 5.72283 4.83965Q5.66228 4.89235 5.5894 4.93272Q5.51763 4.97309 5.38868 5.00561Q5.26085 5.03813 5.11508 5.03813Q4.73607 5.03813 4.53311 4.83517ZM6.92455 5L7.69041 3.81364L7.0008 2.70353L8.1109 2.70353L8.3789 3.39202L8.6469 2.70353L9.75701 2.70353L9.06739 3.81364L9.83326 5L8.68502 5L8.3789 4.31151L8.07278 5L6.92455 5Z" fill="#000000" fill-opacity="1.000000" transform="matrix(1 0 0 1 40.1512 47.8179)"/><path d="M0.229871 5L0.229871 2.70353L1.30186 2.70353L1.30186 5L0.229871 5ZM0.306121 2.47366L0.306121 1.78517L1.22449 1.78517L1.22449 2.47366L0.306121 2.47366ZM1.71782 5L1.71782 2.70353L2.71244 2.70353L2.71244 3.09375Q2.97258 2.6654 3.4783 2.6654Q3.85731 2.6654 4.0883 2.89864Q4.32042 3.13188 4.32042 3.54564L4.32042 5L3.24843 5L3.24843 3.77551Q3.24843 3.60732 3.20246 3.53892Q3.15648 3.46939 3.05668 3.46939Q2.86942 3.46939 2.78869 3.72506L2.78869 5L1.71782 5ZM4.59721 3.31577L4.59721 2.70353L4.90333 2.70353L4.90333 2.51178Q4.90333 2.09465 5.16348 1.88272Q5.42475 1.66967 5.82282 1.66967Q6.03699 1.66967 6.22986 1.72349Q6.42384 1.77732 6.50009 1.81993Q6.57634 1.86142 6.62568 1.89954L6.35881 2.43553Q6.22089 2.35928 6.09081 2.35928Q5.86094 2.35928 5.86094 2.58915L5.86094 2.70353L6.39693 2.70353L6.39693 3.31577L5.89907 3.31577L5.89907 5L4.86521 5L4.86521 3.31577L4.59721 3.31577Z" fill="#000000" fill-opacity="1.000000" transform="matrix(1 0 0 1 33.6211 47.8179)"/><path d="M0.202646 0L0.9727 0C0.995084 0 1.01323 0.0181455 1.01323 0.0405292L1.01323 0.810584C1.01323 0.922502 0.922501 1.01323 0.810583 1.01323L0.202646 1.01323C0.0907276 1.01323 0 0.922502 0 0.810584L0 0.202646C0 0.0907276 0.0907276 0 0.202646 0L0.202646 0Z" fill="#EB512E" fill-opacity="1.000000" transform="matrix(1 0 0 1 33.8936 49.1972)"/><path d="M0.202646 0L0.9727 0C0.995084 0 1.01323 0.0181455 1.01323 0.0405292L1.01323 0.810584C1.01323 0.922502 0.922501 1.01323 0.810583 1.01323L0.202646 1.01323C0.0907276 1.01323 0 0.922502 0 0.810584L0 0.202646C0 0.0907276 0.0907276 0 0.202646 0L0.202646 0Z" fill="none" stroke="#F94737" stroke-opacity="1.000000" stroke-width="2" stroke-dasharray="0 0" transform="matrix(1 0 0 1 33.8936 49.1972)"/><path d="M0.202646 0L0.9727 0C0.995084 0 1.01323 0.0181455 1.01323 0.0405292L1.01323 0.810584C1.01323 0.922502 0.922501 1.01323 0.810583 1.01323L0.202646 1.01323C0.0907276 1.01323 0 0.922502 0 0.810584L0 0.202646C0 0.0907276 0.0907276 0 0.202646 0L0.202646 0Z" fill="#EB512E" fill-opacity="1.000000" transform="matrix(1 0 0 1 33.8936 49.1972)"/><path d="M0.202646 0L0.9727 0C0.995084 0 1.01323 0.0181455 1.01323 0.0405292L1.01323 0.810584C1.01323 0.922502 0.922501 1.01323 0.810583 1.01323L0.202646 1.01323C0.0907276 1.01323 0 0.922502 0 0.810584L0 0.202646C0 0.0907276 0.0907276 0 0.202646 0L0.202646 0Z" fill="none" stroke="#F94737" stroke-opacity="1.000000" stroke-width="2" stroke-dasharray="0 0" transform="matrix(1 0 0 1 33.8936 49.1972)"/><path d="M0.0569975 0.567375C0.0569975 0.850694 0.285822 1.0798 0.569419 1.0798C0.853017 1.0798 1.08184 0.850694 1.08184 0.567375C1.08184 0.283777 0.853017 0.054675 0.569419 0.054675C0.285822 0.054675 0.0569975 0.283777 0.0569975 0.567375ZM1.03986 0.567375C1.03986 0.826783 0.829106 1.03753 0.569419 1.03753C0.309733 1.03753 0.0989811 0.826783 0.0989811 0.567375C0.0989811 0.307688 0.309733 0.0969366 0.569419 0.0969366C0.829106 0.0969366 1.03986 0.307688 1.03986 0.567375ZM0.232439 0.567375C0.232439 0.753937 0.382579 0.904355 0.569419 0.904355C0.75626 0.904355 0.9064 0.753937 0.9064 0.567375C0.9064 0.380534 0.75626 0.230116 0.569419 0.230116C0.382579 0.230116 0.232439 0.380534 0.232439 0.567375Z" fill="#D81918" fill-opacity="1.000000" transform="matrix(0.989899 0.141775 -0.141718 0.989907 50.9308 50.3631)"/><path d="M2.62489 1.31244C2.62489 2.03729 2.03729 2.62489 1.31245 2.62489C0.587602 2.62489 0 2.03729 0 1.31244C0 0.587601 0.587602 0 1.31245 0L1.31288 0.656441C0.950342 0.656441 0.656442 0.95034 0.656442 1.31288C0.656442 1.67542 0.950342 1.96932 1.31288 1.96932C1.67543 1.96932 1.96933 1.67542 1.96933 1.31288L2.62489 1.31244L2.62489 1.31244Z" fill="#8A8A8A" fill-opacity="1.000000" transform="matrix(0.793377 0.608731 -0.608734 0.793374 51.0891 49.5191)"/><path d="M2.62489 1.31244C2.62489 2.03729 2.03729 2.62489 1.31245 2.62489C0.587602 2.62489 0 2.03729 0 1.31244C0 0.587601 0.587602 0 1.31245 0L1.31288 0.656441C0.950342 0.656441 0.656442 0.95034 0.656442 1.31288C0.656442 1.67542 0.950342 1.96932 1.31288 1.96932C1.67543 1.96932 1.96933 1.67542 1.96933 1.31288L2.62489 1.31244L2.62489 1.31244Z" fill="#8A8A8A" fill-opacity="1.000000" transform="matrix(0.793377 0.608731 -0.608734 0.793374 51.0891 49.5191)"/><path d="M2.62489 1.31244C2.62489 2.03728 2.03729 2.62489 1.31245 2.62489C0.587602 2.62489 0 2.03728 0 1.31244C0 0.587601 0.587602 0 1.31245 0L1.31288 0.656441C0.950341 0.656441 0.656442 0.95034 0.656442 1.31288C0.656442 1.67542 0.950341 1.96932 1.31288 1.96932C1.67543 1.96932 1.96933 1.67542 1.96933 1.31288L2.62489 1.31244L2.62489 1.31244Z" fill="#8A8A8A" fill-opacity="1.000000" transform="matrix(0.920719 -0.390226 0.39022 0.920722 49.6263 50.6511)"/><path d="M2.62489 1.31244C2.62489 2.03728 2.03729 2.62489 1.31245 2.62489C0.587602 2.62489 0 2.03728 0 1.31244C0 0.587601 0.587602 0 1.31245 0L1.31288 0.656441C0.950341 0.656441 0.656442 0.95034 0.656442 1.31288C0.656442 1.67542 0.950341 1.96932 1.31288 1.96932C1.67543 1.96932 1.96933 1.67542 1.96933 1.31288L2.62489 1.31244L2.62489 1.31244Z" fill="#8A8A8A" fill-opacity="1.000000" transform="matrix(0.920719 -0.390226 0.39022 0.920722 49.6263 50.6511)"/></svg>