<svg xmlns="http://www.w3.org/2000/svg" xmlns:xlink="http://www.w3.org/1999/xlink" width="408.488770" height="333.526306" viewBox="0 0 408.489 333.526"><path d="M6.10598 151L6.10598 77.8711L37.7785 77.8711L37.7785 88.4762Q45.9555 76.657 59.7386 76.657Q76.057 76.657 81.7701 90.1901Q90.0543 76.657 104.801 76.657Q115.907 76.657 122.548 83.5486Q129.19 90.4401 129.19 103.473L129.19 151L96.3031 151L96.3031 110.793Q96.3031 105.402 95.0533 103.223Q93.8393 101.045 91.4112 101.045Q88.8402 101.045 87.2691 102.866Q85.698 104.687 84.0911 108.472L84.0911 151L51.2045 151L51.2045 110.793Q51.2045 105.402 49.9548 103.223Q48.7407 101.045 46.3126 101.045Q43.7417 101.045 42.1705 102.866Q40.5994 104.687 38.9926 108.472L38.9926 151L6.10598 151ZM172.879 124.505Q171.236 126.005 171.236 129.076Q171.236 132.111 172.879 133.646Q174.521 135.146 176.735 135.146Q180.378 135.146 183.413 132.468L183.413 125.648Q180.378 122.97 176.735 122.97Q174.521 122.97 172.879 124.505ZM144.777 145.751Q138.314 139.288 138.314 129.076Q138.314 118.828 144.777 112.365Q151.24 105.901 163.309 105.901Q176.235 105.901 183.413 112.864L183.413 107.115Q183.413 101.759 180.056 99.5812Q176.735 97.3674 169.415 97.3674Q160.274 97.3674 146.848 102.259L139.564 83.977Q141.135 82.9772 144.063 81.5846Q146.991 80.192 156.989 77.8354Q166.987 75.443 177.949 75.443Q216.335 75.443 216.335 105.901L216.335 151L185.876 151L185.876 142.466Q185.627 142.823 185.127 143.501Q184.627 144.18 182.663 145.894Q180.735 147.572 178.414 148.858Q176.128 150.143 172.022 151.179Q167.951 152.214 163.309 152.214Q151.24 152.214 144.777 145.751ZM221.203 151L245.591 113.221L223.631 77.8711L258.982 77.8711L267.516 99.7955L276.05 77.8711L311.4 77.8711L289.44 113.221L313.828 151L277.264 151L267.516 129.076L257.768 151L221.203 151Z" fill="#EBEBEB" fill-opacity="1.000000" transform="matrix(1 0 0 1 7.45114 116.789)"/><path d="M7.32004 151L7.32004 77.8711L41.4564 77.8711L41.4564 151L7.32004 151ZM9.74815 70.551L9.74815 48.6266L38.9926 48.6266L38.9926 70.551L9.74815 70.551ZM54.856 151L54.856 77.8711L86.5285 77.8711L86.5285 90.2973Q94.8127 76.657 110.917 76.657Q122.986 76.657 130.342 84.0842Q137.733 91.5113 137.733 104.687L137.733 151L103.597 151L103.597 112.007Q103.597 106.651 102.133 104.473Q100.669 102.259 97.4907 102.259Q91.5276 102.259 88.9566 110.401L88.9566 151L54.856 151ZM146.845 97.3673L146.845 77.8711L156.593 77.8711L156.593 71.7651Q156.593 58.4819 164.878 51.7332Q173.197 44.9487 185.874 44.9487Q192.694 44.9487 198.835 46.6627Q205.013 48.3767 207.441 49.7336Q209.869 51.0547 211.44 52.2688L202.942 69.337Q198.55 66.9089 194.408 66.9089Q187.088 66.9089 187.088 74.2289L187.088 77.8711L204.156 77.8711L204.156 97.3673L188.302 97.3673L188.302 151L155.379 151L155.379 97.3673L146.845 97.3673Z" fill="#EBEBEB" fill-opacity="1.000000" transform="matrix(1 0 0 1 6.73685 23.667)"/><path d="M6.45306 0L30.9747 0C31.6875 0 32.2653 0.577827 32.2653 1.29061L32.2653 25.8123C32.2653 29.3762 29.3762 32.2653 25.8123 32.2653L6.45306 32.2653C2.88914 32.2653 0 29.3762 0 25.8123L0 6.45306C0 2.88914 2.88914 0 6.45306 0L6.45306 0Z" fill="#EB512E" fill-opacity="1.000000" transform="matrix(1 0 0 1 14.5966 67.5889)"/><path d="M6.45306 0L30.9747 0C31.6875 0 32.2653 0.577827 32.2653 1.29061L32.2653 25.8123C32.2653 29.3762 29.3762 32.2653 25.8123 32.2653L6.45306 32.2653C2.88914 32.2653 0 29.3762 0 25.8123L0 6.45306C0 2.88914 2.88914 0 6.45306 0L6.45306 0Z" fill="none" stroke="#F94737" stroke-opacity="1.000000" stroke-width="2" stroke-dasharray="0 0" transform="matrix(1 0 0 1 14.5966 67.5889)"/><path d="M1.81506 27.2232C1.81506 36.2454 9.10187 43.5411 18.1329 43.5411C27.1639 43.5411 34.4507 36.2454 34.4507 27.2232C34.4507 18.1922 27.1639 10.8965 18.1329 10.8965C9.10187 10.8965 1.81506 18.1922 1.81506 27.2232ZM33.1138 27.2232C33.1138 35.484 26.4025 42.1953 18.1329 42.1953C9.86331 42.1953 3.15201 35.484 3.15201 27.2232C3.15201 18.9536 9.86331 12.2423 18.1329 12.2423C26.4025 12.2423 33.1138 18.9536 33.1138 27.2232ZM7.40191 27.2232C7.40191 33.1642 12.183 37.9542 18.1329 37.9542C24.0828 37.9542 28.8639 33.1642 28.8639 27.2232C28.8639 21.2734 24.0828 16.4834 18.1329 16.4834C12.183 16.4834 7.40191 21.2734 7.40191 27.2232Z" fill="#D81918" fill-opacity="1.000000" transform="matrix(0.989899 0.141777 -0.14178 0.989898 261.11 103.832)"/><path d="M83.5871 41.7935C83.5871 64.8755 64.8755 83.5871 41.7935 83.5871C18.7116 83.5871 0 64.8755 0 41.7935C0 18.7116 18.7116 0 41.7935 0L41.8075 20.9038C30.2627 20.9038 20.9038 30.2627 20.9038 41.8075C20.9038 53.3524 30.2627 62.7113 41.8075 62.7113C53.3524 62.7113 62.7113 53.3524 62.7113 41.8075L83.5871 41.7935L83.5871 41.7935Z" fill="#8A8A8A" fill-opacity="1.000000" transform="matrix(0.793376 0.608732 -0.608734 0.793374 266.961 75.1897)"/><path d="M83.5872 41.7935C83.5872 64.8754 64.8756 83.587 41.7936 83.587C18.7116 83.587 0 64.8754 0 41.7935C0 18.7116 18.7116 0 41.7936 0L41.8076 20.9037C30.2627 20.9037 20.9038 30.2627 20.9038 41.8075C20.9038 53.3523 30.2627 62.7112 41.8076 62.7112C53.3524 62.7112 62.7114 53.3523 62.7114 41.8075L83.5872 41.7935L83.5872 41.7935Z" fill="#8A8A8A" fill-opacity="1.000000" transform="matrix(0.920719 -0.390226 0.390226 0.920719 220.383 111.235)"/></svg>