<svg xmlns="http://www.w3.org/2000/svg" xmlns:xlink="http://www.w3.org/1999/xlink" width="145.992569" height="119.693283" viewBox="0 0 145.993 119.693"><path d="M1.86257 46L1.86257 23.6927L11.524 23.6927L11.524 26.9277Q14.0183 23.3224 18.2227 23.3224Q23.2004 23.3224 24.9432 27.4506Q27.4702 23.3224 31.9686 23.3224Q35.3561 23.3224 37.3821 25.4246Q39.408 27.5268 39.408 31.5025L39.408 46L29.3763 46L29.3763 33.7354Q29.3763 32.0906 28.9951 31.4262Q28.6247 30.7618 27.8841 30.7618Q27.0998 30.7618 26.6206 31.3173Q26.1413 31.8728 25.6512 33.0274L25.6512 46L15.6194 46L15.6194 33.7354Q15.6194 32.0906 15.2382 31.4262Q14.8679 30.7618 14.1272 30.7618Q13.343 30.7618 12.8637 31.3173Q12.3844 31.8728 11.8943 33.0274L11.8943 46L1.86257 46ZM52.7325 37.918Q52.2314 38.3755 52.2314 39.3122Q52.2314 40.238 52.7325 40.7064Q53.2335 41.1639 53.9088 41.1639Q55.0198 41.1639 55.9457 40.3469L55.9457 38.2665Q55.0198 37.4496 53.9088 37.4496Q53.2335 37.4496 52.7325 37.918ZM44.1603 44.3988Q42.1888 42.4274 42.1888 39.3122Q42.1888 36.1861 44.1603 34.2146Q46.1318 32.2431 49.8133 32.2431Q53.7563 32.2431 55.9457 34.3671L55.9457 32.6135Q55.9457 30.9796 54.9218 30.3152Q53.9088 29.6399 51.6759 29.6399Q48.8875 29.6399 44.792 31.1321L42.57 25.5553Q43.0493 25.2503 43.9424 24.8255Q44.8356 24.4007 47.8854 23.6819Q50.9352 22.9521 54.2792 22.9521Q65.9883 22.9521 65.9883 32.2431L65.9883 46L56.6972 46L56.6972 43.3968Q56.621 43.5057 56.4685 43.7126Q56.316 43.9196 55.7169 44.4424Q55.1287 44.9543 54.4207 45.3465Q53.7236 45.7386 52.471 46.0545Q51.2293 46.3703 49.8133 46.3703Q46.1318 46.3703 44.1603 44.3988ZM67.4717 46L74.911 34.476L68.2123 23.6927L78.9956 23.6927L81.5989 30.3806L84.2021 23.6927L94.9854 23.6927L88.2867 34.476L95.7261 46L84.5724 46L81.5989 39.3122L78.6253 46L67.4717 46Z" fill="#EBEBEB" fill-opacity="1.000000" transform="matrix(1 0 0 1 15.1694 44.081)"/><path d="M2.2329 46L2.2329 23.6927L12.6459 23.6927L12.6459 46L2.2329 46ZM2.97357 21.4598L2.97357 14.772L11.8943 14.772L11.8943 21.4598L2.97357 21.4598ZM16.7323 46L16.7323 23.6927L26.3937 23.6927L26.3937 27.4832Q28.9207 23.3224 33.8331 23.3224Q37.5147 23.3224 39.7585 25.588Q42.0132 27.8536 42.0132 31.8728L42.0132 46L31.6002 46L31.6002 34.1057Q31.6002 32.4719 31.1536 31.8074Q30.7071 31.1321 29.7377 31.1321Q27.9187 31.1321 27.1344 33.6156L27.1344 46L16.7323 46ZM44.791 29.6399L44.791 23.6927L47.7646 23.6927L47.7646 21.8302Q47.7646 17.7783 50.2916 15.7196Q52.8295 13.6501 56.6962 13.6501Q58.7766 13.6501 60.6501 14.173Q62.5344 14.6958 63.2751 15.1097Q64.0158 15.5127 64.495 15.883L61.9027 21.0895Q60.5629 20.3488 59.2994 20.3488Q57.0665 20.3488 57.0665 22.5817L57.0665 23.6927L62.273 23.6927L62.273 29.6399L57.4369 29.6399L57.4369 46L47.3942 46L47.3942 29.6399L44.791 29.6399Z" fill="#EBEBEB" fill-opacity="1.000000" transform="matrix(1 0 0 1 14.9515 15.675)"/><path d="M1.96844 0L9.44853 0C9.66595 0 9.84221 0.17626 9.84221 0.393689L9.84221 7.87377C9.84221 8.96091 8.96091 9.84221 7.87377 9.84221L1.96844 9.84221C0.881302 9.84221 0 8.96091 0 7.87377L0 1.96844C0 0.881302 0.881302 0 1.96844 0L1.96844 0Z" fill="#EB512E" fill-opacity="1.000000" transform="matrix(1 0 0 1 17.3491 29.0729)"/><path d="M1.96844 0L9.44853 0C9.66595 0 9.84221 0.17626 9.84221 0.393689L9.84221 7.87377C9.84221 8.96091 8.96091 9.84221 7.87377 9.84221L1.96844 9.84221C0.881302 9.84221 0 8.96091 0 7.87377L0 1.96844C0 0.881302 0.881302 0 1.96844 0L1.96844 0Z" fill="none" stroke="#F94737" stroke-opacity="1.000000" stroke-width="2" stroke-dasharray="0 0" transform="matrix(1 0 0 1 17.3491 29.0729)"/><path d="M1.96844 0L9.44853 0C9.66595 0 9.84221 0.17626 9.84221 0.393689L9.84221 7.87377C9.84221 8.96091 8.96091 9.84221 7.87377 9.84221L1.96844 9.84221C0.881302 9.84221 0 8.96091 0 7.87377L0 1.96844C0 0.881302 0.881302 0 1.96844 0L1.96844 0Z" fill="#EB512E" fill-opacity="1.000000" transform="matrix(1 0 0 1 17.3491 29.0729)"/><path d="M1.96844 0L9.44853 0C9.66595 0 9.84221 0.17626 9.84221 0.393689L9.84221 7.87377C9.84221 8.96091 8.96091 9.84221 7.87377 9.84221L1.96844 9.84221C0.881302 9.84221 0 8.96091 0 7.87377L0 1.96844C0 0.881302 0.881302 0 1.96844 0L1.96844 0Z" fill="none" stroke="#F94737" stroke-opacity="1.000000" stroke-width="2" stroke-dasharray="0 0" transform="matrix(1 0 0 1 17.3491 29.0729)"/><path d="M0.553665 8.79755C0.553665 11.5497 2.77643 13.7751 5.53125 13.7751C8.28607 13.7751 10.5088 11.5497 10.5088 8.79755C10.5088 6.04272 8.28607 3.81726 5.53125 3.81726C2.77643 3.81726 0.553665 6.04272 0.553665 8.79755ZM10.101 8.79755C10.101 11.3174 8.0538 13.3646 5.53125 13.3646C3.0087 13.3646 0.961487 11.3174 0.961487 8.79755C0.961487 6.27499 3.0087 4.22778 5.53125 4.22778C8.0538 4.22778 10.101 6.27499 10.101 8.79755ZM2.25787 8.79755C2.25787 10.6098 3.71631 12.0709 5.53125 12.0709C7.34619 12.0709 8.80463 10.6098 8.80463 8.79755C8.80463 6.9826 7.34619 5.52147 5.53125 5.52147C3.71631 5.52147 2.25787 6.9826 2.25787 8.79755Z" fill="#D81918" fill-opacity="1.000000" transform="matrix(0.989899 0.141777 -0.141779 0.989898 92.5848 40.1036)"/><path d="M25.4974 12.7487C25.4974 19.7896 19.7896 25.4974 12.7487 25.4974C5.70779 25.4974 0 19.7896 0 12.7487C0 5.70779 5.70779 0 12.7487 0L12.753 6.37649C9.23134 6.37649 6.37649 9.23134 6.37649 12.753C6.37649 16.2746 9.23134 19.1295 12.753 19.1295C16.2746 19.1295 19.1295 16.2746 19.1295 12.753L25.4974 12.7487L25.4974 12.7487Z" fill="#8A8A8A" fill-opacity="1.000000" transform="matrix(0.793376 0.608732 -0.608734 0.793374 94.3302 31.3914)"/><path d="M25.4974 12.7487C25.4974 19.7896 19.7896 25.4974 12.7487 25.4974C5.70779 25.4974 0 19.7896 0 12.7487C0 5.70779 5.70779 0 12.7487 0L12.753 6.37649C9.23134 6.37649 6.37649 9.23134 6.37649 12.753C6.37649 16.2746 9.23134 19.1295 12.753 19.1295C16.2746 19.1295 19.1295 16.2746 19.1295 12.753L25.4974 12.7487L25.4974 12.7487Z" fill="#8A8A8A" fill-opacity="1.000000" transform="matrix(0.793376 0.608732 -0.608734 0.793374 94.3302 31.3914)"/><path d="M25.4974 12.7487C25.4974 19.7896 19.7896 25.4974 12.7487 25.4974C5.7078 25.4974 0 19.7896 0 12.7487C0 5.70778 5.7078 0 12.7487 0L12.753 6.37648C9.23134 6.37648 6.37649 9.23133 6.37649 12.753C6.37649 16.2746 9.23134 19.1294 12.753 19.1294C16.2746 19.1294 19.1295 16.2746 19.1295 12.753L25.4974 12.7487L25.4974 12.7487Z" fill="#8A8A8A" fill-opacity="1.000000" transform="matrix(0.920719 -0.390226 0.390225 0.92072 80.1221 42.3867)"/><path d="M25.4974 12.7487C25.4974 19.7896 19.7896 25.4974 12.7487 25.4974C5.7078 25.4974 0 19.7896 0 12.7487C0 5.70778 5.7078 0 12.7487 0L12.753 6.37648C9.23134 6.37648 6.37649 9.23133 6.37649 12.753C6.37649 16.2746 9.23134 19.1294 12.753 19.1294C16.2746 19.1294 19.1295 16.2746 19.1295 12.753L25.4974 12.7487L25.4974 12.7487Z" fill="#8A8A8A" fill-opacity="1.000000" transform="matrix(0.920719 -0.390226 0.390225 0.92072 80.1221 42.3867)"/></svg>