<svg xmlns="http://www.w3.org/2000/svg" xmlns:xlink="http://www.w3.org/1999/xlink" width="104.546631" height="104.547012" viewBox="0 0 104.547 104.547"><path d="M0.294903 7L0.294903 3.46807L1.8246 3.46807L1.8246 3.98027Q2.21953 3.40943 2.88522 3.40943Q3.67335 3.40943 3.94928 4.06305Q4.34938 3.40943 5.06163 3.40943Q5.59798 3.40943 5.91875 3.74227Q6.23952 4.07512 6.23952 4.70459L6.23952 7L4.65118 7L4.65118 5.05813Q4.65118 4.79772 4.59082 4.69252Q4.53219 4.58732 4.41492 4.58732Q4.29075 4.58732 4.21487 4.67527Q4.13898 4.76322 4.06138 4.94603L4.06138 7L2.47304 7L2.47304 5.05813Q2.47304 4.79772 2.41268 4.69252Q2.35405 4.58732 2.23678 4.58732Q2.11261 4.58732 2.03673 4.67527Q1.96084 4.76322 1.88324 4.94603L1.88324 7L0.294903 7ZM8.34862 5.72036Q8.26929 5.7928 8.26929 5.94111Q8.26929 6.0877 8.34862 6.16186Q8.42795 6.23429 8.53488 6.23429Q8.71078 6.23429 8.85737 6.10494L8.85737 5.77555Q8.71078 5.64621 8.53488 5.64621Q8.42795 5.64621 8.34862 5.72036ZM6.99138 6.74649Q6.67923 6.43434 6.67923 5.94111Q6.67923 5.44616 6.99138 5.13401Q7.30353 4.82186 7.88644 4.82186Q8.51073 4.82186 8.85737 5.15815L8.85737 4.8805Q8.85737 4.62181 8.69526 4.51661Q8.53488 4.40969 8.18134 4.40969Q7.73985 4.40969 7.09141 4.64595L6.73959 3.76297Q6.81547 3.71468 6.95689 3.64742Q7.09831 3.58016 7.58119 3.46634Q8.06407 3.3508 8.59351 3.3508Q10.4474 3.3508 10.4474 4.82186L10.4474 7L8.97637 7L8.97637 6.58783Q8.9643 6.60507 8.94015 6.63784Q8.91601 6.67061 8.82116 6.75339Q8.72803 6.83444 8.61593 6.89653Q8.50556 6.95861 8.30723 7.00862Q8.11063 7.05864 7.88644 7.05864Q7.30353 7.05864 6.99138 6.74649ZM10.6819 7L11.8598 5.1754L10.7992 3.46807L12.5065 3.46807L12.9187 4.52696L13.3309 3.46807L15.0382 3.46807L13.9776 5.1754L15.1555 7L13.3895 7L12.9187 5.94111L12.4479 7L10.6819 7Z" fill="#000000" fill-opacity="1.000000" transform="matrix(1 0 0 1 35.0537 46.8449)"/><path d="M0.353538 7L0.353538 3.46807L2.00223 3.46807L2.00223 7L0.353538 7ZM0.47081 3.11453L0.47081 2.05564L1.88324 2.05564L1.88324 3.11453L0.47081 3.11453ZM2.64904 7L2.64904 3.46807L4.17874 3.46807L4.17874 4.06822Q4.57885 3.40943 5.35663 3.40943Q5.93954 3.40943 6.2948 3.76814Q6.65179 4.12685 6.65179 4.76322L6.65179 7L5.00309 7L5.00309 5.11676Q5.00309 4.85808 4.93238 4.75288Q4.86168 4.64595 4.70819 4.64595Q4.42019 4.64595 4.29602 5.03916L4.29602 7L2.64904 7ZM7.09121 4.40968L7.09121 3.46807L7.56202 3.46807L7.56202 3.17316Q7.56202 2.53162 7.96212 2.20567Q8.36394 1.87801 8.97617 1.87801Q9.30556 1.87801 9.60219 1.96078Q9.90054 2.04356 10.0178 2.1091Q10.1351 2.17291 10.211 2.23154L9.80052 3.05589Q9.58839 2.93862 9.38834 2.93862Q9.0348 2.93862 9.0348 3.29216L9.0348 3.46807L9.85915 3.46807L9.85915 4.40968L9.09344 4.40968L9.09344 7L7.50338 7L7.50338 4.40968L7.09121 4.40968Z" fill="#000000" fill-opacity="1.000000" transform="matrix(1 0 0 1 25.0106 46.8449)"/><path d="M0.311666 0L1.496 0C1.53042 0 1.55833 0.0279075 1.55833 0.0623332L1.55833 1.24666C1.55833 1.41879 1.41879 1.55833 1.24666 1.55833L0.311666 1.55833C0.139538 1.55833 0 1.41879 0 1.24666L0 0.311666C0 0.139538 0.139538 0 0.311666 0L0.311666 0Z" fill="#EB512E" fill-opacity="1.000000" transform="matrix(1 0 0 1 25.4296 48.9662)"/><path d="M0.311666 0L1.496 0C1.53042 0 1.55833 0.0279075 1.55833 0.0623332L1.55833 1.24666C1.55833 1.41879 1.41879 1.55833 1.24666 1.55833L0.311666 1.55833C0.139538 1.55833 0 1.41879 0 1.24666L0 0.311666C0 0.139538 0.139538 0 0.311666 0L0.311666 0Z" fill="none" stroke="#F94737" stroke-opacity="1.000000" stroke-width="2" stroke-dasharray="0 0" transform="matrix(1 0 0 1 25.4296 48.9662)"/><path d="M0.311666 0L1.496 0C1.53042 0 1.55833 0.0279075 1.55833 0.0623332L1.55833 1.24666C1.55833 1.41879 1.41879 1.55833 1.24666 1.55833L0.311666 1.55833C0.139538 1.55833 0 1.41879 0 1.24666L0 0.311666C0 0.139538 0.139538 0 0.311666 0L0.311666 0Z" fill="#EB512E" fill-opacity="1.000000" transform="matrix(1 0 0 1 25.4296 48.9662)"/><path d="M0.311666 0L1.496 0C1.53042 0 1.55833 0.0279075 1.55833 0.0623332L1.55833 1.24666C1.55833 1.41879 1.41879 1.55833 1.24666 1.55833L0.311666 1.55833C0.139538 1.55833 0 1.41879 0 1.24666L0 0.311666C0 0.139538 0.139538 0 0.311666 0L0.311666 0Z" fill="none" stroke="#F94737" stroke-opacity="1.000000" stroke-width="2" stroke-dasharray="0 0" transform="matrix(1 0 0 1 25.4296 48.9662)"/><path d="M0.0876613 1.33463C0.0876613 1.77037 0.439589 2.12273 0.875758 2.12273C1.31193 2.12273 1.66385 1.77037 1.66385 1.33463C1.66385 0.898461 1.31193 0.546105 0.875758 0.546105C0.439589 0.546105 0.0876613 0.898461 0.0876613 1.33463ZM1.59928 1.33463C1.59928 1.7336 1.27515 2.05773 0.875758 2.05773C0.476364 2.05773 0.152231 1.7336 0.152231 1.33463C0.152231 0.935236 0.476364 0.611103 0.875758 0.611103C1.27515 0.611103 1.59928 0.935236 1.59928 1.33463ZM0.357487 1.33463C0.357487 1.62156 0.5884 1.8529 0.875758 1.8529C1.16312 1.8529 1.39403 1.62156 1.39403 1.33463C1.39403 1.04727 1.16312 0.815931 0.875758 0.815931C0.5884 0.815931 0.357487 1.04727 0.357487 1.33463Z" fill="#D81918" fill-opacity="1.000000" transform="matrix(0.989899 0.141775 -0.141719 0.989907 51.6219 50.8353)"/><path d="M4.03704 2.01852C4.03704 3.13331 3.13332 4.03703 2.01852 4.03703C0.903723 4.03703 0 3.13331 0 2.01852C0 0.903721 0.903723 0 2.01852 0L2.0192 1.0096C1.46161 1.0096 1.0096 1.46161 1.0096 2.01919C1.0096 2.57678 1.46161 3.02879 2.0192 3.02879C2.57678 3.02879 3.02879 2.57678 3.02879 2.01919L4.03704 2.01852L4.03704 2.01852Z" fill="#8A8A8A" fill-opacity="1.000000" transform="matrix(0.793377 0.608731 -0.608734 0.793374 51.876 49.4614)"/><path d="M4.03704 2.01852C4.03704 3.13331 3.13332 4.03703 2.01852 4.03703C0.903723 4.03703 0 3.13331 0 2.01852C0 0.903721 0.903723 0 2.01852 0L2.0192 1.0096C1.46161 1.0096 1.0096 1.46161 1.0096 2.01919C1.0096 2.57678 1.46161 3.02879 2.0192 3.02879C2.57678 3.02879 3.02879 2.57678 3.02879 2.01919L4.03704 2.01852L4.03704 2.01852Z" fill="#8A8A8A" fill-opacity="1.000000" transform="matrix(0.793377 0.608731 -0.608734 0.793374 51.876 49.4614)"/><path d="M4.03704 2.01852C4.03704 3.13331 3.13332 4.03703 2.01852 4.03703C0.903722 4.03703 0 3.13331 0 2.01852C0 0.90372 0.903722 0 2.01852 0L2.01919 1.0096C1.46161 1.0096 1.0096 1.46161 1.0096 2.01919C1.0096 2.57677 1.46161 3.02879 2.01919 3.02879C2.57678 3.02879 3.02879 2.57677 3.02879 2.01919L4.03704 2.01852L4.03704 2.01852Z" fill="#8A8A8A" fill-opacity="1.000000" transform="matrix(0.920719 -0.390226 0.39022 0.920722 49.6263 51.2023)"/><path d="M4.03704 2.01852C4.03704 3.13331 3.13332 4.03703 2.01852 4.03703C0.903722 4.03703 0 3.13331 0 2.01852C0 0.90372 0.903722 0 2.01852 0L2.01919 1.0096C1.46161 1.0096 1.0096 1.46161 1.0096 2.01919C1.0096 2.57677 1.46161 3.02879 2.01919 3.02879C2.57678 3.02879 3.02879 2.57677 3.02879 2.01919L4.03704 2.01852L4.03704 2.01852Z" fill="#8A8A8A" fill-opacity="1.000000" transform="matrix(0.920719 -0.390226 0.39022 0.920722 49.6263 51.2023)"/></svg>