<svg xmlns="http://www.w3.org/2000/svg" xmlns:xlink="http://www.w3.org/1999/xlink" width="98.061340" height="81.863098" viewBox="0 0 98.0613 81.8631"><path d="M0.935251 23L0.935251 11.7989L5.78652 11.7989L5.78652 13.4232Q7.039 11.6129 9.15015 11.6129Q11.6496 11.6129 12.5247 13.6858Q13.7936 11.6129 16.0524 11.6129Q17.7534 11.6129 18.7707 12.6685Q19.7879 13.7241 19.7879 15.7204L19.7879 23L14.7507 23L14.7507 16.8416Q14.7507 16.0157 14.5593 15.6821Q14.3733 15.3484 14.0014 15.3484Q13.6076 15.3484 13.367 15.6274Q13.1263 15.9063 12.8802 16.4861L12.8802 23L7.84298 23L7.84298 16.8416Q7.84298 16.0157 7.65156 15.6821Q7.4656 15.3484 7.09369 15.3484Q6.6999 15.3484 6.45925 15.6274Q6.2186 15.9063 5.97248 16.4861L5.97248 23L0.935251 23ZM26.4702 18.9418Q26.2186 19.1715 26.2186 19.6418Q26.2186 20.1067 26.4702 20.3419Q26.7218 20.5716 27.0609 20.5716Q27.6188 20.5716 28.0837 20.1614L28.0837 19.1168Q27.6188 18.7066 27.0609 18.7066Q26.7218 18.7066 26.4702 18.9418ZM22.1659 22.196Q21.1759 21.2061 21.1759 19.6418Q21.1759 18.0722 22.1659 17.0822Q23.1558 16.0923 25.0044 16.0923Q26.9843 16.0923 28.0837 17.1588L28.0837 16.2782Q28.0837 15.4578 27.5695 15.1242Q27.0609 14.7851 25.9397 14.7851Q24.5395 14.7851 22.4831 15.5344L21.3674 12.7341Q21.608 12.581 22.0565 12.3677Q22.505 12.1544 24.0364 11.7934Q25.5678 11.427 27.2469 11.427Q33.1264 11.427 33.1264 16.0923L33.1264 23L28.461 23L28.461 21.6928Q28.4228 21.7475 28.3462 21.8514Q28.2696 21.9554 27.9688 22.2179Q27.6735 22.4749 27.318 22.6718Q26.9679 22.8687 26.339 23.0273Q25.7155 23.186 25.0044 23.186Q23.1558 23.186 22.1659 22.196ZM33.8659 23L37.6014 17.2135L34.2378 11.7989L39.6524 11.7989L40.9595 15.157L42.2667 11.7989L47.6813 11.7989L44.3177 17.2135L48.0532 23L42.4527 23L40.9595 19.6418L39.4664 23L33.8659 23Z" fill="#000000" fill-opacity="1.000000" transform="matrix(1 0 0 1 16.2412 38.2644)"/><path d="M1.12121 23L1.12121 11.7989L6.34986 11.7989L6.34986 23L1.12121 23ZM1.49312 10.6777L1.49312 7.3195L5.97248 7.3195L5.97248 10.6777L1.49312 10.6777ZM8.3988 23L8.3988 11.7989L13.2501 11.7989L13.2501 13.7022Q14.5189 11.6129 16.9856 11.6129Q18.8342 11.6129 19.9609 12.7505Q21.0931 13.8881 21.0931 15.9063L21.0931 23L15.8644 23L15.8644 17.0275Q15.8644 16.2071 15.6402 15.8735Q15.4159 15.5344 14.9291 15.5344Q14.0158 15.5344 13.622 16.7814L13.622 23L8.3988 23ZM22.482 14.7851L22.482 11.7989L23.9752 11.7989L23.9752 10.8636Q23.9752 8.82903 25.244 7.79533Q26.5184 6.75616 28.46 6.75616Q29.5046 6.75616 30.4454 7.01869Q31.3915 7.28122 31.7635 7.48905Q32.1354 7.69142 32.376 7.87737L31.0743 10.4917Q30.4016 10.1198 29.7672 10.1198Q28.646 10.1198 28.646 11.241L28.646 11.7989L31.2603 11.7989L31.2603 14.7851L28.8319 14.7851L28.8319 23L23.7892 23L23.7892 14.7851L22.482 14.7851Z" fill="#000000" fill-opacity="1.000000" transform="matrix(1 0 0 1 16.1317 24.0009)"/><path d="M0.988414 0L4.74439 0C4.85356 0 4.94207 0.0885056 4.94207 0.197683L4.94207 3.95366C4.94207 4.49954 4.49954 4.94207 3.95366 4.94207L0.988414 4.94207C0.442528 4.94207 0 4.49954 0 3.95366L0 0.988414C0 0.442528 0.442528 0 0.988414 0L0.988414 0Z" fill="#EB512E" fill-opacity="1.000000" transform="matrix(1 0 0 1 17.3356 30.7284)"/><path d="M0.988414 0L4.74439 0C4.85356 0 4.94207 0.0885056 4.94207 0.197683L4.94207 3.95366C4.94207 4.49954 4.49954 4.94207 3.95366 4.94207L0.988414 4.94207C0.442528 4.94207 0 4.49954 0 3.95366L0 0.988414C0 0.442528 0.442528 0 0.988414 0L0.988414 0Z" fill="none" stroke="#F94737" stroke-opacity="1.000000" stroke-width="2" stroke-dasharray="0 0" transform="matrix(1 0 0 1 17.3356 30.7284)"/><path d="M0.988414 0L4.74439 0C4.85356 0 4.94207 0.0885056 4.94207 0.197683L4.94207 3.95366C4.94207 4.49954 4.49954 4.94207 3.95366 4.94207L0.988414 4.94207C0.442528 4.94207 0 4.49954 0 3.95366L0 0.988414C0 0.442528 0.442528 0 0.988414 0L0.988414 0Z" fill="#EB512E" fill-opacity="1.000000" transform="matrix(1 0 0 1 17.3356 30.7284)"/><path d="M0.988414 0L4.74439 0C4.85356 0 4.94207 0.0885056 4.94207 0.197683L4.94207 3.95366C4.94207 4.49954 4.49954 4.94207 3.95366 4.94207L0.988414 4.94207C0.442528 4.94207 0 4.49954 0 3.95366L0 0.988414C0 0.442528 0.442528 0 0.988414 0L0.988414 0Z" fill="none" stroke="#F94737" stroke-opacity="1.000000" stroke-width="2" stroke-dasharray="0 0" transform="matrix(1 0 0 1 17.3356 30.7284)"/><path d="M0.27801 3.88984C0.27801 5.27175 1.39412 6.38921 2.77739 6.38921C4.16066 6.38921 5.27677 5.27175 5.27677 3.88984C5.27677 2.50657 4.16066 1.3891 2.77739 1.3891C1.39412 1.3891 0.27801 2.50657 0.27801 3.88984ZM5.07199 3.88984C5.07199 5.15512 4.04403 6.18308 2.77739 6.18308C1.51075 6.18308 0.482788 5.15512 0.482788 3.88984C0.482788 2.62319 1.51075 1.59524 2.77739 1.59524C4.04403 1.59524 5.07199 2.62319 5.07199 3.88984ZM1.13374 3.88984C1.13374 4.79981 1.86606 5.53349 2.77739 5.53349C3.68872 5.53349 4.42104 4.79981 4.42104 3.88984C4.42104 2.97851 3.68872 2.24483 2.77739 2.24483C1.86606 2.24483 1.13374 2.97851 1.13374 3.88984Z" fill="#D81918" fill-opacity="1.000000" transform="matrix(0.989899 0.141774 -0.141785 0.989897 55.0757 36.2663)"/><path d="M12.803 6.4015C12.803 9.93696 9.93696 12.803 6.40151 12.803C2.86605 12.803 0 9.93696 0 6.4015C0 2.86605 2.86605 0 6.40151 0L6.40365 3.20182C4.63533 3.20182 3.20182 4.63533 3.20182 6.40364C3.20182 8.17196 4.63533 9.60547 6.40365 9.60547C8.17197 9.60547 9.60547 8.17196 9.60547 6.40364L12.803 6.4015L12.803 6.4015Z" fill="#8A8A8A" fill-opacity="1.000000" transform="matrix(0.793376 0.608732 -0.608735 0.793374 55.9901 31.8925)"/><path d="M12.803 6.4015C12.803 9.93696 9.93696 12.803 6.40151 12.803C2.86605 12.803 0 9.93696 0 6.4015C0 2.86605 2.86605 0 6.40151 0L6.40365 3.20182C4.63533 3.20182 3.20182 4.63533 3.20182 6.40364C3.20182 8.17196 4.63533 9.60547 6.40365 9.60547C8.17197 9.60547 9.60547 8.17196 9.60547 6.40364L12.803 6.4015L12.803 6.4015Z" fill="#8A8A8A" fill-opacity="1.000000" transform="matrix(0.793376 0.608732 -0.608735 0.793374 55.9901 31.8925)"/><path d="M12.803 6.4015C12.803 9.93696 9.93697 12.803 6.40151 12.803C2.86605 12.803 0 9.93696 0 6.4015C0 2.86605 2.86605 0 6.40151 0L6.40365 3.20182C4.63533 3.20182 3.20183 4.63533 3.20183 6.40364C3.20183 8.17196 4.63533 9.60547 6.40365 9.60547C8.17197 9.60547 9.60548 8.17196 9.60548 6.40364L12.803 6.4015L12.803 6.4015Z" fill="#8A8A8A" fill-opacity="1.000000" transform="matrix(0.920719 -0.390226 0.390225 0.92072 48.8558 37.4136)"/><path d="M12.803 6.4015C12.803 9.93696 9.93697 12.803 6.40151 12.803C2.86605 12.803 0 9.93696 0 6.4015C0 2.86605 2.86605 0 6.40151 0L6.40365 3.20182C4.63533 3.20182 3.20183 4.63533 3.20183 6.40364C3.20183 8.17196 4.63533 9.60547 6.40365 9.60547C8.17197 9.60547 9.60548 8.17196 9.60548 6.40364L12.803 6.4015L12.803 6.4015Z" fill="#8A8A8A" fill-opacity="1.000000" transform="matrix(0.920719 -0.390226 0.390225 0.92072 48.8558 37.4136)"/></svg>