<svg xmlns="http://www.w3.org/2000/svg" xmlns:xlink="http://www.w3.org/1999/xlink" width="101.139465" height="101.139771" viewBox="0 0 101.139 101.14"><path d="M0.102096 3L0.102096 1.77723L0.631684 1.77723L0.631684 1.95456Q0.76841 1.75693 0.998873 1.75693Q1.27173 1.75693 1.36726 1.98322Q1.50577 1.75693 1.75236 1.75693Q1.93804 1.75693 2.04909 1.87216Q2.16015 1.98739 2.16015 2.20532L2.16015 3L1.61026 3L1.61026 2.32772Q1.61026 2.23756 1.58936 2.20114Q1.56906 2.16472 1.52846 2.16472Q1.48547 2.16472 1.4592 2.19517Q1.43293 2.22562 1.40606 2.28891L1.40606 3L0.856177 3L0.856177 2.32772Q0.856177 2.23756 0.83528 2.20114Q0.81498 2.16472 0.77438 2.16472Q0.731392 2.16472 0.705122 2.19517Q0.678852 2.22562 0.651984 2.28891L0.651984 3L0.102096 3ZM2.88346 2.55699Q2.856 2.58206 2.856 2.63341Q2.856 2.68416 2.88346 2.70983Q2.91093 2.73491 2.94794 2.73491Q3.00884 2.73491 3.05959 2.69013L3.05959 2.57609Q3.00884 2.53131 2.94794 2.53131Q2.91093 2.53131 2.88346 2.55699ZM2.41358 2.91223Q2.30551 2.80417 2.30551 2.63341Q2.30551 2.46205 2.41358 2.35399Q2.52165 2.24592 2.72345 2.24592Q2.93959 2.24592 3.05959 2.36235L3.05959 2.26622Q3.05959 2.17666 3.00347 2.14024Q2.94794 2.10322 2.82555 2.10322Q2.6727 2.10322 2.44821 2.18502L2.32641 1.87933Q2.35268 1.86261 2.40164 1.83933Q2.4506 1.81604 2.61777 1.77663Q2.78495 1.73663 2.96824 1.73663Q3.61008 1.73663 3.61008 2.24592L3.61008 3L3.10079 3L3.10079 2.8573Q3.09661 2.86327 3.08825 2.87462Q3.07989 2.88596 3.04706 2.91462Q3.01481 2.94268 2.97601 2.96418Q2.93779 2.98567 2.86913 3.00299Q2.80107 3.0203 2.72345 3.0203Q2.52165 3.0203 2.41358 2.91223ZM3.68686 3L4.09465 2.36832L3.72746 1.77723L4.31854 1.77723L4.46124 2.14382L4.60394 1.77723L5.19502 1.77723L4.82783 2.36832L5.23562 3L4.62424 3L4.46124 2.63341L4.29824 3L3.68686 3Z" fill="#EBEBEB" fill-opacity="1.000000" transform="matrix(1 0 0 1 44.6082 48.6905)"/><path d="M0.122396 3L0.122396 1.77723L0.693181 1.77723L0.693181 3L0.122396 3ZM0.162996 1.65483L0.162996 1.28824L0.651984 1.28824L0.651984 1.65483L0.162996 1.65483ZM0.914627 3L0.914627 1.77723L1.44421 1.77723L1.44421 1.98501Q1.58273 1.75693 1.852 1.75693Q2.05381 1.75693 2.1768 1.88112Q2.30039 2.00531 2.30039 2.22562L2.30039 3L1.72961 3L1.72961 2.34802Q1.72961 2.25846 1.70513 2.22204Q1.68065 2.18502 1.62751 2.18502Q1.5278 2.18502 1.48481 2.32115L1.48481 3L0.914627 3ZM2.44771 2.10322L2.44771 1.77723L2.61071 1.77723L2.61071 1.67513Q2.61071 1.45303 2.74922 1.34019Q2.88834 1.22675 3.10029 1.22675Q3.21433 1.22675 3.31702 1.25541Q3.42031 1.28406 3.46091 1.30675Q3.50151 1.32884 3.52778 1.34914L3.38568 1.63454Q3.31225 1.59394 3.24299 1.59394Q3.12059 1.59394 3.12059 1.71633L3.12059 1.77723L3.40598 1.77723L3.40598 2.10322L3.14089 2.10322L3.14089 3L2.59041 3L2.59041 2.10322L2.44771 2.10322Z" fill="#EBEBEB" fill-opacity="1.000000" transform="matrix(1 0 0 1 41.1312 48.6905)"/><path d="M0.1079 0L0.51792 0C0.529838 0 0.5395 0.00966169 0.5395 0.02158L0.5395 0.4316C0.5395 0.491191 0.491191 0.5395 0.4316 0.5395L0.1079 0.5395C0.0483084 0.5395 0 0.491191 0 0.4316L0 0.1079C0 0.0483084 0.0483084 0 0.1079 0L0.1079 0Z" fill="#EB512E" fill-opacity="1.000000" transform="matrix(1 0 0 1 41.2762 49.4249)"/><path d="M0.1079 0L0.51792 0C0.529838 0 0.5395 0.00966169 0.5395 0.02158L0.5395 0.4316C0.5395 0.491191 0.491191 0.5395 0.4316 0.5395L0.1079 0.5395C0.0483084 0.5395 0 0.491191 0 0.4316L0 0.1079C0 0.0483084 0.0483084 0 0.1079 0L0.1079 0Z" fill="none" stroke="#F94737" stroke-opacity="1.000000" stroke-width="2" stroke-dasharray="0 0" transform="matrix(1 0 0 1 41.2762 49.4249)"/><path d="M0.1079 0L0.51792 0C0.529838 0 0.5395 0.00966169 0.5395 0.02158L0.5395 0.4316C0.5395 0.491191 0.491191 0.5395 0.4316 0.5395L0.1079 0.5395C0.0483084 0.5395 0 0.491191 0 0.4316L0 0.1079C0 0.0483084 0.0483084 0 0.1079 0L0.1079 0Z" fill="#EB512E" fill-opacity="1.000000" transform="matrix(1 0 0 1 41.2762 49.4249)"/><path d="M0.1079 0L0.51792 0C0.529838 0 0.5395 0.00966169 0.5395 0.02158L0.5395 0.4316C0.5395 0.491191 0.491191 0.5395 0.4316 0.5395L0.1079 0.5395C0.0483084 0.5395 0 0.491191 0 0.4316L0 0.1079C0 0.0483084 0.0483084 0 0.1079 0L0.1079 0Z" fill="none" stroke="#F94737" stroke-opacity="1.000000" stroke-width="2" stroke-dasharray="0 0" transform="matrix(1 0 0 1 41.2762 49.4249)"/><path d="M0.0500488 0.620117C0.0500488 0.868896 0.250977 1.07007 0.5 1.07007C0.749023 1.07007 0.949951 0.868896 0.949951 0.620117C0.949951 0.371094 0.749023 0.169922 0.5 0.169922C0.250977 0.169922 0.0500488 0.371094 0.0500488 0.620117ZM0.913086 0.620117C0.913086 0.8479 0.728027 1.03296 0.5 1.03296C0.271973 1.03296 0.0869141 0.8479 0.0869141 0.620117C0.0869141 0.39209 0.271973 0.207031 0.5 0.207031C0.728027 0.207031 0.913086 0.39209 0.913086 0.620117ZM0.204102 0.620117C0.204102 0.783936 0.335938 0.916016 0.5 0.916016C0.664062 0.916016 0.795898 0.783936 0.795898 0.620117C0.795898 0.456055 0.664062 0.323975 0.5 0.323975C0.335938 0.323975 0.204102 0.456055 0.204102 0.620117Z" fill="#D81918" fill-opacity="1.000000" transform="matrix(0.989899 0.141776 -0.141718 0.989907 50.4141 50.0514)"/><path d="M1.39764 0.698818C1.39764 1.08477 1.08477 1.39764 0.69882 1.39764C0.312872 1.39764 0 1.08477 0 0.698818C0 0.312872 0.312872 0 0.69882 0L0.699053 0.349526C0.506015 0.349526 0.349527 0.506014 0.349527 0.699052C0.349527 0.89209 0.506015 1.04858 0.699053 1.04858C0.892092 1.04858 1.04858 0.89209 1.04858 0.699052L1.39764 0.698818L1.39764 0.698818Z" fill="#8A8A8A" fill-opacity="1.000000" transform="matrix(0.793377 0.608731 -0.608734 0.793374 50.4321 49.5963)"/><path d="M1.39764 0.698818C1.39764 1.08477 1.08477 1.39764 0.69882 1.39764C0.312872 1.39764 0 1.08477 0 0.698818C0 0.312872 0.312872 0 0.69882 0L0.699053 0.349526C0.506015 0.349526 0.349527 0.506014 0.349527 0.699052C0.349527 0.89209 0.506015 1.04858 0.699053 1.04858C0.892092 1.04858 1.04858 0.89209 1.04858 0.699052L1.39764 0.698818L1.39764 0.698818Z" fill="#8A8A8A" fill-opacity="1.000000" transform="matrix(0.793377 0.608731 -0.608734 0.793374 50.4321 49.5963)"/><path d="M1.39764 0.698818C1.39764 1.08476 1.08477 1.39764 0.698819 1.39764C0.312872 1.39764 0 1.08476 0 0.698818C0 0.312871 0.312872 0 0.698819 0L0.699053 0.349526C0.506015 0.349526 0.349526 0.506014 0.349526 0.699051C0.349526 0.892089 0.506015 1.04858 0.699053 1.04858C0.892091 1.04858 1.04858 0.892089 1.04858 0.699051L1.39764 0.698818L1.39764 0.698818Z" fill="#8A8A8A" fill-opacity="1.000000" transform="matrix(0.920719 -0.390226 0.39022 0.920722 49.6533 50.199)"/><path d="M1.39764 0.698818C1.39764 1.08476 1.08477 1.39764 0.698819 1.39764C0.312872 1.39764 0 1.08476 0 0.698818C0 0.312871 0.312872 0 0.698819 0L0.699053 0.349526C0.506015 0.349526 0.349526 0.506014 0.349526 0.699051C0.349526 0.892089 0.506015 1.04858 0.699053 1.04858C0.892091 1.04858 1.04858 0.892089 1.04858 0.699051L1.39764 0.698818L1.39764 0.698818Z" fill="#8A8A8A" fill-opacity="1.000000" transform="matrix(0.920719 -0.390226 0.39022 0.920722 49.6533 50.199)"/></svg>