<svg xmlns="http://www.w3.org/2000/svg" xmlns:xlink="http://www.w3.org/1999/xlink" width="97.805389" height="81.859695" viewBox="0 0 97.8054 81.8597"><path d="M0.929693 23L0.929693 11.8654L5.75213 11.8654L5.75213 13.4802Q6.99716 11.6806 9.09576 11.6806Q11.5804 11.6806 12.4503 13.7411Q13.7116 11.6806 15.957 11.6806Q17.6478 11.6806 18.6591 12.7299Q19.6703 13.7792 19.6703 15.7636L19.6703 23L14.663 23L14.663 16.8782Q14.663 16.0572 14.4728 15.7256Q14.2879 15.3939 13.9182 15.3939Q13.5268 15.3939 13.2875 15.6712Q13.0483 15.9485 12.8037 16.5248L12.8037 23L7.79637 23L7.79637 16.8782Q7.79637 16.0572 7.60608 15.7256Q7.42123 15.3939 7.05153 15.3939Q6.66008 15.3939 6.42086 15.6712Q6.18164 15.9485 5.93698 16.5248L5.93698 23L0.929693 23ZM26.3203 18.9659Q26.0702 19.1942 26.0702 19.6618Q26.0702 20.1239 26.3203 20.3577Q26.5704 20.5861 26.9075 20.5861Q27.462 20.5861 27.9242 20.1783L27.9242 19.1399Q27.462 18.7321 26.9075 18.7321Q26.5704 18.7321 26.3203 18.9659ZM22.0415 22.2008Q21.0575 21.2167 21.0575 19.6618Q21.0575 18.1014 22.0415 17.1174Q23.0256 16.1333 24.8632 16.1333Q26.8314 16.1333 27.9242 17.1935L27.9242 16.3182Q27.9242 15.5027 27.4131 15.171Q26.9075 14.8339 25.7929 14.8339Q24.4011 14.8339 22.3569 15.5788L21.2478 12.7951Q21.487 12.6429 21.9328 12.4309Q22.3786 12.2188 23.9009 11.86Q25.4232 11.4957 27.0923 11.4957Q32.9369 11.4957 32.9369 16.1333L32.9369 23L28.2993 23L28.2993 21.7006Q28.2612 21.755 28.1851 21.8583Q28.109 21.9616 27.81 22.2225Q27.5164 22.4781 27.163 22.6738Q26.8151 22.8695 26.1898 23.0272Q25.57 23.1849 24.8632 23.1849Q23.0256 23.1849 22.0415 22.2008ZM33.6768 23L37.3901 17.2479L34.0465 11.8654L39.4289 11.8654L40.7283 15.2036L42.0277 11.8654L47.4101 11.8654L44.0665 17.2479L47.7798 23L42.2125 23L40.7283 19.6618L39.244 23L33.6768 23Z" fill="#EBEBEB" fill-opacity="1.000000" transform="matrix(1 0 0 1 16.2611 38.2474)"/><path d="M1.11454 23L1.11454 11.8654L6.31212 11.8654L6.31212 23L1.11454 23ZM1.48425 10.7509L1.48425 7.4127L5.93698 7.4127L5.93698 10.7509L1.48425 10.7509ZM8.35157 23L8.35157 11.8654L13.174 11.8654L13.174 13.7574Q14.4353 11.6806 16.8873 11.6806Q18.725 11.6806 19.845 12.8114Q20.9704 13.9423 20.9704 15.9485L20.9704 23L15.7728 23L15.7728 17.063Q15.7728 16.2475 15.5499 15.9159Q15.327 15.5788 14.8431 15.5788Q13.9352 15.5788 13.5437 16.8184L13.5437 23L8.35157 23ZM22.3563 14.8339L22.3563 11.8654L23.8406 11.8654L23.8406 10.9357Q23.8406 8.91325 25.1019 7.8857Q26.3687 6.85271 28.2987 6.85271Q29.3372 6.85271 30.2723 7.11367Q31.2129 7.37464 31.5826 7.58124Q31.9523 7.7824 32.1915 7.96725L30.8975 10.566Q30.2288 10.1963 29.5981 10.1963Q28.4836 10.1963 28.4836 11.3109L28.4836 11.8654L31.0824 11.8654L31.0824 14.8339L28.6684 14.8339L28.6684 23L23.6557 23L23.6557 14.8339L22.3563 14.8339Z" fill="#EBEBEB" fill-opacity="1.000000" transform="matrix(1 0 0 1 16.1524 24.0687)"/><path d="M0.982539 0L4.71619 0C4.82472 0 4.9127 0.0879796 4.9127 0.196508L4.9127 3.93016C4.9127 4.4728 4.4728 4.9127 3.93016 4.9127L0.982539 4.9127C0.439898 4.9127 0 4.4728 0 3.93016L0 0.982539C0 0.439898 0.439898 0 0.982539 0L0.982539 0Z" fill="#EB512E" fill-opacity="1.000000" transform="matrix(1 0 0 1 17.3491 30.7562)"/><path d="M0.982539 0L4.71619 0C4.82472 0 4.9127 0.0879796 4.9127 0.196508L4.9127 3.93016C4.9127 4.4728 4.4728 4.9127 3.93016 4.9127L0.982539 4.9127C0.439898 4.9127 0 4.4728 0 3.93016L0 0.982539C0 0.439898 0.439898 0 0.982539 0L0.982539 0Z" fill="none" stroke="#F94737" stroke-opacity="1.000000" stroke-width="2" stroke-dasharray="0 0" transform="matrix(1 0 0 1 17.3491 30.7562)"/><path d="M0.982539 0L4.71619 0C4.82472 0 4.9127 0.0879796 4.9127 0.196508L4.9127 3.93016C4.9127 4.4728 4.4728 4.9127 3.93016 4.9127L0.982539 4.9127C0.439898 4.9127 0 4.4728 0 3.93016L0 0.982539C0 0.439898 0.439898 0 0.982539 0L0.982539 0Z" fill="#EB512E" fill-opacity="1.000000" transform="matrix(1 0 0 1 17.3491 30.7562)"/><path d="M0.982539 0L4.71619 0C4.82472 0 4.9127 0.0879796 4.9127 0.196508L4.9127 3.93016C4.9127 4.4728 4.4728 4.9127 3.93016 4.9127L0.982539 4.9127C0.439898 4.9127 0 4.4728 0 3.93016L0 0.982539C0 0.439898 0.439898 0 0.982539 0L0.982539 0Z" fill="none" stroke="#F94737" stroke-opacity="1.000000" stroke-width="2" stroke-dasharray="0 0" transform="matrix(1 0 0 1 17.3491 30.7562)"/><path d="M0.276359 3.90237C0.276359 5.27607 1.38584 6.3869 2.7609 6.3869C4.13595 6.3869 5.24543 5.27607 5.24543 3.90237C5.24543 2.52731 4.13595 1.41648 2.7609 1.41648C1.38584 1.41648 0.276359 2.52731 0.276359 3.90237ZM5.04187 3.90237C5.04187 5.16014 4.02002 6.18199 2.7609 6.18199C1.50178 6.18199 0.479921 5.16014 0.479921 3.90237C0.479921 2.64325 1.50178 1.62139 2.7609 1.62139C4.02002 1.62139 5.04187 2.64325 5.04187 3.90237ZM1.12701 3.90237C1.12701 4.80694 1.85498 5.53626 2.7609 5.53626C3.66682 5.53626 4.39479 4.80694 4.39479 3.90237C4.39479 2.99645 3.66682 2.26713 2.7609 2.26713C1.85498 2.26713 1.12701 2.99645 1.12701 3.90237Z" fill="#D81918" fill-opacity="1.000000" transform="matrix(0.989899 0.141777 -0.141777 0.989899 54.8682 36.259)"/><path d="M12.7269 6.36346C12.7269 9.8779 9.87791 12.7269 6.36346 12.7269C2.84902 12.7269 0 9.8779 0 6.36346C0 2.84902 2.84902 0 6.36346 0L6.36559 3.18279C4.60778 3.18279 3.1828 4.60778 3.1828 6.36558C3.1828 8.12339 4.60778 9.54838 6.36559 9.54838C8.1234 9.54838 9.54839 8.12339 9.54839 6.36558L12.7269 6.36346L12.7269 6.36346Z" fill="#8A8A8A" fill-opacity="1.000000" transform="matrix(0.793376 0.608732 -0.608734 0.793374 55.7739 31.9135)"/><path d="M12.7269 6.36346C12.7269 9.8779 9.87791 12.7269 6.36346 12.7269C2.84902 12.7269 0 9.8779 0 6.36346C0 2.84902 2.84902 0 6.36346 0L6.36559 3.18279C4.60778 3.18279 3.1828 4.60778 3.1828 6.36558C3.1828 8.12339 4.60778 9.54838 6.36559 9.54838C8.1234 9.54838 9.54839 8.12339 9.54839 6.36558L12.7269 6.36346L12.7269 6.36346Z" fill="#8A8A8A" fill-opacity="1.000000" transform="matrix(0.793376 0.608732 -0.608734 0.793374 55.7739 31.9135)"/><path d="M12.7269 6.36345C12.7269 9.87789 9.87792 12.7269 6.36347 12.7269C2.84902 12.7269 0 9.87789 0 6.36345C0 2.84901 2.84902 0 6.36347 0L6.3656 3.18279C4.60779 3.18279 3.1828 4.60777 3.1828 6.36558C3.1828 8.12339 4.60779 9.54837 6.3656 9.54837C8.12341 9.54837 9.5484 8.12339 9.5484 6.36558L12.7269 6.36345L12.7269 6.36345Z" fill="#8A8A8A" fill-opacity="1.000000" transform="matrix(0.920719 -0.390226 0.390224 0.92072 48.6819 37.4016)"/><path d="M12.7269 6.36345C12.7269 9.87789 9.87792 12.7269 6.36347 12.7269C2.84902 12.7269 0 9.87789 0 6.36345C0 2.84901 2.84902 0 6.36347 0L6.3656 3.18279C4.60779 3.18279 3.1828 4.60777 3.1828 6.36558C3.1828 8.12339 4.60779 9.54837 6.3656 9.54837C8.12341 9.54837 9.5484 8.12339 9.5484 6.36558L12.7269 6.36345L12.7269 6.36345Z" fill="#8A8A8A" fill-opacity="1.000000" transform="matrix(0.920719 -0.390226 0.390224 0.92072 48.6819 37.4016)"/></svg>