<svg xmlns="http://www.w3.org/2000/svg" xmlns:xlink="http://www.w3.org/1999/xlink" width="102.783478" height="102.783768" viewBox="0 0 102.783 102.784"><path d="M0.193674 5L0.193674 2.68044L1.19829 2.68044L1.19829 3.01682Q1.45765 2.64193 1.89484 2.64193Q2.41243 2.64193 2.59365 3.07119Q2.85641 2.64193 3.32417 2.64193Q3.67641 2.64193 3.88707 2.86052Q4.09774 3.07911 4.09774 3.49251L4.09774 5L3.05462 5L3.05462 3.7247Q3.05462 3.55367 3.01497 3.48458Q2.97647 3.4155 2.89945 3.4155Q2.8179 3.4155 2.76807 3.47326Q2.71823 3.53102 2.66727 3.65108L2.66727 5L1.62414 5L1.62414 3.7247Q1.62414 3.55367 1.5845 3.48458Q1.546 3.4155 1.46898 3.4155Q1.38743 3.4155 1.3376 3.47326Q1.28776 3.53102 1.2368 3.65108L1.2368 5L0.193674 5ZM5.47085 4.15961Q5.41875 4.20718 5.41875 4.30458Q5.41875 4.40086 5.47085 4.44956Q5.52295 4.49713 5.59317 4.49713Q5.7087 4.49713 5.80497 4.41218L5.80497 4.19586Q5.7087 4.11091 5.59317 4.11091Q5.52295 4.11091 5.47085 4.15961ZM4.5795 4.83351Q4.3745 4.62851 4.3745 4.30458Q4.3745 3.97953 4.5795 3.77453Q4.7845 3.56953 5.16732 3.56953Q5.57732 3.56953 5.80497 3.79039L5.80497 3.60804Q5.80497 3.43815 5.6985 3.36906Q5.59317 3.29884 5.36099 3.29884Q5.07104 3.29884 4.64519 3.454L4.41414 2.87411Q4.46397 2.8424 4.55685 2.79823Q4.64972 2.75406 4.96685 2.67931Q5.28397 2.60342 5.63168 2.60342Q6.84922 2.60342 6.84922 3.56953L6.84922 5L5.88312 5L5.88312 4.72931Q5.87519 4.74063 5.85933 4.76215Q5.84348 4.78367 5.78118 4.83804Q5.72002 4.89127 5.6464 4.93204Q5.57392 4.97282 5.44367 5.00566Q5.31455 5.03851 5.16732 5.03851Q4.7845 5.03851 4.5795 4.83351ZM6.99551 5L7.76908 3.80171L7.07253 2.68044L8.1938 2.68044L8.46449 3.37585L8.73518 2.68044L9.85645 2.68044L9.15991 3.80171L9.93347 5L8.77369 5L8.46449 4.30458L8.15529 5L6.99551 5Z" fill="#EBEBEB" fill-opacity="1.000000" transform="matrix(1 0 0 1 40.0829 47.8267)"/><path d="M0.232183 5L0.232183 2.68044L1.31495 2.68044L1.31495 5L0.232183 5ZM0.309199 2.44826L0.309199 1.75284L1.2368 1.75284L1.2368 2.44826L0.309199 2.44826ZM1.73539 5L1.73539 2.68044L2.74001 2.68044L2.74001 3.07458Q3.00277 2.64193 3.51357 2.64193Q3.89639 2.64193 4.1297 2.87751Q4.36415 3.11309 4.36415 3.53102L4.36415 5L3.28139 5L3.28139 3.7632Q3.28139 3.59331 3.23495 3.52423Q3.18851 3.454 3.08771 3.454Q2.89857 3.454 2.81702 3.71224L2.81702 5L1.73539 5ZM4.6443 3.29884L4.6443 2.68044L4.9535 2.68044L4.9535 2.48677Q4.9535 2.06544 5.21626 1.85138Q5.48016 1.63618 5.88223 1.63618Q6.09856 1.63618 6.29337 1.69055Q6.4893 1.74491 6.56632 1.78795Q6.64334 1.82986 6.69317 1.86837L6.42361 2.40975Q6.2843 2.33273 6.15292 2.33273Q5.92074 2.33273 5.92074 2.56491L5.92074 2.68044L6.46212 2.68044L6.46212 3.29884L5.95925 3.29884L5.95925 5L4.91499 5L4.91499 3.29884L4.6443 3.29884Z" fill="#EBEBEB" fill-opacity="1.000000" transform="matrix(1 0 0 1 33.4872 47.8267)"/><path d="M0.204683 0L0.98248 0C1.00509 0 1.02342 0.018328 1.02342 0.0409367L1.02342 0.818733C1.02342 0.931777 0.931777 1.02342 0.818733 1.02342L0.204683 1.02342C0.0916398 1.02342 0 0.931777 0 0.818733L0 0.204683C0 0.0916398 0.0916398 0 0.204683 0L0.204683 0Z" fill="#EB512E" fill-opacity="1.000000" transform="matrix(1 0 0 1 33.7623 49.2199)"/><path d="M0.204683 0L0.98248 0C1.00509 0 1.02342 0.018328 1.02342 0.0409367L1.02342 0.818733C1.02342 0.931777 0.931777 1.02342 0.818733 1.02342L0.204683 1.02342C0.0916398 1.02342 0 0.931777 0 0.818733L0 0.204683C0 0.0916398 0.0916398 0 0.204683 0L0.204683 0Z" fill="none" stroke="#F94737" stroke-opacity="1.000000" stroke-width="2" stroke-dasharray="0 0" transform="matrix(1 0 0 1 33.7623 49.2199)"/><path d="M0.204683 0L0.98248 0C1.00509 0 1.02342 0.018328 1.02342 0.0409367L1.02342 0.818733C1.02342 0.931777 0.931777 1.02342 0.818733 1.02342L0.204683 1.02342C0.0916398 1.02342 0 0.931777 0 0.818733L0 0.204683C0 0.0916398 0.0916398 0 0.204683 0L0.204683 0Z" fill="#EB512E" fill-opacity="1.000000" transform="matrix(1 0 0 1 33.7623 49.2199)"/><path d="M0.204683 0L0.98248 0C1.00509 0 1.02342 0.018328 1.02342 0.0409367L1.02342 0.818733C1.02342 0.931777 0.931777 1.02342 0.818733 1.02342L0.204683 1.02342C0.0916398 1.02342 0 0.931777 0 0.818733L0 0.204683C0 0.0916398 0.0916398 0 0.204683 0L0.204683 0Z" fill="none" stroke="#F94737" stroke-opacity="1.000000" stroke-width="2" stroke-dasharray="0 0" transform="matrix(1 0 0 1 33.7623 49.2199)"/><path d="M0.0575708 0.563024C0.0575708 0.849193 0.288696 1.0806 0.575146 1.0806C0.861596 1.0806 1.09272 0.849193 1.09272 0.563024C1.09272 0.276574 0.861596 0.0451674 0.575146 0.0451674C0.288696 0.0451674 0.0575708 0.276574 0.0575708 0.563024ZM1.05032 0.563024C1.05032 0.825041 0.837444 1.03791 0.575146 1.03791C0.312848 1.03791 0.0999766 0.825041 0.0999766 0.563024C0.0999766 0.300726 0.312848 0.0878541 0.575146 0.0878541C0.837444 0.0878541 1.05032 0.300726 1.05032 0.563024ZM0.234776 0.563024C0.234776 0.751463 0.386426 0.903393 0.575146 0.903393C0.763866 0.903393 0.915516 0.751463 0.915516 0.563024C0.915516 0.374304 0.763866 0.222373 0.575146 0.222373C0.386426 0.222373 0.234776 0.374304 0.234776 0.563024Z" fill="#D81918" fill-opacity="1.000000" transform="matrix(0.989899 0.141776 -0.141718 0.989907 50.9692 50.3988)"/><path d="M2.65129 1.32564C2.65129 2.05777 2.05778 2.65128 1.32564 2.65128C0.59351 2.65128 0 2.05777 0 1.32564C0 0.593509 0.59351 0 1.32564 0L1.32609 0.663042C0.959897 0.663042 0.663043 0.959896 0.663043 1.32608C0.663043 1.69227 0.959897 1.98913 1.32609 1.98913C1.69227 1.98913 1.98913 1.69227 1.98913 1.32608L2.65129 1.32564L2.65129 1.32564Z" fill="#8A8A8A" fill-opacity="1.000000" transform="matrix(0.793377 0.608731 -0.608734 0.793374 51.1306 49.5451)"/><path d="M2.65129 1.32564C2.65129 2.05777 2.05778 2.65128 1.32564 2.65128C0.59351 2.65128 0 2.05777 0 1.32564C0 0.593509 0.59351 0 1.32564 0L1.32609 0.663042C0.959897 0.663042 0.663043 0.959896 0.663043 1.32608C0.663043 1.69227 0.959897 1.98913 1.32609 1.98913C1.69227 1.98913 1.98913 1.69227 1.98913 1.32608L2.65129 1.32564L2.65129 1.32564Z" fill="#8A8A8A" fill-opacity="1.000000" transform="matrix(0.793377 0.608731 -0.608734 0.793374 51.1306 49.5451)"/><path d="M2.65128 1.32564C2.65128 2.05777 2.05777 2.65128 1.32564 2.65128C0.59351 2.65128 0 2.05777 0 1.32564C0 0.593509 0.59351 0 1.32564 0L1.32608 0.663041C0.959897 0.663041 0.663042 0.959894 0.663042 1.32608C0.663042 1.69227 0.959897 1.98912 1.32608 1.98912C1.69227 1.98912 1.98913 1.69227 1.98913 1.32608L2.65128 1.32564L2.65128 1.32564Z" fill="#8A8A8A" fill-opacity="1.000000" transform="matrix(0.920719 -0.390226 0.39022 0.920722 49.6533 50.6884)"/><path d="M2.65128 1.32564C2.65128 2.05777 2.05777 2.65128 1.32564 2.65128C0.59351 2.65128 0 2.05777 0 1.32564C0 0.593509 0.59351 0 1.32564 0L1.32608 0.663041C0.959897 0.663041 0.663042 0.959894 0.663042 1.32608C0.663042 1.69227 0.959897 1.98912 1.32608 1.98912C1.69227 1.98912 1.98913 1.69227 1.98913 1.32608L2.65128 1.32564L2.65128 1.32564Z" fill="#8A8A8A" fill-opacity="1.000000" transform="matrix(0.920719 -0.390226 0.39022 0.920722 49.6533 50.6884)"/></svg>