<svg xmlns="http://www.w3.org/2000/svg" xmlns:xlink="http://www.w3.org/1999/xlink" width="201.220795" height="164.188736" viewBox="0 0 201.221 164.189"><path d="M2.80379 69L2.80379 35.4201L17.3475 35.4201L17.3475 40.2898Q21.1022 34.8626 27.4313 34.8626Q34.9245 34.8626 37.5479 41.0768Q41.3519 34.8626 48.1236 34.8626Q53.2229 34.8626 56.2726 38.0271Q59.3224 41.1916 59.3224 47.1763L59.3224 69L44.2212 69L44.2212 50.5376Q44.2212 48.0617 43.6474 47.0615Q43.0899 46.0614 41.9749 46.0614Q40.7944 46.0614 40.0729 46.8976Q39.3515 47.7338 38.6137 49.4718L38.6137 69L23.5125 69L23.5125 50.5376Q23.5125 48.0617 22.9386 47.0615Q22.3812 46.0614 21.2662 46.0614Q20.0857 46.0614 19.3642 46.8976Q18.6428 47.7338 17.9049 49.4718L17.9049 69L2.80379 69ZM79.3839 56.8338Q78.6297 57.5225 78.6297 58.9326Q78.6297 60.3263 79.3839 61.0313Q80.1381 61.72 81.1547 61.72Q82.8272 61.72 84.2209 60.4902L84.2209 57.3585Q82.8272 56.1288 81.1547 56.1288Q80.1381 56.1288 79.3839 56.8338ZM66.4799 66.5897Q63.5121 63.622 63.5121 58.9326Q63.5121 54.2268 66.4799 51.259Q69.4476 48.2913 74.9897 48.2913Q80.9252 48.2913 84.2209 51.4886L84.2209 48.8488Q84.2209 46.3893 82.6796 45.3891Q81.1547 44.3725 77.7934 44.3725Q73.596 44.3725 67.4309 46.6188L64.086 38.2238Q64.8074 37.7647 66.152 37.1253Q67.4965 36.4858 72.0875 35.4037Q76.6785 34.3051 81.7122 34.3051Q99.3384 34.3051 99.3384 48.2913L99.3384 69L85.3522 69L85.3522 65.0812Q85.2374 65.2452 85.0079 65.5567Q84.7783 65.8683 83.8765 66.6553Q82.9911 67.4259 81.9254 68.0162Q80.876 68.6065 78.9904 69.082Q77.1212 69.5575 74.9897 69.5575Q69.4476 69.5575 66.4799 66.5897ZM101.574 69L112.773 51.6525L102.689 35.4201L118.921 35.4201L122.84 45.4875L126.759 35.4201L142.991 35.4201L132.907 51.6525L144.106 69L127.316 69L122.84 58.9326L118.364 69L101.574 69Z" fill="#EBEBEB" fill-opacity="1.000000" transform="matrix(1 0 0 1 8.49527 62.1492)"/><path d="M3.36127 69L3.36127 35.42L19.0363 35.42L19.0363 69L3.36127 69ZM4.47623 32.0588L4.47623 21.9913L17.9049 21.9913L17.9049 32.0588L4.47623 32.0588ZM25.1892 69L25.1892 35.42L39.7329 35.42L39.7329 41.126Q43.5368 34.8626 50.9316 34.8626Q56.4736 34.8626 59.8513 38.273Q63.2454 41.6835 63.2454 47.7338L63.2454 69L47.5704 69L47.5704 51.0951Q47.5704 48.6356 46.8981 47.6354Q46.2259 46.6188 44.7666 46.6188Q42.0284 46.6188 40.8478 50.3572L40.8478 69L25.1892 69ZM67.4296 44.3725L67.4296 35.42L71.9058 35.42L71.9058 32.6163Q71.9058 26.5168 75.7098 23.4178Q79.5302 20.3025 85.3509 20.3025Q88.4826 20.3025 91.3028 21.0895Q94.1394 21.8766 95.2544 22.4996Q96.3693 23.1063 97.0908 23.6638L93.1884 31.5013Q91.1716 30.3863 89.2697 30.3863Q85.9084 30.3863 85.9084 33.7476L85.9084 35.42L93.7459 35.42L93.7459 44.3725L86.4659 44.3725L86.4659 69L71.3483 69L71.3483 44.3725L67.4296 44.3725Z" fill="#EBEBEB" fill-opacity="1.000000" transform="matrix(1 0 0 1 8.16727 19.3885)"/><path d="M2.96317 0L14.2232 0C14.5505 0 14.8159 0.265331 14.8159 0.592634L14.8159 11.8527C14.8159 13.4892 13.4892 14.8159 11.8527 14.8159L2.96317 14.8159C1.32666 14.8159 0 13.4892 0 11.8527L0 2.96317C0 1.32666 1.32666 0 2.96317 0L2.96317 0Z" fill="#EB512E" fill-opacity="1.000000" transform="matrix(1 0 0 1 11.7764 39.5569)"/><path d="M2.96317 0L14.2232 0C14.5505 0 14.8159 0.265331 14.8159 0.592634L14.8159 11.8527C14.8159 13.4892 13.4892 14.8159 11.8527 14.8159L2.96317 14.8159C1.32666 14.8159 0 13.4892 0 11.8527L0 2.96317C0 1.32666 1.32666 0 2.96317 0L2.96317 0Z" fill="none" stroke="#F94737" stroke-opacity="1.000000" stroke-width="2" stroke-dasharray="0 0" transform="matrix(1 0 0 1 11.7764 39.5569)"/><path d="M0.833453 12.6739C0.833453 16.8168 4.17946 20.1668 8.3264 20.1668C12.4733 20.1668 15.8194 16.8168 15.8194 12.6739C15.8194 8.52695 12.4733 5.17687 8.3264 5.17687C4.17946 5.17687 0.833453 8.52695 0.833453 12.6739ZM15.2054 12.6739C15.2054 16.4671 12.1237 19.5489 8.3264 19.5489C4.52911 19.5489 1.44736 16.4671 1.44736 12.6739C1.44736 8.87659 4.52911 5.79485 8.3264 5.79485C12.1237 5.79485 15.2054 8.87659 15.2054 12.6739ZM3.39886 12.6739C3.39886 15.4019 5.5943 17.6014 8.3264 17.6014C11.0585 17.6014 13.2539 15.4019 13.2539 12.6739C13.2539 9.94179 11.0585 7.74228 8.3264 7.74228C5.5943 7.74228 3.39886 9.94179 3.39886 12.6739Z" fill="#D81918" fill-opacity="1.000000" transform="matrix(0.989899 0.141777 -0.141782 0.989898 124.987 56.201)"/><path d="M38.3822 19.1911C38.3822 29.7901 29.7901 38.3822 19.1911 38.3822C8.59215 38.3822 0 29.7901 0 19.1911C0 8.59215 8.59215 0 19.1911 0L19.1975 9.59876C13.8963 9.59876 9.59876 13.8963 9.59876 19.1975C9.59876 24.4988 13.8963 28.7963 19.1975 28.7963C24.4988 28.7963 28.7963 24.4988 28.7963 19.1975L38.3822 19.1911L38.3822 19.1911Z" fill="#8A8A8A" fill-opacity="1.000000" transform="matrix(0.793376 0.608732 -0.608734 0.793374 127.659 43.0471)"/><path d="M38.3823 19.1911C38.3823 29.79 29.7901 38.3822 19.1911 38.3822C8.59216 38.3822 0 29.79 0 19.1911C0 8.59214 8.59216 0 19.1911 0L19.1975 9.59875C13.8963 9.59875 9.59877 13.8963 9.59877 19.1975C9.59877 24.4987 13.8963 28.7963 19.1975 28.7963C24.4988 28.7963 28.7963 24.4987 28.7963 19.1975L38.3823 19.1911L38.3823 19.1911Z" fill="#8A8A8A" fill-opacity="1.000000" transform="matrix(0.920719 -0.390226 0.390226 0.920719 106.271 59.5987)"/></svg>