<svg xmlns="http://www.w3.org/2000/svg" xmlns:xlink="http://www.w3.org/1999/xlink" width="269.160645" height="134.984299" viewBox="0 0 269.161 134.984"><path d="M1.95973 49L1.95973 25.529L12.1251 25.529L12.1251 28.9328Q14.7496 25.1394 19.1733 25.1394Q24.4107 25.1394 26.2444 29.4829Q28.9032 25.1394 33.6364 25.1394Q37.2005 25.1394 39.3322 27.3513Q41.4638 29.5631 41.4638 33.7462L41.4638 49L30.9088 49L30.9088 36.0956Q30.9088 34.365 30.5077 33.666Q30.118 32.9669 29.3387 32.9669Q28.5135 32.9669 28.0093 33.5513Q27.505 34.1358 26.9893 35.3506L26.9893 49L16.4343 49L16.4343 36.0956Q16.4343 34.365 16.0331 33.666Q15.6435 32.9669 14.8642 32.9669Q14.039 32.9669 13.5348 33.5513Q13.0305 34.1358 12.5148 35.3506L12.5148 49L1.95973 49ZM55.4842 40.4964Q54.957 40.9777 54.957 41.9633Q54.957 42.9374 55.4842 43.4302Q56.0113 43.9116 56.7219 43.9116Q57.8908 43.9116 58.865 43.052L58.865 40.8631Q57.8908 40.0036 56.7219 40.0036Q56.0113 40.0036 55.4842 40.4964ZM46.4648 47.3153Q44.3905 45.241 44.3905 41.9633Q44.3905 38.6742 46.4648 36.5998Q48.5391 34.5255 52.4128 34.5255Q56.5614 34.5255 58.865 36.7603L58.865 34.9151Q58.865 33.1961 57.7877 32.497Q56.7219 31.7864 54.3725 31.7864Q51.4386 31.7864 47.1295 33.3565L44.7916 27.4888Q45.2958 27.1679 46.2356 26.7209Q47.1753 26.274 50.3843 25.5176Q53.5932 24.7497 57.1115 24.7497Q69.4315 24.7497 69.4315 34.5255L69.4315 49L59.6557 49L59.6557 46.261Q59.5755 46.3756 59.4151 46.5933Q59.2546 46.8111 58.6243 47.3612Q58.0054 47.8998 57.2605 48.3124Q56.5271 48.7249 55.2091 49.0573Q53.9026 49.3897 52.4128 49.3897Q48.5391 49.3897 46.4648 47.3153ZM70.9928 49L78.8202 36.8749L71.7721 25.529L83.1179 25.529L85.8569 32.5658L88.596 25.529L99.9418 25.529L92.8936 36.8749L100.721 49L88.9856 49L85.8569 41.9633L82.7282 49L70.9928 49Z" fill="#EBEBEB" fill-opacity="1.000000" transform="matrix(1 0 0 1 87.238 31.4172)"/><path d="M2.34939 49L2.34939 25.529L13.3056 25.529L13.3056 49L2.34939 49ZM3.1287 23.1797L3.1287 16.143L12.5148 16.143L12.5148 23.1797L3.1287 23.1797ZM17.6055 49L17.6055 25.529L27.7709 25.529L27.7709 29.5173Q30.4298 25.1394 35.5984 25.1394Q39.472 25.1394 41.8329 27.5232Q44.2052 29.9069 44.2052 34.1358L44.2052 49L33.249 49L33.249 36.4852Q33.249 34.7661 32.7791 34.0671Q32.3093 33.3565 31.2893 33.3565Q29.3754 33.3565 28.5502 35.9695L28.5502 49L17.6055 49ZM47.1285 31.7864L47.1285 25.529L50.2572 25.529L50.2572 23.5693Q50.2572 19.306 52.916 17.14Q55.5863 14.9625 59.6547 14.9625Q61.8437 14.9625 63.8149 15.5126Q65.7975 16.0627 66.5768 16.4982Q67.3561 16.9223 67.8604 17.3119L65.1328 22.79Q63.7232 22.0107 62.3938 22.0107Q60.0444 22.0107 60.0444 24.3601L60.0444 25.529L65.5225 25.529L65.5225 31.7864L60.434 31.7864L60.434 49L49.8675 49L49.8675 31.7864L47.1285 31.7864Z" fill="#EBEBEB" fill-opacity="1.000000" transform="matrix(1 0 0 1 20.4979 31.4172)"/><path d="M2.07113 0L9.94143 0C10.1702 0 10.3557 0.185455 10.3557 0.414226L10.3557 8.28452C10.3557 9.42838 9.42838 10.3557 8.28452 10.3557L2.07113 10.3557C0.927277 10.3557 0 9.42838 0 8.28452L0 2.07113C0 0.927277 0.927277 0 2.07113 0L2.07113 0Z" fill="#EB512E" fill-opacity="1.000000" transform="matrix(1 0 0 1 23.2822 45.5143)"/><path d="M2.07113 0L9.94143 0C10.1702 0 10.3557 0.185455 10.3557 0.414226L10.3557 8.28452C10.3557 9.42838 9.42838 10.3557 8.28452 10.3557L2.07113 10.3557C0.927277 10.3557 0 9.42838 0 8.28452L0 2.07113C0 0.927277 0.927277 0 2.07113 0L2.07113 0Z" fill="none" stroke="#F94737" stroke-opacity="1.000000" stroke-width="2" stroke-dasharray="0 0" transform="matrix(1 0 0 1 23.2822 45.5143)"/><path d="M2.07113 0L9.94143 0C10.1702 0 10.3557 0.185455 10.3557 0.414226L10.3557 8.28452C10.3557 9.42838 9.42838 10.3557 8.28452 10.3557L2.07113 10.3557C0.927277 10.3557 0 9.42838 0 8.28452L0 2.07113C0 0.927277 0.927277 0 2.07113 0L2.07113 0Z" fill="#EB512E" fill-opacity="1.000000" transform="matrix(1 0 0 1 23.2822 45.5143)"/><path d="M2.07113 0L9.94143 0C10.1702 0 10.3557 0.185455 10.3557 0.414226L10.3557 8.28452C10.3557 9.42838 9.42838 10.3557 8.28452 10.3557L2.07113 10.3557C0.927277 10.3557 0 9.42838 0 8.28452L0 2.07113C0 0.927277 0.927277 0 2.07113 0L2.07113 0Z" fill="none" stroke="#F94737" stroke-opacity="1.000000" stroke-width="2" stroke-dasharray="0 0" transform="matrix(1 0 0 1 23.2822 45.5143)"/><path d="M0.582543 8.57836C0.582543 11.474 2.92124 13.8156 5.81975 13.8156C8.71825 13.8156 11.0569 11.474 11.0569 8.57836C11.0569 5.67985 8.71825 3.33831 5.81975 3.33831C2.92124 3.33831 0.582543 5.67985 0.582543 8.57836ZM10.6279 8.57836C10.6279 11.2296 8.47387 13.3836 5.81975 13.3836C3.16562 13.3836 1.01164 11.2296 1.01164 8.57836C1.01164 5.92423 3.16562 3.77025 5.81975 3.77025C8.47387 3.77025 10.6279 5.92423 10.6279 8.57836ZM2.37564 8.57836C2.37564 10.4851 3.91014 12.0225 5.81975 12.0225C7.72935 12.0225 9.26385 10.4851 9.26385 8.57836C9.26385 6.66875 7.72935 5.13141 5.81975 5.13141C3.91014 5.13141 2.37564 6.66875 2.37564 8.57836Z" fill="#D81918" fill-opacity="1.000000" transform="matrix(0.989899 0.141775 -0.141717 0.989907 197.388 58.0153)"/><path d="M26.8276 13.4138C26.8276 20.822 20.822 26.8275 13.4138 26.8275C6.00556 26.8275 0 20.822 0 13.4138C0 6.00555 6.00556 0 13.4138 0L13.4183 6.70913C9.71292 6.70913 6.70914 9.7129 6.70914 13.4183C6.70914 17.1236 9.71292 20.1274 13.4183 20.1274C17.1236 20.1274 20.1274 17.1236 20.1274 13.4183L26.8276 13.4138L26.8276 13.4138Z" fill="#8A8A8A" fill-opacity="1.000000" transform="matrix(0.793377 0.608731 -0.608734 0.793374 199.028 48.8047)"/><path d="M26.8276 13.4138C26.8276 20.822 20.822 26.8275 13.4138 26.8275C6.00556 26.8275 0 20.822 0 13.4138C0 6.00555 6.00556 0 13.4138 0L13.4183 6.70913C9.71292 6.70913 6.70914 9.7129 6.70914 13.4183C6.70914 17.1236 9.71292 20.1274 13.4183 20.1274C17.1236 20.1274 20.1274 17.1236 20.1274 13.4183L26.8276 13.4138L26.8276 13.4138Z" fill="#8A8A8A" fill-opacity="1.000000" transform="matrix(0.793377 0.608731 -0.608734 0.793374 199.028 48.8047)"/><path d="M26.8276 13.4138C26.8276 20.822 20.822 26.8275 13.4138 26.8275C6.00556 26.8275 0 20.822 0 13.4138C0 6.00554 6.00556 0 13.4138 0L13.4183 6.70912C9.71292 6.70912 6.70914 9.71289 6.70914 13.4182C6.70914 17.1236 9.71292 20.1274 13.4183 20.1274C17.1236 20.1274 20.1274 17.1236 20.1274 13.4182L26.8276 13.4138L26.8276 13.4138Z" fill="#8A8A8A" fill-opacity="1.000000" transform="matrix(0.920719 -0.390226 0.390221 0.920721 184.078 60.3739)"/><path d="M26.8276 13.4138C26.8276 20.822 20.822 26.8275 13.4138 26.8275C6.00556 26.8275 0 20.822 0 13.4138C0 6.00554 6.00556 0 13.4138 0L13.4183 6.70912C9.71292 6.70912 6.70914 9.71289 6.70914 13.4182C6.70914 17.1236 9.71292 20.1274 13.4183 20.1274C17.1236 20.1274 20.1274 17.1236 20.1274 13.4182L26.8276 13.4138L26.8276 13.4138Z" fill="#8A8A8A" fill-opacity="1.000000" transform="matrix(0.920719 -0.390226 0.390221 0.920721 184.078 60.3739)"/></svg>