<svg xmlns="http://www.w3.org/2000/svg" xmlns:xlink="http://www.w3.org/1999/xlink" width="171.185303" height="116.964172" viewBox="0 0 171.185 116.964"><path d="M0.984521 24L0.984521 12.2088L6.09137 12.2088L6.09137 13.9187Q7.40982 12.013 9.63219 12.013Q12.2633 12.013 13.1845 14.1951Q14.5203 12.013 16.8981 12.013Q18.6886 12.013 19.7595 13.1242Q20.8304 14.2354 20.8304 16.3369L20.8304 24L15.5278 24L15.5278 17.5171Q15.5278 16.6478 15.3263 16.2966Q15.1305 15.9453 14.739 15.9453Q14.3245 15.9453 14.0712 16.239Q13.8178 16.5326 13.5588 17.1429L13.5588 24L8.25616 24L8.25616 17.5171Q8.25616 16.6478 8.05465 16.2966Q7.8589 15.9453 7.46739 15.9453Q7.05286 15.9453 6.79953 16.239Q6.5462 16.5326 6.28712 17.1429L6.28712 24L0.984521 24ZM27.8721 19.728Q27.6073 19.9698 27.6073 20.4649Q27.6073 20.9543 27.8721 21.2019Q28.137 21.4437 28.4939 21.4437Q29.0812 21.4437 29.5706 21.0119L29.5706 19.9122Q29.0812 19.4804 28.4939 19.4804Q28.137 19.4804 27.8721 19.728ZM23.341 23.1537Q22.2989 22.1116 22.2989 20.4649Q22.2989 18.8126 23.341 17.7705Q24.3831 16.7284 26.3291 16.7284Q28.4133 16.7284 29.5706 17.8511L29.5706 16.9241Q29.5706 16.0605 29.0294 15.7093Q28.4939 15.3523 27.3136 15.3523Q25.8397 15.3523 23.6749 16.1411L22.5004 13.1933Q22.7537 13.0321 23.2259 12.8075Q23.698 12.583 25.3101 12.203Q26.9221 11.8173 28.6897 11.8173Q34.8789 11.8173 34.8789 16.7284L34.8789 24L29.9678 24L29.9678 22.624Q29.9275 22.6815 29.8469 22.7909Q29.7663 22.9003 29.4496 23.1767Q29.1387 23.4473 28.7645 23.6546Q28.396 23.8618 27.7339 24.0288Q27.0776 24.1958 26.3291 24.1958Q24.3831 24.1958 23.341 23.1537ZM35.6621 24L39.5945 17.9086L36.0536 12.2088L41.7535 12.2088L43.1295 15.7438L44.5055 12.2088L50.2054 12.2088L46.6646 17.9086L50.5969 24L44.7013 24L43.1295 20.4649L41.5577 24L35.6621 24Z" fill="#000000" fill-opacity="1.000000" transform="matrix(1 0 0 1 55.2162 40.359)"/><path d="M1.18027 24L1.18027 12.2088L6.68438 12.2088L6.68438 24L1.18027 24ZM1.57178 11.0285L1.57178 7.49343L6.28712 7.49343L6.28712 11.0285L1.57178 11.0285ZM8.84394 24L8.84394 12.2088L13.9508 12.2088L13.9508 14.2124Q15.2865 12.013 17.8831 12.013Q19.8291 12.013 21.0152 13.2106Q22.207 14.4081 22.207 16.5326L22.207 24L16.7028 24L16.7028 17.7129Q16.7028 16.8493 16.4668 16.4981Q16.2307 16.1411 15.7183 16.1411Q14.7568 16.1411 14.3423 17.4538L14.3423 24L8.84394 24ZM23.6743 15.3523L23.6743 12.2088L25.2461 12.2088L25.2461 11.2242Q25.2461 9.08248 26.5818 7.99433Q27.9233 6.90041 29.9672 6.90041Q31.0669 6.90041 32.0571 7.17677Q33.0532 7.45312 33.4447 7.67191Q33.8362 7.88493 34.0895 8.08069L32.7192 10.8327Q32.0111 10.4412 31.3432 10.4412Q30.1629 10.4412 30.1629 11.6215L30.1629 12.2088L32.915 12.2088L32.915 15.3523L30.3587 15.3523L30.3587 24L25.0503 24L25.0503 15.3523L23.6743 15.3523Z" fill="#000000" fill-opacity="1.000000" transform="matrix(1 0 0 1 21.6877 40.359)"/><path d="M1.04049 0L4.99433 0C5.10926 0 5.20243 0.0931682 5.20243 0.208097L5.20243 4.16194C5.20243 4.73659 4.73658 5.20243 4.16194 5.20243L1.04049 5.20243C0.465841 5.20243 0 4.73659 0 4.16194L0 1.04049C0 0.465841 0.465841 0 1.04049 0L1.04049 0Z" fill="#EB512E" fill-opacity="1.000000" transform="matrix(1 0 0 1 23.0865 47.441)"/><path d="M1.04049 0L4.99433 0C5.10926 0 5.20243 0.0931682 5.20243 0.208097L5.20243 4.16194C5.20243 4.73659 4.73658 5.20243 4.16194 5.20243L1.04049 5.20243C0.465841 5.20243 0 4.73659 0 4.16194L0 1.04049C0 0.465841 0.465841 0 1.04049 0L1.04049 0Z" fill="none" stroke="#F94737" stroke-opacity="1.000000" stroke-width="2" stroke-dasharray="0 0" transform="matrix(1 0 0 1 23.0865 47.441)"/><path d="M1.04049 0L4.99433 0C5.10926 0 5.20243 0.0931682 5.20243 0.208097L5.20243 4.16194C5.20243 4.73659 4.73658 5.20243 4.16194 5.20243L1.04049 5.20243C0.465841 5.20243 0 4.73659 0 4.16194L0 1.04049C0 0.465841 0.465841 0 1.04049 0L1.04049 0Z" fill="#EB512E" fill-opacity="1.000000" transform="matrix(1 0 0 1 23.0865 47.441)"/><path d="M1.04049 0L4.99433 0C5.10926 0 5.20243 0.0931682 5.20243 0.208097L5.20243 4.16194C5.20243 4.73659 4.73658 5.20243 4.16194 5.20243L1.04049 5.20243C0.465841 5.20243 0 4.73659 0 4.16194L0 1.04049C0 0.465841 0.465841 0 1.04049 0L1.04049 0Z" fill="none" stroke="#F94737" stroke-opacity="1.000000" stroke-width="2" stroke-dasharray="0 0" transform="matrix(1 0 0 1 23.0865 47.441)"/><path d="M0.292654 4.77868C0.292654 6.23339 1.46755 7.40972 2.92369 7.40972C4.37982 7.40972 5.55472 6.23339 5.55472 4.77868C5.55472 3.32255 4.37982 2.14622 2.92369 2.14622C1.46755 2.14622 0.292654 3.32255 0.292654 4.77868ZM5.33916 4.77868C5.33916 6.11062 4.25705 7.19272 2.92369 7.19272C1.59033 7.19272 0.508219 6.11062 0.508219 4.77868C0.508219 3.44532 1.59033 2.36321 2.92369 2.36321C4.25705 2.36321 5.33916 3.44532 5.33916 4.77868ZM1.19346 4.77868C1.19346 5.73659 1.96435 6.50891 2.92369 6.50891C3.88302 6.50891 4.65392 5.73659 4.65392 4.77868C4.65392 3.81935 3.88302 3.04703 2.92369 3.04703C1.96435 3.04703 1.19346 3.81935 1.19346 4.77868Z" fill="#D81918" fill-opacity="1.000000" transform="matrix(0.989899 0.141775 -0.141719 0.989907 110.553 53.721)"/><path d="M13.4775 6.73874C13.4775 10.4604 10.4605 13.4775 6.73876 13.4775C3.01704 13.4775 0 10.4604 0 6.73874C0 3.01704 3.01704 0 6.73876 0L6.74101 3.3705C4.87953 3.3705 3.37051 4.87952 3.37051 6.74099C3.37051 8.60247 4.87953 10.1115 6.74101 10.1115C8.60249 10.1115 10.1115 8.60247 10.1115 6.74099L13.4775 6.73874L13.4775 6.73874Z" fill="#8A8A8A" fill-opacity="1.000000" transform="matrix(0.793377 0.608731 -0.608734 0.793374 111.377 49.094)"/><path d="M13.4775 6.73874C13.4775 10.4604 10.4605 13.4775 6.73876 13.4775C3.01704 13.4775 0 10.4604 0 6.73874C0 3.01704 3.01704 0 6.73876 0L6.74101 3.3705C4.87953 3.3705 3.37051 4.87952 3.37051 6.74099C3.37051 8.60247 4.87953 10.1115 6.74101 10.1115C8.60249 10.1115 10.1115 8.60247 10.1115 6.74099L13.4775 6.73874L13.4775 6.73874Z" fill="#8A8A8A" fill-opacity="1.000000" transform="matrix(0.793377 0.608731 -0.608734 0.793374 111.377 49.094)"/><path d="M13.4775 6.73874C13.4775 10.4604 10.4605 13.4775 6.73875 13.4775C3.01704 13.4775 0 10.4604 0 6.73874C0 3.01703 3.01704 0 6.73875 0L6.741 3.37049C4.87953 3.37049 3.3705 4.87952 3.3705 6.74099C3.3705 8.60246 4.87953 10.1115 6.741 10.1115C8.60248 10.1115 10.1115 8.60246 10.1115 6.74099L13.4775 6.73874L13.4775 6.73874Z" fill="#8A8A8A" fill-opacity="1.000000" transform="matrix(0.920719 -0.390226 0.39022 0.920722 103.866 54.906)"/><path d="M13.4775 6.73874C13.4775 10.4604 10.4605 13.4775 6.73875 13.4775C3.01704 13.4775 0 10.4604 0 6.73874C0 3.01703 3.01704 0 6.73875 0L6.741 3.37049C4.87953 3.37049 3.3705 4.87952 3.3705 6.74099C3.3705 8.60246 4.87953 10.1115 6.741 10.1115C8.60248 10.1115 10.1115 8.60246 10.1115 6.74099L13.4775 6.73874L13.4775 6.73874Z" fill="#8A8A8A" fill-opacity="1.000000" transform="matrix(0.920719 -0.390226 0.39022 0.920722 103.866 54.906)"/></svg>