<svg xmlns="http://www.w3.org/2000/svg" xmlns:xlink="http://www.w3.org/1999/xlink" width="170.885162" height="116.924469" viewBox="0 0 170.885 116.924"><path d="M0.981369 24L0.981369 12.2465L6.07186 12.2465L6.07186 13.951Q7.38609 12.0514 9.60135 12.0514Q12.2241 12.0514 13.1423 14.2265Q14.4738 12.0514 16.844 12.0514Q18.6288 12.0514 19.6963 13.159Q20.7637 14.2667 20.7637 16.3614L20.7637 24L15.4781 24L15.4781 17.5379Q15.4781 16.6713 15.2772 16.3212Q15.0821 15.9711 14.6918 15.9711Q14.2786 15.9711 14.0261 16.2638Q13.7736 16.5565 13.5153 17.1649L13.5153 24L8.22973 24L8.22973 17.5379Q8.22973 16.6713 8.02886 16.3212Q7.83374 15.9711 7.44348 15.9711Q7.03028 15.9711 6.77776 16.2638Q6.52524 16.5565 6.26699 17.1649L6.26699 24L0.981369 24ZM27.7802 19.7417Q27.5162 19.9827 27.5162 20.4763Q27.5162 20.9641 27.7802 21.2108Q28.0442 21.4519 28.4 21.4519Q28.9854 21.4519 29.4732 21.0215L29.4732 19.9253Q28.9854 19.4949 28.4 19.4949Q28.0442 19.4949 27.7802 19.7417ZM23.2636 23.1564Q22.2248 22.1176 22.2248 20.4763Q22.2248 18.8292 23.2636 17.7904Q24.3024 16.7516 26.2421 16.7516Q28.3197 16.7516 29.4732 17.8707L29.4732 16.9468Q29.4732 16.0859 28.9337 15.7358Q28.4 15.38 27.2235 15.38Q25.7543 15.38 23.5965 16.1663L22.4257 13.2279Q22.6782 13.0672 23.1488 12.8434Q23.6194 12.6196 25.2263 12.2408Q26.8333 11.8563 28.5951 11.8563Q34.7646 11.8563 34.7646 16.7516L34.7646 24L29.8692 24L29.8692 22.6284Q29.829 22.6858 29.7487 22.7948Q29.6683 22.9039 29.3527 23.1793Q29.0428 23.4491 28.6697 23.6557Q28.3024 23.8623 27.6425 24.0287Q26.9882 24.1951 26.2421 24.1951Q24.3024 24.1951 23.2636 23.1564ZM35.5435 24L39.4633 17.9281L35.9338 12.2465L41.6154 12.2465L42.987 15.7703L44.3587 12.2465L50.0403 12.2465L46.5108 17.9281L50.4305 24L44.5538 24L42.987 20.4763L41.4203 24L35.5435 24Z" fill="#EBEBEB" fill-opacity="1.000000" transform="matrix(1 0 0 1 55.12 40.3971)"/><path d="M1.1765 24L1.1765 12.2465L6.66298 12.2465L6.66298 24L1.1765 24ZM1.56675 11.07L1.56675 7.54628L6.26699 7.54628L6.26699 11.07L1.56675 11.07ZM8.81467 24L8.81467 12.2465L13.9052 12.2465L13.9052 14.2437Q15.2366 12.0514 17.8249 12.0514Q19.7647 12.0514 20.9469 13.2451Q22.1349 14.4388 22.1349 16.5565L22.1349 24L16.6484 24L16.6484 17.733Q16.6484 16.8722 16.4131 16.5221Q16.1778 16.1663 15.667 16.1663Q14.7086 16.1663 14.2954 17.4748L14.2954 24L8.81467 24ZM23.5957 15.38L23.5957 12.2465L25.1624 12.2465L25.1624 11.2652Q25.1624 9.13025 26.4939 8.04558Q27.8311 6.95517 29.8684 6.95517Q30.9646 6.95517 31.9517 7.23064Q32.9445 7.50611 33.3348 7.72419Q33.725 7.93653 33.9775 8.13166L32.6116 10.8749Q31.9058 10.4847 31.24 10.4847Q30.0635 10.4847 30.0635 11.6611L30.0635 12.2465L32.8068 12.2465L32.8068 15.38L30.2587 15.38L30.2587 24L24.9673 24L24.9673 15.38L23.5957 15.38Z" fill="#EBEBEB" fill-opacity="1.000000" transform="matrix(1 0 0 1 21.6987 40.3971)"/><path d="M1.03715 0L4.97834 0C5.0929 0 5.18577 0.0928699 5.18577 0.207431L5.18577 4.14861C5.18577 4.72142 4.72142 5.18577 4.14861 5.18577L1.03715 5.18577C0.46435 5.18577 0 4.72142 0 4.14861L0 1.03715C0 0.46435 0.46435 0 1.03715 0L1.03715 0Z" fill="#EB512E" fill-opacity="1.000000" transform="matrix(1 0 0 1 23.093 47.4565)"/><path d="M1.03715 0L4.97834 0C5.0929 0 5.18577 0.0928699 5.18577 0.207431L5.18577 4.14861C5.18577 4.72142 4.72142 5.18577 4.14861 5.18577L1.03715 5.18577C0.46435 5.18577 0 4.72142 0 4.14861L0 1.03715C0 0.46435 0.46435 0 1.03715 0L1.03715 0Z" fill="none" stroke="#F94737" stroke-opacity="1.000000" stroke-width="2" stroke-dasharray="0 0" transform="matrix(1 0 0 1 23.093 47.4565)"/><path d="M1.03715 0L4.97834 0C5.0929 0 5.18577 0.0928699 5.18577 0.207431L5.18577 4.14861C5.18577 4.72142 4.72142 5.18577 4.14861 5.18577L1.03715 5.18577C0.46435 5.18577 0 4.72142 0 4.14861L0 1.03715C0 0.46435 0.46435 0 1.03715 0L1.03715 0Z" fill="#EB512E" fill-opacity="1.000000" transform="matrix(1 0 0 1 23.093 47.4565)"/><path d="M1.03715 0L4.97834 0C5.0929 0 5.18577 0.0928699 5.18577 0.207431L5.18577 4.14861C5.18577 4.72142 4.72142 5.18577 4.14861 5.18577L1.03715 5.18577C0.46435 5.18577 0 4.72142 0 4.14861L0 1.03715C0 0.46435 0.46435 0 1.03715 0L1.03715 0Z" fill="none" stroke="#F94737" stroke-opacity="1.000000" stroke-width="2" stroke-dasharray="0 0" transform="matrix(1 0 0 1 23.093 47.4565)"/><path d="M0.291718 4.78579C0.291718 6.23584 1.46286 7.40841 2.91433 7.40841C4.36581 7.40841 5.53695 6.23584 5.53695 4.78579C5.53695 3.33432 4.36581 2.16175 2.91433 2.16175C1.46286 2.16175 0.291718 3.33432 0.291718 4.78579ZM5.32207 4.78579C5.32207 6.11346 4.24343 7.19211 2.91433 7.19211C1.58524 7.19211 0.506593 6.11346 0.506593 4.78579C0.506593 3.45669 1.58524 2.37805 2.91433 2.37805C4.24343 2.37805 5.32207 3.45669 5.32207 4.78579ZM1.18964 4.78579C1.18964 5.74063 1.95807 6.51048 2.91433 6.51048C3.8706 6.51048 4.63903 5.74063 4.63903 4.78579C4.63903 3.82952 3.8706 3.05967 2.91433 3.05967C1.95807 3.05967 1.18964 3.82952 1.18964 4.78579Z" fill="#D81918" fill-opacity="1.000000" transform="matrix(0.989899 0.141775 -0.141718 0.989907 110.279 53.716)"/><path d="M13.4344 6.71717C13.4344 10.427 10.427 13.4343 6.71718 13.4343C3.00738 13.4343 0 10.427 0 6.71717C0 3.00738 3.00738 0 6.71718 0L6.71943 3.35971C4.86391 3.35971 3.35971 4.8639 3.35971 6.71941C3.35971 8.57493 4.86391 10.0791 6.71943 10.0791C8.57494 10.0791 10.0791 8.57493 10.0791 6.71941L13.4344 6.71717L13.4344 6.71717Z" fill="#8A8A8A" fill-opacity="1.000000" transform="matrix(0.793377 0.608731 -0.608734 0.793374 111.101 49.1042)"/><path d="M13.4344 6.71717C13.4344 10.427 10.427 13.4343 6.71718 13.4343C3.00738 13.4343 0 10.427 0 6.71717C0 3.00738 3.00738 0 6.71718 0L6.71943 3.35971C4.86391 3.35971 3.35971 4.8639 3.35971 6.71941C3.35971 8.57493 4.86391 10.0791 6.71943 10.0791C8.57494 10.0791 10.0791 8.57493 10.0791 6.71941L13.4344 6.71717L13.4344 6.71717Z" fill="#8A8A8A" fill-opacity="1.000000" transform="matrix(0.793377 0.608731 -0.608734 0.793374 111.101 49.1042)"/><path d="M13.4344 6.71716C13.4344 10.4269 10.427 13.4343 6.71718 13.4343C3.00738 13.4343 0 10.4269 0 6.71716C0 3.00738 3.00738 0 6.71718 0L6.71942 3.3597C4.86391 3.3597 3.35971 4.8639 3.35971 6.71941C3.35971 8.57492 4.86391 10.0791 6.71942 10.0791C8.57494 10.0791 10.0791 8.57492 10.0791 6.71941L13.4344 6.71716L13.4344 6.71716Z" fill="#8A8A8A" fill-opacity="1.000000" transform="matrix(0.920719 -0.390226 0.390221 0.920721 103.614 54.8976)"/><path d="M13.4344 6.71716C13.4344 10.4269 10.427 13.4343 6.71718 13.4343C3.00738 13.4343 0 10.4269 0 6.71716C0 3.00738 3.00738 0 6.71718 0L6.71942 3.3597C4.86391 3.3597 3.35971 4.8639 3.35971 6.71941C3.35971 8.57492 4.86391 10.0791 6.71942 10.0791C8.57494 10.0791 10.0791 8.57492 10.0791 6.71941L13.4344 6.71716L13.4344 6.71716Z" fill="#8A8A8A" fill-opacity="1.000000" transform="matrix(0.920719 -0.390226 0.390221 0.920721 103.614 54.8976)"/></svg>