<svg xmlns="http://www.w3.org/2000/svg" xmlns:xlink="http://www.w3.org/1999/xlink" width="219.747711" height="125.681938" viewBox="0 0 219.748 125.682"><path d="M1.47014 36L1.47014 18.3928L9.09593 18.3928L9.09593 20.9462Q11.0647 18.1005 14.3833 18.1005Q18.3122 18.1005 19.6878 21.3588Q21.6824 18.1005 25.233 18.1005Q27.9068 18.1005 29.5059 19.7597Q31.105 21.419 31.105 24.557L31.105 36L23.1869 36L23.1869 26.3195Q23.1869 25.0213 22.886 24.4968Q22.5937 23.9724 22.0091 23.9724Q21.39 23.9724 21.0118 24.4109Q20.6335 24.8493 20.2466 25.7606L20.2466 36L12.3285 36L12.3285 26.3195Q12.3285 25.0213 12.0276 24.4968Q11.7353 23.9724 11.1507 23.9724Q10.5317 23.9724 10.1534 24.4109Q9.77511 24.8493 9.38824 25.7606L9.38824 36L1.47014 36ZM41.6154 29.6208Q41.2199 29.9819 41.2199 30.7213Q41.2199 31.452 41.6154 31.8217Q42.0108 32.1828 42.5439 32.1828Q43.4208 32.1828 44.1516 31.538L44.1516 29.8959Q43.4208 29.2511 42.5439 29.2511Q42.0108 29.2511 41.6154 29.6208ZM34.8493 34.7362Q33.2932 33.1801 33.2932 30.7213Q33.2932 28.2538 34.8493 26.6977Q36.4054 25.1416 39.3113 25.1416Q42.4235 25.1416 44.1516 26.8181L44.1516 25.4339Q44.1516 24.1443 43.3434 23.6199Q42.5439 23.0869 40.7814 23.0869Q38.5805 23.0869 35.3479 24.2647L33.5941 19.8629Q33.9724 19.6222 34.6773 19.2869Q35.3823 18.9516 37.7896 18.3842Q40.1968 17.8081 42.8362 17.8081Q52.0783 17.8081 52.0783 25.1416L52.0783 36L44.7448 36L44.7448 33.9452Q44.6846 34.0312 44.5642 34.1946Q44.4439 34.3579 43.971 34.7706Q43.5068 35.1747 42.9479 35.4842Q42.3977 35.7937 41.409 36.043Q40.4289 36.2923 39.3113 36.2923Q36.4054 36.2923 34.8493 34.7362ZM53.2448 36L59.1167 26.9041L53.8294 18.3928L62.3407 18.3928L64.3955 23.6715L66.4502 18.3928L74.9615 18.3928L69.6742 26.9041L75.5462 36L66.7425 36L64.3955 30.7213L62.0484 36L53.2448 36Z" fill="#000000" fill-opacity="1.000000" transform="matrix(1 0 0 1 71.0643 35.7786)"/><path d="M1.76244 36L1.76244 18.3928L9.98145 18.3928L9.98145 36L1.76244 36ZM2.34706 16.6303L2.34706 11.3516L9.38824 11.3516L9.38824 16.6303L2.34706 16.6303ZM13.2045 36L13.2045 18.3928L20.8303 18.3928L20.8303 21.3846Q22.8249 18.1004 26.7023 18.1004Q29.6082 18.1004 31.3792 19.8887Q33.1588 21.6769 33.1588 24.8493L33.1588 36L24.9398 36L24.9398 26.6118Q24.9398 25.3222 24.5873 24.7977Q24.2348 24.2647 23.4697 24.2647Q22.0339 24.2647 21.4149 26.2249L21.4149 36L13.2045 36ZM35.3467 23.0869L35.3467 18.3928L37.6938 18.3928L37.6938 16.9226Q37.6938 13.7244 39.6883 12.0995Q41.6915 10.4661 44.7435 10.4661Q46.3856 10.4661 47.8643 10.8787Q49.3517 11.2914 49.9363 11.6181Q50.5209 11.9362 50.8992 12.2285L48.853 16.338Q47.7956 15.7534 46.7983 15.7534Q45.0358 15.7534 45.0358 17.5158L45.0358 18.3928L49.1453 18.3928L49.1453 23.0869L45.3281 23.0869L45.3281 36L37.4014 36L37.4014 23.0869L35.3467 23.0869Z" fill="#000000" fill-opacity="1.000000" transform="matrix(1 0 0 1 20.9977 35.7786)"/><path d="M1.5537 0L7.45778 0C7.62939 0 7.76852 0.139123 7.76852 0.310741L7.76852 6.21482C7.76852 7.0729 7.0729 7.76852 6.21481 7.76852L1.5537 7.76852C0.695617 7.76852 0 7.0729 0 6.21482L0 1.5537C0 0.695617 0.695617 0 1.5537 0L1.5537 0Z" fill="#EB512E" fill-opacity="1.000000" transform="matrix(1 0 0 1 23.0865 46.3538)"/><path d="M1.5537 0L7.45778 0C7.62939 0 7.76852 0.139123 7.76852 0.310741L7.76852 6.21482C7.76852 7.0729 7.0729 7.76852 6.21481 7.76852L1.5537 7.76852C0.695617 7.76852 0 7.0729 0 6.21482L0 1.5537C0 0.695617 0.695617 0 1.5537 0L1.5537 0Z" fill="none" stroke="#F94737" stroke-opacity="1.000000" stroke-width="2" stroke-dasharray="0 0" transform="matrix(1 0 0 1 23.0865 46.3538)"/><path d="M1.5537 0L7.45778 0C7.62939 0 7.76852 0.139123 7.76852 0.310741L7.76852 6.21482C7.76852 7.0729 7.0729 7.76852 6.21481 7.76852L1.5537 7.76852C0.695617 7.76852 0 7.0729 0 6.21482L0 1.5537C0 0.695617 0.695617 0 1.5537 0L1.5537 0Z" fill="#EB512E" fill-opacity="1.000000" transform="matrix(1 0 0 1 23.0865 46.3538)"/><path d="M1.5537 0L7.45778 0C7.62939 0 7.76852 0.139123 7.76852 0.310741L7.76852 6.21482C7.76852 7.0729 7.0729 7.76852 6.21481 7.76852L1.5537 7.76852C0.695617 7.76852 0 7.0729 0 6.21482L0 1.5537C0 0.695617 0.695617 0 1.5537 0L1.5537 0Z" fill="none" stroke="#F94737" stroke-opacity="1.000000" stroke-width="2" stroke-dasharray="0 0" transform="matrix(1 0 0 1 23.0865 46.3538)"/><path d="M0.437006 6.68301C0.437006 8.85526 2.19143 10.6118 4.3658 10.6118C6.54017 10.6118 8.2946 8.85526 8.2946 6.68301C8.2946 4.50864 6.54017 2.75209 4.3658 2.75209C2.19143 2.75209 0.437006 4.50864 0.437006 6.68301ZM7.9727 6.68301C7.9727 8.67193 6.35684 10.2878 4.3658 10.2878C2.37476 10.2878 0.758899 8.67193 0.758899 6.68301C0.758899 4.69197 2.37476 3.07611 4.3658 3.07611C6.35684 3.07611 7.9727 4.69197 7.9727 6.68301ZM1.78213 6.68301C1.78213 8.11341 2.93327 9.26668 4.3658 9.26668C5.79833 9.26668 6.94947 8.11341 6.94947 6.68301C6.94947 5.25049 5.79833 4.09722 4.3658 4.09722C2.93327 4.09722 1.78213 5.25049 1.78213 6.68301Z" fill="#D81918" fill-opacity="1.000000" transform="matrix(0.989899 0.141776 -0.141718 0.989907 153.696 55.7319)"/><path d="M20.1253 10.0626C20.1253 15.6201 15.6201 20.1252 10.0626 20.1252C4.5052 20.1252 0 15.6201 0 10.0626C0 4.50519 4.5052 0 10.0626 0L10.066 5.03299C7.28636 5.03299 5.033 7.28634 5.033 10.066C5.033 12.8456 7.28636 15.099 10.066 15.099C12.8457 15.099 15.099 12.8456 15.099 10.066L20.1253 10.0626L20.1253 10.0626Z" fill="#8A8A8A" fill-opacity="1.000000" transform="matrix(0.793377 0.608731 -0.608734 0.793374 154.926 48.8222)"/><path d="M20.1253 10.0626C20.1253 15.6201 15.6201 20.1252 10.0626 20.1252C4.5052 20.1252 0 15.6201 0 10.0626C0 4.50519 4.5052 0 10.0626 0L10.066 5.03299C7.28636 5.03299 5.033 7.28634 5.033 10.066C5.033 12.8456 7.28636 15.099 10.066 15.099C12.8457 15.099 15.099 12.8456 15.099 10.066L20.1253 10.0626L20.1253 10.0626Z" fill="#8A8A8A" fill-opacity="1.000000" transform="matrix(0.793377 0.608731 -0.608734 0.793374 154.926 48.8222)"/><path d="M20.1253 10.0626C20.1253 15.62 15.6201 20.1252 10.0626 20.1252C4.5052 20.1252 0 15.62 0 10.0626C0 4.50518 4.5052 0 10.0626 0L10.066 5.03299C7.28635 5.03299 5.033 7.28633 5.033 10.066C5.033 12.8456 7.28635 15.099 10.066 15.099C12.8457 15.099 15.099 12.8456 15.099 10.066L20.1253 10.0626L20.1253 10.0626Z" fill="#8A8A8A" fill-opacity="1.000000" transform="matrix(0.920719 -0.390226 0.39022 0.920721 143.711 57.501)"/><path d="M20.1253 10.0626C20.1253 15.62 15.6201 20.1252 10.0626 20.1252C4.5052 20.1252 0 15.62 0 10.0626C0 4.50518 4.5052 0 10.0626 0L10.066 5.03299C7.28635 5.03299 5.033 7.28633 5.033 10.066C5.033 12.8456 7.28635 15.099 10.066 15.099C12.8457 15.099 15.099 12.8456 15.099 10.066L20.1253 10.0626L20.1253 10.0626Z" fill="#8A8A8A" fill-opacity="1.000000" transform="matrix(0.920719 -0.390226 0.39022 0.920721 143.711 57.501)"/></svg>