<svg xmlns="http://www.w3.org/2000/svg" xmlns:xlink="http://www.w3.org/1999/xlink" width="146.121582" height="119.681366" viewBox="0 0 146.122 119.681"><path d="M1.86567 46L1.86567 23.6556L11.5432 23.6556L11.5432 26.896Q14.0416 23.2846 18.253 23.2846Q23.2391 23.2846 24.9847 27.4197Q27.5159 23.2846 32.0219 23.2846Q35.415 23.2846 37.4443 25.3903Q39.4737 27.496 39.4737 31.4783L39.4737 46L29.4252 46L29.4252 33.7149Q29.4252 32.0675 29.0434 31.4019Q28.6724 30.7364 27.9305 30.7364Q27.145 30.7364 26.6649 31.2928Q26.1849 31.8493 25.6939 33.0058L25.6939 46L15.6454 46L15.6454 33.7149Q15.6454 32.0675 15.2636 31.4019Q14.8926 30.7364 14.1507 30.7364Q13.3652 30.7364 12.8851 31.2928Q12.4051 31.8493 11.9141 33.0058L11.9141 46L1.86567 46ZM52.8238 37.9045Q52.3219 38.3628 52.3219 39.301Q52.3219 40.2284 52.8238 40.6976Q53.3257 41.1558 54.0021 41.1558Q55.115 41.1558 56.0423 40.3375L56.0423 38.2536Q55.115 37.4354 54.0021 37.4354Q53.3257 37.4354 52.8238 37.9045ZM44.2373 44.3962Q42.2626 42.4214 42.2626 39.301Q42.2626 36.1698 44.2373 34.195Q46.2121 32.2202 49.8998 32.2202Q53.8494 32.2202 56.0423 34.3477L56.0423 32.5912Q56.0423 30.9546 55.0168 30.2891Q54.0021 29.6126 51.7655 29.6126Q48.9724 29.6126 44.8701 31.1074L42.6444 25.5213Q43.1245 25.2158 44.0191 24.7903Q44.9138 24.3648 47.9687 23.6447Q51.0236 22.9137 54.3731 22.9137Q66.1017 22.9137 66.1017 32.2202L66.1017 46L56.7952 46L56.7952 43.3924Q56.7188 43.5015 56.566 43.7088Q56.4133 43.9161 55.8132 44.4398Q55.2241 44.9526 54.5149 45.3454Q53.8166 45.7382 52.5619 46.0546Q51.3182 46.371 49.8998 46.371Q46.2121 46.371 44.2373 44.3962ZM67.5898 46L75.0416 34.4568L68.3317 23.6556L79.1329 23.6556L81.7405 30.3545L84.3481 23.6556L95.1493 23.6556L88.4395 34.4568L95.8912 46L84.719 46L81.7405 39.301L78.762 46L67.5898 46Z" fill="#000000" fill-opacity="1.000000" transform="matrix(1 0 0 1 15.1523 44.0827)"/><path d="M2.23662 46L2.23662 23.6556L12.6669 23.6556L12.6669 46L2.23662 46ZM2.97853 21.419L2.97853 14.72L11.9141 14.72L11.9141 21.419L2.97853 21.419ZM16.7615 46L16.7615 23.6556L26.439 23.6556L26.439 27.4524Q28.9702 23.2846 33.8908 23.2846Q37.5785 23.2846 39.826 25.554Q42.0844 27.8233 42.0844 31.8493L42.0844 46L31.6541 46L31.6541 34.0859Q31.6541 32.4493 31.2068 31.7838Q30.7595 31.1074 29.7885 31.1074Q27.9664 31.1074 27.1809 33.5949L27.1809 46L16.7615 46ZM44.8693 29.6126L44.8693 23.6556L47.8479 23.6556L47.8479 21.7899Q47.8479 17.7313 50.3791 15.6692Q52.9212 13.5962 56.7944 13.5962Q58.8782 13.5962 60.7548 14.1199Q62.6423 14.6436 63.3842 15.0582Q64.1261 15.4619 64.6062 15.8329L62.0095 21.048Q60.6675 20.3061 59.4019 20.3061Q57.1653 20.3061 57.1653 22.5427L57.1653 23.6556L62.3805 23.6556L62.3805 29.6126L57.5363 29.6126L57.5363 46L47.4769 46L47.4769 29.6126L44.8693 29.6126Z" fill="#000000" fill-opacity="1.000000" transform="matrix(1 0 0 1 14.9341 15.6293)"/><path d="M1.97172 0L9.46426 0C9.68205 0 9.85861 0.176554 9.85861 0.394344L9.85861 7.88689C9.85861 8.97584 8.97584 9.85861 7.88689 9.85861L1.97172 9.85861C0.88277 9.85861 0 8.97584 0 7.88689L0 1.97172C0 0.88277 0.88277 0 1.97172 0L1.97172 0Z" fill="#EB512E" fill-opacity="1.000000" transform="matrix(1 0 0 1 17.3356 29.0495)"/><path d="M1.97172 0L9.46426 0C9.68205 0 9.85861 0.176554 9.85861 0.394344L9.85861 7.88689C9.85861 8.97584 8.97584 9.85861 7.88689 9.85861L1.97172 9.85861C0.88277 9.85861 0 8.97584 0 7.88689L0 1.97172C0 0.88277 0.88277 0 1.97172 0L1.97172 0Z" fill="none" stroke="#F94737" stroke-opacity="1.000000" stroke-width="2" stroke-dasharray="0 0" transform="matrix(1 0 0 1 17.3356 29.0495)"/><path d="M1.97172 0L9.46426 0C9.68205 0 9.85861 0.176554 9.85861 0.394344L9.85861 7.88689C9.85861 8.97584 8.97584 9.85861 7.88689 9.85861L1.97172 9.85861C0.88277 9.85861 0 8.97584 0 7.88689L0 1.97172C0 0.88277 0.88277 0 1.97172 0L1.97172 0Z" fill="#EB512E" fill-opacity="1.000000" transform="matrix(1 0 0 1 17.3356 29.0495)"/><path d="M1.97172 0L9.46426 0C9.68205 0 9.85861 0.176554 9.85861 0.394344L9.85861 7.88689C9.85861 8.97584 8.97584 9.85861 7.88689 9.85861L1.97172 9.85861C0.88277 9.85861 0 8.97584 0 7.88689L0 1.97172C0 0.88277 0.88277 0 1.97172 0L1.97172 0Z" fill="none" stroke="#F94737" stroke-opacity="1.000000" stroke-width="2" stroke-dasharray="0 0" transform="matrix(1 0 0 1 17.3356 29.0495)"/><path d="M0.554585 8.79057C0.554585 11.5473 2.78104 13.7764 5.54043 13.7764C8.29983 13.7764 10.5263 11.5473 10.5263 8.79057C10.5263 6.03117 8.29983 3.80201 5.54043 3.80201C2.78104 3.80201 0.554585 6.03117 0.554585 8.79057ZM10.1178 8.79057C10.1178 11.3146 8.06718 13.3652 5.54043 13.3652C3.01369 13.3652 0.963083 11.3146 0.963083 8.79057C0.963083 6.26383 3.01369 4.21322 5.54043 4.21322C8.06718 4.21322 10.1178 6.26383 10.1178 8.79057ZM2.26162 8.79057C2.26162 10.6058 3.72248 12.0694 5.54043 12.0694C7.35839 12.0694 8.81925 10.6058 8.81925 8.79057C8.81925 6.97261 7.35839 5.50905 5.54043 5.50905C3.72248 5.50905 2.26162 6.97261 2.26162 8.79057Z" fill="#D81918" fill-opacity="1.000000" transform="matrix(0.989899 0.141776 -0.141782 0.989898 92.6946 40.0999)"/><path d="M25.5399 12.7699C25.5399 19.8226 19.8226 25.5399 12.7699 25.5399C5.7173 25.5399 0 19.8226 0 12.7699C0 5.7173 5.7173 0 12.7699 0L12.7742 6.3871C9.24671 6.3871 6.38711 9.24671 6.38711 12.7742C6.38711 16.3017 9.24671 19.1613 12.7742 19.1613C16.3017 19.1613 19.1613 16.3017 19.1613 12.7742L25.5399 12.7699L25.5399 12.7699Z" fill="#8A8A8A" fill-opacity="1.000000" transform="matrix(0.793376 0.608732 -0.608735 0.793374 94.4449 31.372)"/><path d="M25.5399 12.7699C25.5399 19.8226 19.8226 25.5399 12.7699 25.5399C5.7173 25.5399 0 19.8226 0 12.7699C0 5.7173 5.7173 0 12.7699 0L12.7742 6.3871C9.24671 6.3871 6.38711 9.24671 6.38711 12.7742C6.38711 16.3017 9.24671 19.1613 12.7742 19.1613C16.3017 19.1613 19.1613 16.3017 19.1613 12.7742L25.5399 12.7699L25.5399 12.7699Z" fill="#8A8A8A" fill-opacity="1.000000" transform="matrix(0.793376 0.608732 -0.608735 0.793374 94.4449 31.372)"/><path d="M25.5399 12.7699C25.5399 19.8226 19.8226 25.5399 12.77 25.5399C5.7173 25.5399 0 19.8226 0 12.7699C0 5.7173 5.7173 0 12.77 0L12.7742 6.3871C9.24672 6.3871 6.38711 9.24671 6.38711 12.7742C6.38711 16.3017 9.24672 19.1613 12.7742 19.1613C16.3017 19.1613 19.1613 16.3017 19.1613 12.7742L25.5399 12.7699L25.5399 12.7699Z" fill="#8A8A8A" fill-opacity="1.000000" transform="matrix(0.920719 -0.390226 0.390225 0.92072 80.2132 42.3855)"/><path d="M25.5399 12.7699C25.5399 19.8226 19.8226 25.5399 12.77 25.5399C5.7173 25.5399 0 19.8226 0 12.7699C0 5.7173 5.7173 0 12.77 0L12.7742 6.3871C9.24672 6.3871 6.38711 9.24671 6.38711 12.7742C6.38711 16.3017 9.24672 19.1613 12.7742 19.1613C16.3017 19.1613 19.1613 16.3017 19.1613 12.7742L25.5399 12.7699L25.5399 12.7699Z" fill="#8A8A8A" fill-opacity="1.000000" transform="matrix(0.920719 -0.390226 0.390225 0.92072 80.2132 42.3855)"/></svg>