<svg xmlns="http://www.w3.org/2000/svg" xmlns:xlink="http://www.w3.org/1999/xlink" width="78.919861" height="74.968933" viewBox="0 0 78.9199 74.9689"><path d="M0.564685 14L0.564685 7.237L3.49378 7.237L3.49378 8.21776Q4.24999 7.12472 5.52466 7.12472Q7.03379 7.12472 7.56215 8.37627Q8.32827 7.12472 9.6921 7.12472Q10.7191 7.12472 11.3333 7.76205Q11.9475 8.39939 11.9475 9.60471L11.9475 14L8.90616 14L8.90616 10.2817Q8.90616 9.78303 8.79059 9.58159Q8.67831 9.38015 8.45376 9.38015Q8.21599 9.38015 8.07069 9.54857Q7.9254 9.71698 7.77679 10.067L7.77679 14L4.73542 14L4.73542 10.2817Q4.73542 9.78303 4.61985 9.58159Q4.50757 9.38015 4.28302 9.38015Q4.04525 9.38015 3.89996 9.54857Q3.75466 9.71698 3.60606 10.067L3.60606 14L0.564685 14ZM15.9792 11.5497Q15.8273 11.6884 15.8273 11.9724Q15.8273 12.2531 15.9792 12.3951Q16.1311 12.5338 16.3358 12.5338Q16.6726 12.5338 16.9533 12.2861L16.9533 11.6554Q16.6726 11.4077 16.3358 11.4077Q16.1311 11.4077 15.9792 11.5497ZM13.3803 13.5146Q12.7826 12.9169 12.7826 11.9724Q12.7826 11.0247 13.3803 10.427Q13.978 9.82926 15.0942 9.82926Q16.2896 9.82926 16.9533 10.4732L16.9533 9.94154Q16.9533 9.4462 16.6429 9.24476Q16.3358 9.04002 15.6588 9.04002Q14.8135 9.04002 13.5718 9.49243L12.8982 7.80168Q13.0435 7.70922 13.3142 7.58043Q13.585 7.45164 14.5097 7.23369Q15.4343 7.01244 16.4481 7.01244Q19.998 7.01244 19.998 9.82926L19.998 14L17.1812 14L17.1812 13.2108Q17.1581 13.2438 17.1118 13.3065Q17.0656 13.3693 16.884 13.5278Q16.7057 13.683 16.491 13.8019Q16.2797 13.9207 15.8999 14.0165Q15.5235 14.1123 15.0942 14.1123Q13.978 14.1123 13.3803 13.5146ZM20.4426 14L22.698 10.5062L20.6671 7.237L23.9364 7.237L24.7256 9.26458L25.5148 7.237L28.7841 7.237L26.7532 10.5062L29.0086 14L25.6271 14L24.7256 11.9724L23.8241 14L20.4426 14Z" fill="#000000" fill-opacity="1.000000" transform="matrix(1 0 0 1 16.6748 35.9471)"/><path d="M0.676961 14L0.676961 7.237L3.83391 7.237L3.83391 14L0.676961 14ZM0.901514 6.56003L0.901514 4.53245L3.60606 4.53245L3.60606 6.56003L0.901514 6.56003ZM5.06993 14L5.06993 7.237L7.99903 7.237L7.99903 8.38618Q8.76515 7.12472 10.2545 7.12472Q11.3706 7.12472 12.0509 7.81159Q12.7345 8.49845 12.7345 9.71698L12.7345 14L9.5775 14L9.5775 10.3939Q9.5775 9.89861 9.44211 9.69717Q9.30672 9.49243 9.01282 9.49243Q8.46134 9.49243 8.22358 10.2453L8.22358 14L5.06993 14ZM13.571 9.04002L13.571 7.237L14.4725 7.237L14.4725 6.67231Q14.4725 5.44387 15.2386 4.81975Q16.0081 4.19232 17.1804 4.19232Q17.8111 4.19232 18.3791 4.35083Q18.9504 4.50934 19.1749 4.63482Q19.3995 4.75701 19.5448 4.86928L18.7588 6.44776Q18.3527 6.22321 17.9696 6.22321Q17.2926 6.22321 17.2926 6.90017L17.2926 7.237L18.8711 7.237L18.8711 9.04002L17.4049 9.04002L17.4049 14L14.3602 14L14.3602 9.04002L13.571 9.04002Z" fill="#000000" fill-opacity="1.000000" transform="matrix(1 0 0 1 16.6087 27.3351)"/><path d="M0.596783 0L2.86456 0C2.93048 0 2.98391 0.0534378 2.98391 0.119357L2.98391 2.38713C2.98391 2.71673 2.71673 2.98391 2.38713 2.98391L0.596783 2.98391C0.267189 2.98391 0 2.71673 0 2.38713L0 0.596783C0 0.267189 0.267189 0 0.596783 0L0.596783 0Z" fill="#EB512E" fill-opacity="1.000000" transform="matrix(1 0 0 1 17.3356 31.397)"/><path d="M0.596783 0L2.86456 0C2.93048 0 2.98391 0.0534378 2.98391 0.119357L2.98391 2.38713C2.98391 2.71673 2.71673 2.98391 2.38713 2.98391L0.596783 2.98391C0.267189 2.98391 0 2.71673 0 2.38713L0 0.596783C0 0.267189 0.267189 0 0.596783 0L0.596783 0Z" fill="none" stroke="#F94737" stroke-opacity="1.000000" stroke-width="2" stroke-dasharray="0 0" transform="matrix(1 0 0 1 17.3356 31.397)"/><path d="M0.596783 0L2.86456 0C2.93048 0 2.98391 0.0534378 2.98391 0.119357L2.98391 2.38713C2.98391 2.71673 2.71673 2.98391 2.38713 2.98391L0.596783 2.98391C0.267189 2.98391 0 2.71673 0 2.38713L0 0.596783C0 0.267189 0.267189 0 0.596783 0L0.596783 0Z" fill="#EB512E" fill-opacity="1.000000" transform="matrix(1 0 0 1 17.3356 31.397)"/><path d="M0.596783 0L2.86456 0C2.93048 0 2.98391 0.0534378 2.98391 0.119357L2.98391 2.38713C2.98391 2.71673 2.71673 2.98391 2.38713 2.98391L0.596783 2.98391C0.267189 2.98391 0 2.71673 0 2.38713L0 0.596783C0 0.267189 0.267189 0 0.596783 0L0.596783 0Z" fill="none" stroke="#F94737" stroke-opacity="1.000000" stroke-width="2" stroke-dasharray="0 0" transform="matrix(1 0 0 1 17.3356 31.397)"/><path d="M0.167856 2.72594C0.167856 3.5603 0.841734 4.235 1.67692 4.235C2.5121 4.235 3.18598 3.5603 3.18598 2.72594C3.18598 1.89075 2.5121 1.21605 1.67692 1.21605C0.841734 1.21605 0.167856 1.89075 0.167856 2.72594ZM3.06234 2.72594C3.06234 3.48988 2.44168 4.11054 1.67692 4.11054C0.912152 4.11054 0.291495 3.48988 0.291495 2.72594C0.291495 1.96117 0.912152 1.34051 1.67692 1.34051C2.44168 1.34051 3.06234 1.96117 3.06234 2.72594ZM0.684523 2.72594C0.684523 3.27536 1.12668 3.71833 1.67692 3.71833C2.22716 3.71833 2.66931 3.27536 2.66931 2.72594C2.66931 2.1757 2.22716 1.73272 1.67692 1.73272C1.12668 1.73272 0.684523 2.1757 0.684523 2.72594Z" fill="#D81918" fill-opacity="1.000000" transform="matrix(0.9899 0.141769 -0.141782 0.989898 40.1362 34.7149)"/><path d="M7.73018 3.86509C7.73018 5.99972 5.99972 7.73018 3.86509 7.73018C1.73046 7.73018 0 5.99972 0 3.86509C0 1.73046 1.73046 0 3.86509 0L3.86638 1.93319C2.79871 1.93319 1.93319 2.79871 1.93319 3.86638C1.93319 4.93406 2.79871 5.79957 3.86638 5.79957C4.93406 5.79957 5.79958 4.93406 5.79958 3.86638L7.73018 3.86509L7.73018 3.86509Z" fill="#8A8A8A" fill-opacity="1.000000" transform="matrix(0.793376 0.608731 -0.608735 0.793374 40.6743 32.0999)"/><path d="M7.73018 3.86509C7.73018 5.99972 5.99972 7.73018 3.86509 7.73018C1.73046 7.73018 0 5.99972 0 3.86509C0 1.73046 1.73046 0 3.86509 0L3.86638 1.93319C2.79871 1.93319 1.93319 2.79871 1.93319 3.86638C1.93319 4.93406 2.79871 5.79957 3.86638 5.79957C4.93406 5.79957 5.79958 4.93406 5.79958 3.86638L7.73018 3.86509L7.73018 3.86509Z" fill="#8A8A8A" fill-opacity="1.000000" transform="matrix(0.793376 0.608731 -0.608735 0.793374 40.6743 32.0999)"/><path d="M7.73019 3.86509C7.73019 5.99972 5.99973 7.73018 3.86509 7.73018C1.73046 7.73018 0 5.99972 0 3.86509C0 1.73046 1.73046 0 3.86509 0L3.86639 1.93319C2.79871 1.93319 1.93319 2.79871 1.93319 3.86638C1.93319 4.93405 2.79871 5.79957 3.86639 5.79957C4.93406 5.79957 5.79958 4.93405 5.79958 3.86638L7.73019 3.86509L7.73019 3.86509Z" fill="#8A8A8A" fill-opacity="1.000000" transform="matrix(0.920719 -0.390226 0.390224 0.92072 36.3668 35.4334)"/><path d="M7.73019 3.86509C7.73019 5.99972 5.99973 7.73018 3.86509 7.73018C1.73046 7.73018 0 5.99972 0 3.86509C0 1.73046 1.73046 0 3.86509 0L3.86639 1.93319C2.79871 1.93319 1.93319 2.79871 1.93319 3.86638C1.93319 4.93405 2.79871 5.79957 3.86639 5.79957C4.93406 5.79957 5.79958 4.93405 5.79958 3.86638L7.73019 3.86509L7.73019 3.86509Z" fill="#8A8A8A" fill-opacity="1.000000" transform="matrix(0.920719 -0.390226 0.390224 0.92072 36.3668 35.4334)"/></svg>