<svg xmlns="http://www.w3.org/2000/svg" xmlns:xlink="http://www.w3.org/1999/xlink" width="79.701981" height="79.702133" viewBox="0 0 79.702 79.7021"><path d="M0.189207 5L0.189207 2.73394L1.17065 2.73394L1.17065 3.06257Q1.42403 2.69632 1.85113 2.69632Q2.35679 2.69632 2.53382 3.11568Q2.79052 2.69632 3.2475 2.69632Q3.59161 2.69632 3.79741 2.90987Q4.00322 3.12342 4.00322 3.52729L4.00322 5L2.98416 5L2.98416 3.75411Q2.98416 3.58703 2.94543 3.51954Q2.90781 3.45204 2.83257 3.45204Q2.7529 3.45204 2.70422 3.50848Q2.65553 3.56491 2.60574 3.68219L2.60574 5L1.58668 5L1.58668 3.75411Q1.58668 3.58703 1.54795 3.51954Q1.51033 3.45204 1.43509 3.45204Q1.35543 3.45204 1.30674 3.50848Q1.25806 3.56491 1.20827 3.68219L1.20827 5L0.189207 5ZM5.35649 4.179Q5.30559 4.22547 5.30559 4.32063Q5.30559 4.41468 5.35649 4.46225Q5.40738 4.50873 5.47599 4.50873Q5.58885 4.50873 5.6829 4.42574L5.6829 4.2144Q5.58885 4.13142 5.47599 4.13142Q5.40738 4.13142 5.35649 4.179ZM4.48569 4.83735Q4.28542 4.63708 4.28542 4.32063Q4.28542 4.00307 4.48569 3.8028Q4.68597 3.60253 5.05995 3.60253Q5.4605 3.60253 5.6829 3.81829L5.6829 3.64015Q5.6829 3.47417 5.57889 3.40668Q5.47599 3.33808 5.24916 3.33808Q4.9659 3.33808 4.54987 3.48967L4.32415 2.92315Q4.37283 2.89217 4.46356 2.84902Q4.55429 2.80587 4.86411 2.73284Q5.17392 2.6587 5.51361 2.6587Q6.70306 2.6587 6.70306 3.60253L6.70306 5L5.75924 5L5.75924 4.73555Q5.7515 4.74662 5.73601 4.76764Q5.72052 4.78866 5.65966 4.84177Q5.59991 4.89378 5.52799 4.93361Q5.45718 4.97344 5.32993 5.00553Q5.20379 5.03762 5.05995 5.03762Q4.68597 5.03762 4.48569 4.83735ZM6.85358 5L7.6093 3.82935L6.92882 2.73394L8.02422 2.73394L8.28867 3.41332L8.55312 2.73394L9.64853 2.73394L8.96805 3.82935L9.72377 5L8.59074 5L8.28867 4.32063L7.9866 5L6.85358 5Z" fill="#EBEBEB" fill-opacity="1.000000" transform="matrix(1 0 0 1 31.5546 39.3359)"/><path d="M0.226827 5L0.226827 2.73394L1.28461 2.73394L1.28461 5L0.226827 5ZM0.302067 2.50712L0.302067 1.82774L1.20827 1.82774L1.20827 2.50712L0.302067 2.50712ZM1.69964 5L1.69964 2.73394L2.68109 2.73394L2.68109 3.119Q2.93779 2.69632 3.43681 2.69632Q3.81079 2.69632 4.03873 2.92647Q4.26777 3.15662 4.26777 3.5649L4.26777 5L3.20998 5L3.20998 3.79173Q3.20998 3.62576 3.16461 3.55827Q3.11925 3.48966 3.02077 3.48966Q2.83599 3.48966 2.75633 3.74194L2.75633 5L1.69964 5ZM4.54975 3.33808L4.54975 2.73394L4.85182 2.73394L4.85182 2.54474Q4.85182 2.13313 5.10852 1.92401Q5.36633 1.71378 5.75912 1.71378Q5.97046 1.71378 6.16077 1.76689Q6.35219 1.82 6.42743 1.86204Q6.50267 1.90298 6.55136 1.9406L6.28802 2.4695Q6.15192 2.39426 6.02357 2.39426Q5.79674 2.39426 5.79674 2.62108L5.79674 2.73394L6.32564 2.73394L6.32564 3.33808L5.83436 3.33808L5.83436 5L4.8142 5L4.8142 3.33808L4.54975 3.33808Z" fill="#EBEBEB" fill-opacity="1.000000" transform="matrix(1 0 0 1 31.5324 36.4503)"/><path d="M0.199962 0L0.959818 0C0.981905 0 0.99981 0.0179052 0.99981 0.0399924L0.99981 0.799848C0.99981 0.910284 0.910284 0.99981 0.799848 0.99981L0.199962 0.99981C0.089526 0.99981 0 0.910284 0 0.799848L0 0.199962C0 0.089526 0.089526 0 0.199962 0L0.199962 0Z" fill="#EB512E" fill-opacity="1.000000" transform="matrix(1 0 0 1 31.776 37.8113)"/><path d="M0.199962 0L0.959818 0C0.981905 0 0.99981 0.0179052 0.99981 0.0399924L0.99981 0.799848C0.99981 0.910284 0.910284 0.99981 0.799848 0.99981L0.199962 0.99981C0.089526 0.99981 0 0.910284 0 0.799848L0 0.199962C0 0.089526 0.089526 0 0.199962 0L0.199962 0Z" fill="none" stroke="#F94737" stroke-opacity="1.000000" stroke-width="2" stroke-dasharray="0 0" transform="matrix(1 0 0 1 31.776 37.8113)"/><path d="M0.199962 0L0.959818 0C0.981905 0 0.99981 0.0179052 0.99981 0.0399924L0.99981 0.799848C0.99981 0.910284 0.910284 0.99981 0.799848 0.99981L0.199962 0.99981C0.089526 0.99981 0 0.910284 0 0.799848L0 0.199962C0 0.089526 0.089526 0 0.199962 0L0.199962 0Z" fill="#EB512E" fill-opacity="1.000000" transform="matrix(1 0 0 1 31.776 37.8113)"/><path d="M0.199962 0L0.959818 0C0.981905 0 0.99981 0.0179052 0.99981 0.0399924L0.99981 0.799848C0.99981 0.910284 0.910284 0.99981 0.799848 0.99981L0.199962 0.99981C0.089526 0.99981 0 0.910284 0 0.799848L0 0.199962C0 0.089526 0.089526 0 0.199962 0L0.199962 0Z" fill="none" stroke="#F94737" stroke-opacity="1.000000" stroke-width="2" stroke-dasharray="0 0" transform="matrix(1 0 0 1 31.776 37.8113)"/><path d="M0.056243 0.573102C0.056243 0.852671 0.282038 1.07874 0.561881 1.07874C0.841725 1.07874 1.06752 0.852671 1.06752 0.573102C1.06752 0.293259 0.841725 0.0671892 0.561881 0.0671892C0.282038 0.0671892 0.056243 0.293259 0.056243 0.573102ZM1.02609 0.573102C1.02609 0.829076 0.81813 1.03704 0.561881 1.03704C0.305633 1.03704 0.0976708 0.829076 0.0976708 0.573102C0.0976708 0.316853 0.305633 0.108891 0.561881 0.108891C0.81813 0.108891 1.02609 0.316853 1.02609 0.573102ZM0.229362 0.573102C0.229362 0.757195 0.377514 0.905621 0.561881 0.905621C0.746249 0.905621 0.894401 0.757195 0.894401 0.573102C0.894401 0.388735 0.746249 0.240308 0.561881 0.240308C0.377514 0.240308 0.229362 0.388735 0.229362 0.573102Z" fill="#D81918" fill-opacity="1.000000" transform="matrix(0.989899 0.141775 -0.141775 0.989899 39.442 38.8779)"/><path d="M2.59013 1.29506C2.59013 2.0103 2.01031 2.59012 1.29506 2.59012C0.57982 2.59012 0 2.0103 0 1.29506C0 0.579819 0.57982 0 1.29506 0L1.2955 0.647747C0.937755 0.647747 0.647748 0.937754 0.647748 1.29549C0.647748 1.65324 0.937755 1.94324 1.2955 1.94324C1.65324 1.94324 1.94325 1.65324 1.94325 1.29549L2.59013 1.29506L2.59013 1.29506Z" fill="#8A8A8A" fill-opacity="1.000000" transform="matrix(0.793377 0.608731 -0.608734 0.793374 39.596 38.0468)"/><path d="M2.59013 1.29506C2.59013 2.0103 2.01031 2.59012 1.29506 2.59012C0.57982 2.59012 0 2.0103 0 1.29506C0 0.579819 0.57982 0 1.29506 0L1.2955 0.647747C0.937755 0.647747 0.647748 0.937754 0.647748 1.29549C0.647748 1.65324 0.937755 1.94324 1.2955 1.94324C1.65324 1.94324 1.94325 1.65324 1.94325 1.29549L2.59013 1.29506L2.59013 1.29506Z" fill="#8A8A8A" fill-opacity="1.000000" transform="matrix(0.793377 0.608731 -0.608734 0.793374 39.596 38.0468)"/><path d="M2.59013 1.29506C2.59013 2.0103 2.01031 2.59012 1.29506 2.59012C0.57982 2.59012 0 2.0103 0 1.29506C0 0.579818 0.57982 0 1.29506 0L1.2955 0.647747C0.937755 0.647747 0.647748 0.937753 0.647748 1.29549C0.647748 1.65323 0.937755 1.94324 1.2955 1.94324C1.65324 1.94324 1.94325 1.65323 1.94325 1.29549L2.59013 1.29506L2.59013 1.29506Z" fill="#8A8A8A" fill-opacity="1.000000" transform="matrix(0.920719 -0.390226 0.390222 0.920721 38.1527 39.1638)"/><path d="M2.59013 1.29506C2.59013 2.0103 2.01031 2.59012 1.29506 2.59012C0.57982 2.59012 0 2.0103 0 1.29506C0 0.579818 0.57982 0 1.29506 0L1.2955 0.647747C0.937755 0.647747 0.647748 0.937753 0.647748 1.29549C0.647748 1.65323 0.937755 1.94324 1.2955 1.94324C1.65324 1.94324 1.94325 1.65323 1.94325 1.29549L2.59013 1.29506L2.59013 1.29506Z" fill="#8A8A8A" fill-opacity="1.000000" transform="matrix(0.920719 -0.390226 0.390222 0.920721 38.1527 39.1638)"/></svg>