<svg xmlns="http://www.w3.org/2000/svg" xmlns:xlink="http://www.w3.org/1999/xlink" width="71.642029" height="71.642151" viewBox="0 0 71.642 71.6422"><path d="M0.379368 9L0.379368 4.45646L2.3472 4.45646L2.3472 5.11536Q2.85524 4.38103 3.71159 4.38103Q4.72546 4.38103 5.08042 5.22185Q5.59512 4.38103 6.51137 4.38103Q7.20133 4.38103 7.61398 4.80921Q8.02662 5.23738 8.02662 6.04714L8.02662 9L5.98336 9L5.98336 6.50194Q5.98336 6.16694 5.90571 6.03161Q5.83028 5.89628 5.67942 5.89628Q5.51969 5.89628 5.42207 6.00943Q5.32446 6.12257 5.22463 6.35774L5.22463 9L3.18136 9L3.18136 6.50194Q3.18136 6.16694 3.10372 6.03161Q3.02829 5.89628 2.87743 5.89628Q2.71769 5.89628 2.62008 6.00943Q2.52246 6.12257 2.42263 6.35774L2.42263 9L0.379368 9ZM10.7332 7.35386Q10.6311 7.44703 10.6311 7.63783Q10.6311 7.8264 10.7332 7.9218Q10.8352 8.01498 10.9728 8.01498Q11.1991 8.01498 11.3876 7.84859L11.3876 7.42485Q11.1991 7.25846 10.9728 7.25846Q10.8352 7.25846 10.7332 7.35386ZM8.98719 8.67388Q8.58563 8.27232 8.58563 7.63783Q8.58563 7.00111 8.98719 6.59956Q9.38874 6.198 10.1386 6.198Q10.9417 6.198 11.3876 6.63062L11.3876 6.27343Q11.3876 5.94065 11.1791 5.80532Q10.9728 5.66778 10.518 5.66778Q9.95003 5.66778 9.11586 5.97171L8.66328 4.83583Q8.7609 4.77371 8.94282 4.68719Q9.12474 4.60067 9.74592 4.45424Q10.3671 4.3056 11.0482 4.3056Q13.4331 4.3056 13.4331 6.198L13.4331 9L11.5407 9L11.5407 8.46977Q11.5252 8.49196 11.4941 8.53411Q11.4631 8.57626 11.341 8.68275Q11.2212 8.78702 11.077 8.86689Q10.9351 8.94676 10.6799 9.01109Q10.427 9.07543 10.1386 9.07543Q9.38874 9.07543 8.98719 8.67388ZM13.7305 9L15.2458 6.6528L13.8814 4.45646L16.0777 4.45646L16.6079 5.81864L17.1382 4.45646L19.3345 4.45646L17.9701 6.6528L19.4854 9L17.2136 9L16.6079 7.63783L16.0023 9L13.7305 9Z" fill="#EBEBEB" fill-opacity="1.000000" transform="matrix(1 0 0 1 19.1862 34.7882)"/><path d="M0.454798 9L0.454798 4.45646L2.57571 4.45646L2.57571 9L0.454798 9ZM0.605657 4.00166L0.605657 2.63949L2.42263 2.63949L2.42263 4.00166L0.605657 4.00166ZM3.40538 9L3.40538 4.45646L5.37322 4.45646L5.37322 5.22851Q5.88791 4.38103 6.88847 4.38103Q7.63833 4.38103 8.09534 4.84248Q8.55458 5.30394 8.55458 6.12257L8.55458 9L6.43367 9L6.43367 6.57737Q6.43367 6.24459 6.34271 6.10926Q6.25175 5.97171 6.0543 5.97171Q5.68381 5.97171 5.52408 6.47754L5.52408 9L3.40538 9ZM9.11519 5.66778L9.11519 4.45646L9.72085 4.45646L9.72085 4.07709Q9.72085 3.2518 10.2355 2.8325Q10.7525 2.41098 11.54 2.41098Q11.9638 2.41098 12.3454 2.51747Q12.7292 2.62396 12.88 2.70826Q13.0309 2.79035 13.1285 2.86578L12.6005 3.92623Q12.3276 3.77537 12.0703 3.77537Q11.6155 3.77537 11.6155 4.23017L11.6155 4.45646L12.6759 4.45646L12.6759 5.66778L11.6909 5.66778L11.6909 9L9.64542 9L9.64542 5.66778L9.11519 5.66778Z" fill="#EBEBEB" fill-opacity="1.000000" transform="matrix(1 0 0 1 19.1419 29.0024)"/><path d="M0.400932 0L1.92448 0C1.96876 0 2.00466 0.0359007 2.00466 0.0801864L2.00466 1.60373C2.00466 1.82516 1.82516 2.00466 1.60373 2.00466L0.400932 2.00466C0.179503 2.00466 0 1.82516 0 1.60373L0 0.400932C0 0.179503 0.179503 0 0.400932 0L0.400932 0Z" fill="#EB512E" fill-opacity="1.000000" transform="matrix(1 0 0 1 19.6302 31.7314)"/><path d="M0.400932 0L1.92448 0C1.96876 0 2.00466 0.0359007 2.00466 0.0801864L2.00466 1.60373C2.00466 1.82516 1.82516 2.00466 1.60373 2.00466L0.400932 2.00466C0.179503 2.00466 0 1.82516 0 1.60373L0 0.400932C0 0.179503 0.179503 0 0.400932 0L0.400932 0Z" fill="none" stroke="#F94737" stroke-opacity="1.000000" stroke-width="2" stroke-dasharray="0 0" transform="matrix(1 0 0 1 19.6302 31.7314)"/><path d="M0.400932 0L1.92448 0C1.96876 0 2.00466 0.0359007 2.00466 0.0801864L2.00466 1.60373C2.00466 1.82516 1.82516 2.00466 1.60373 2.00466L0.400932 2.00466C0.179503 2.00466 0 1.82516 0 1.60373L0 0.400932C0 0.179503 0.179503 0 0.400932 0L0.400932 0Z" fill="#EB512E" fill-opacity="1.000000" transform="matrix(1 0 0 1 19.6302 31.7314)"/><path d="M0.400932 0L1.92448 0C1.96876 0 2.00466 0.0359007 2.00466 0.0801864L2.00466 1.60373C2.00466 1.82516 1.82516 2.00466 1.60373 2.00466L0.400932 2.00466C0.179503 2.00466 0 1.82516 0 1.60373L0 0.400932C0 0.179503 0.179503 0 0.400932 0L0.400932 0Z" fill="none" stroke="#F94737" stroke-opacity="1.000000" stroke-width="2" stroke-dasharray="0 0" transform="matrix(1 0 0 1 19.6302 31.7314)"/><path d="M0.112768 2.14406C0.112768 2.7046 0.565491 3.15788 1.12658 3.15788C1.68767 3.15788 2.1404 2.7046 2.1404 2.14406C2.1404 1.58297 1.68767 1.1297 1.12658 1.1297C0.565491 1.1297 0.112768 1.58297 0.112768 2.14406ZM2.05733 2.14406C2.05733 2.65729 1.64036 3.07426 1.12658 3.07426C0.612799 3.07426 0.195832 2.65729 0.195832 2.14406C0.195832 1.63028 0.612799 1.21331 1.12658 1.21331C1.64036 1.21331 2.05733 1.63028 2.05733 2.14406ZM0.459874 2.14406C0.459874 2.51317 0.756922 2.81077 1.12658 2.81077C1.49624 2.81077 1.79329 2.51317 1.79329 2.14406C1.79329 1.7744 1.49624 1.4768 1.12658 1.4768C0.756922 1.4768 0.459874 1.7744 0.459874 2.14406Z" fill="#D81918" fill-opacity="1.000000" transform="matrix(0.989898 0.141781 -0.141781 0.989898 34.9242 33.9364)"/><path d="M5.19332 2.59665C5.19332 4.03075 4.03075 5.19331 2.59666 5.19331C1.16256 5.19331 0 4.03075 0 2.59665C0 1.16256 1.16256 0 2.59666 0L2.59753 1.29876C1.88024 1.29876 1.29876 1.88024 1.29876 2.59752C1.29876 3.31481 1.88024 3.89628 2.59753 3.89628C3.31481 3.89628 3.89629 3.31481 3.89629 2.59752L5.19332 2.59665L5.19332 2.59665Z" fill="#8A8A8A" fill-opacity="1.000000" transform="matrix(0.793377 0.608731 -0.608734 0.793374 35.3097 32.2036)"/><path d="M5.19332 2.59665C5.19332 4.03075 4.03075 5.19331 2.59666 5.19331C1.16256 5.19331 0 4.03075 0 2.59665C0 1.16256 1.16256 0 2.59666 0L2.59753 1.29876C1.88024 1.29876 1.29876 1.88024 1.29876 2.59752C1.29876 3.31481 1.88024 3.89628 2.59753 3.89628C3.31481 3.89628 3.89629 3.31481 3.89629 2.59752L5.19332 2.59665L5.19332 2.59665Z" fill="#8A8A8A" fill-opacity="1.000000" transform="matrix(0.793377 0.608731 -0.608734 0.793374 35.3097 32.2036)"/><path d="M5.19332 2.59665C5.19332 4.03074 4.03075 5.1933 2.59666 5.1933C1.16256 5.1933 0 4.03074 0 2.59665C0 1.16256 1.16256 0 2.59666 0L2.59753 1.29876C1.88024 1.29876 1.29876 1.88023 1.29876 2.59752C1.29876 3.31481 1.88024 3.89628 2.59753 3.89628C3.31481 3.89628 3.89629 3.31481 3.89629 2.59752L5.19332 2.59665L5.19332 2.59665Z" fill="#8A8A8A" fill-opacity="1.000000" transform="matrix(0.920719 -0.390226 0.390222 0.920721 32.4158 34.4431)"/><path d="M5.19332 2.59665C5.19332 4.03074 4.03075 5.1933 2.59666 5.1933C1.16256 5.1933 0 4.03074 0 2.59665C0 1.16256 1.16256 0 2.59666 0L2.59753 1.29876C1.88024 1.29876 1.29876 1.88023 1.29876 2.59752C1.29876 3.31481 1.88024 3.89628 2.59753 3.89628C3.31481 3.89628 3.89629 3.31481 3.89629 2.59752L5.19332 2.59665L5.19332 2.59665Z" fill="#8A8A8A" fill-opacity="1.000000" transform="matrix(0.920719 -0.390226 0.390222 0.920721 32.4158 34.4431)"/></svg>