<?xml version="1.0" standalone="no"?><!DOCTYPE svg PUBLIC "-//W3C//DTD SVG 1.1//EN" "http://www.w3.org/Graphics/SVG/1.1/DTD/svg11.dtd"><svg class="icon" width="200px" height="200.00px" viewBox="0 0 1024 1024" version="1.1" xmlns="http://www.w3.org/2000/svg"><path d="M0.067584 0h1024v1024H0.067584z" fill="#333333" /><path d="M512.118784 102.4c132.5056 0 249.7536 67.072 321.792 170.1888 99.6352 13.4656 168.2432 52.1216 186.112 121.088 18.9952 73.216-30.4128 149.7088-122.88 216.8832C854.441984 789.1456 698.230784 921.6 512.067584 921.6c-110.08 0-209.7664-46.3872-281.6-121.2416-120.32-8.1408-206.4384-49.1008-226.304-125.4912-18.688-72.192 26.624-144.384 114.0224-209.8688C140.765184 260.9152 308.547584 102.4 512.118784 102.4z m232.6528 593.7664l-11.6736 5.0688c-50.176 21.504-104.96 40.6016-162.9696 56.6272-57.6512 15.9744-114.0736 27.648-167.68 34.9696a284.5184 284.5184 0 0 0 109.6704 21.9136c94.8224 0 179.0976-46.4896 232.6528-118.5792z m-232.6528-486.912c-161.792 0-293.0688 135.5264-293.0688 302.7456 0 68.608 22.0672 131.84 59.2896 182.5792 77.9264-0.2048 170.3936-13.7216 265.0112-39.936 100.0448-27.648 191.0784-66.3552 260.1984-109.2096a336.384 336.384 0 0 0 1.6896-33.4336c0-167.2192-131.2256-302.7456-293.12-302.7456z m-387.072 391.68l-4.3008 5.376c-13.5168 17.4592-18.944 31.744-16.5888 40.8576 2.7136 10.496 18.1248 21.9136 45.3632 30.9248a420.8128 420.8128 0 0 1-24.5248-77.1072z m768-203.3152l0.9216 3.5328c5.12 18.944 9.0112 38.5024 11.4688 58.4704 12.1856-16.384 16.896-29.7472 14.6944-38.2976-2.048-7.8336-11.2128-16.2304-27.136-23.7056z" fill="#333333" /></svg>