<?xml version="1.0" standalone="no"?><!DOCTYPE svg PUBLIC "-//W3C//DTD SVG 1.1//EN" "http://www.w3.org/Graphics/SVG/1.1/DTD/svg11.dtd"><svg class="icon" width="200px" height="200.00px" viewBox="0 0 1024 1024" version="1.1" xmlns="http://www.w3.org/2000/svg"><path d="M619.565 881.304h-215.13c-20.435 0-37 16.565-37 37s16.565 37 37 37h215.131c20.435 0 37-16.565 37-37s-16.566-37-37.001-37zM808.741 277.691c-16.224-38.355-39.44-72.795-69.007-102.361-29.565-29.566-64.005-52.783-102.36-69.006C597.645 89.521 555.462 81 512 81s-85.645 8.521-125.374 25.325c-38.355 16.223-72.795 39.44-102.36 69.006-29.566 29.566-52.783 64.005-69.007 102.361-16.804 39.73-25.324 81.912-25.324 125.374 0 55.984 14.597 111.138 42.213 159.5 23.271 40.75 55.376 76.111 93.584 103.259v122.48c0 20.435 16.565 37 37 37h298.537c20.435 0 37-16.565 37-37v-122.48c38.208-27.147 70.313-62.508 93.584-103.259 27.616-48.362 42.213-103.516 42.213-159.5-0.001-43.463-8.521-85.645-25.325-125.375zM602.472 432.736l-85.343 126.5c-7.147 10.594-18.822 16.31-30.707 16.311a36.82 36.82 0 0 1-20.659-6.332c-16.939-11.428-21.407-34.425-9.979-51.365l46.421-68.807h-50.003a37 37 0 0 1-31.463-56.471l70.538-113.984c10.754-17.376 33.558-22.745 50.934-11.992 17.376 10.753 22.745 33.557 11.992 50.933l-35.592 57.513h53.188a37 37 0 0 1 30.673 57.694z" fill="#231815" /></svg>